<svg width="44" height="44" viewBox="0 0 44 44" fill="none" xmlns="http://www.w3.org/2000/svg">
<path d="M17.4141 5.11562C17.1729 4.98832 16.8902 4.96506 16.6315 5.05121C16.3727 5.13736 16.1604 5.32545 16.0436 5.57191L13.7386 10.438L9.19516 11.2373C8.6664 11.3304 8.30545 11.8243 8.37746 12.3563L9.14594 18.0346L5.35482 21.236C5.12981 21.426 5 21.7055 5 22C5 22.2945 5.12981 22.574 5.35482 22.764L9.14594 25.9654L8.37746 31.6437C8.30545 32.1757 8.6664 32.6696 9.19516 32.7627L13.7386 33.562L16.0436 38.4281C16.1604 38.6746 16.3727 38.8626 16.6315 38.9488C16.8902 39.0349 17.1729 39.0117 17.4141 38.8844L22 36.4641L26.5859 38.8844C26.8271 39.0117 27.1098 39.0349 27.3685 38.9488C27.6273 38.8626 27.8396 38.6746 27.9564 38.4281L30.2614 33.562L34.8048 32.7627C35.3336 32.6696 35.6945 32.1757 35.6225 31.6437L34.8541 25.9654L38.6452 22.764C38.8702 22.574 39 22.2945 39 22C39 21.7055 38.8702 21.426 38.6452 21.236L34.8541 18.0346L35.6225 12.3563C35.6945 11.8243 35.3336 11.3304 34.8048 11.2373L30.2614 10.438L27.9564 5.57191C27.8396 5.32545 27.6273 5.13736 27.3685 5.05121C27.1098 4.96506 26.8271 4.98832 26.5859 5.11562L22 7.53594L17.4141 5.11562Z" stroke="#2C4EDD" stroke-width="2" stroke-linecap="round" stroke-linejoin="round"/>
<path d="M16 22L19.5 25.5L28 17" stroke="#1A173B" stroke-width="2" stroke-linecap="round"/>
</svg>
