<svg width="44" height="44" viewBox="0 0 44 44" fill="none" xmlns="http://www.w3.org/2000/svg">
<path d="M7.20513 11.2892C7.1733 11.4916 4.23053 31.5846 21.7205 38.9436L21.8907 38.0223L21.8917 38.0219C21.9279 38.0067 21.964 37.9914 22 37.976M7.20513 11.2892L7.89541 11.3983L7.89628 11.3985L8.19287 11.4454C8.16743 11.6063 8.04139 11.6995 7.92208 11.7098C8.00213 11.7031 8.08197 11.6961 8.1616 11.6886M7.20513 11.2892L7.89537 11.3978L7.89624 11.398L8.19298 11.4447L8.19296 11.4448C8.19237 11.4488 8.17992 11.5328 8.1616 11.6886M7.20513 11.2892L22 6.08076M8.1616 11.6886C8.14424 11.8363 8.1216 12.0484 8.09878 12.3181C8.05141 12.8778 8.00363 13.6808 8.0002 14.6642C7.99332 16.6339 8.16444 19.3108 8.864 22.1971C10.2535 27.93 13.7076 34.4433 22 37.976M8.1616 11.6886C15.4494 11.0063 20.9311 6.92904 22 6.08076M22 37.976C30.2924 34.4433 33.7465 27.93 35.136 22.1971C35.8356 19.3108 36.0067 16.6339 35.9998 14.6642C35.9964 13.6808 35.9486 12.8778 35.9012 12.3181C35.8784 12.0484 35.8558 11.8363 35.8384 11.6886M22 37.976C22.036 37.9914 22.0721 38.0067 22.1083 38.0219C22.0725 38.0069 22.0355 38 22 38L35.8384 11.6886M35.8384 11.6886C35.918 11.6961 35.9979 11.7031 36.0779 11.7098C35.9586 11.6995 35.8326 11.6063 35.8071 11.4454L36.1037 11.3985L36.1046 11.3983L36.7949 11.2892M35.8384 11.6886L36.7949 11.2892M35.8384 11.6886C28.5506 11.0063 23.0689 6.92904 22 6.08076M35.8384 11.6886L22 5.70822L22.4634 5.16919L22.0023 5.71095L22.1885 5.92742C22.1876 5.92816 22.1863 5.92924 22.1847 5.93066M35.8384 11.6886C35.8201 11.533 35.8077 11.449 35.807 11.4448L35.807 11.4447L36.1038 11.398L36.1046 11.3978L36.7949 11.2892M35.8384 11.6886L36.7949 11.2892M22 6.08076C22.1 6.00143 22.1613 5.95034 22.182 5.93291M22.182 5.93291C22.1829 5.93217 22.1838 5.93142 22.1847 5.93067L22.1847 5.93066M22.182 5.93291C22.183 5.93208 22.1839 5.93133 22.1847 5.93066M22.182 5.93291L22 5.7137L22.1847 5.93066M21.8153 5.93067L21.8154 5.93066C21.8163 5.93145 21.8173 5.93235 21.8185 5.93335C21.8175 5.93247 21.8164 5.93157 21.8153 5.93067Z" stroke="#2C4EDD" stroke-width="2"/>
<path d="M16 22L19.5 25.5L28 17" stroke="#1A173B" stroke-width="2" stroke-linecap="round"/>
</svg>
