<svg width="44" height="51" viewBox="0 0 44 51" fill="none" xmlns="http://www.w3.org/2000/svg">
<g filter="url(#filter0_d)">
<path d="M14 42C14 42 15.536 29.8461 19 23C22.3868 16.3063 23.4124 14.8877 28 11.5C31.3023 9.0614 37.5 7 37.5 7" stroke="#2C4EDD" stroke-width="2"/>
<path d="M14 42C14 42 15.536 29.8461 19 23C22.3868 16.3063 23.4124 14.8877 28 11.5" stroke="#1A173B" stroke-width="2"/>
<path d="M28 12C28 12 31.3521 12.6095 33.5 13C35.6479 13.3905 39 16 39 16" stroke="#2C4EDD" stroke-width="2"/>
<path d="M28 12C28 12 24.6479 11.3905 22.5 11C20.3521 10.6095 16 12 16 12" stroke="#2C4EDD" stroke-width="2"/>
<path d="M28 12C28 12 29.219 13.8284 30 15C30.781 16.1716 32 21 32 21" stroke="#2C4EDD" stroke-width="2"/>
<path d="M28 12C28 12 26.4763 9.86683 25.5 8.5C24.5237 7.13317 19 5 19 5" stroke="#2C4EDD" stroke-width="2"/>
</g>
<defs>
<filter id="filter0_d" x="-4" y="0" width="52" height="52" filterUnits="userSpaceOnUse" color-interpolation-filters="sRGB">
<feFlood flood-opacity="0" result="BackgroundImageFix"/>
<feColorMatrix in="SourceAlpha" type="matrix" values="0 0 0 0 0 0 0 0 0 0 0 0 0 0 0 0 0 0 127 0"/>
<feOffset dy="4"/>
<feGaussianBlur stdDeviation="2"/>
<feColorMatrix type="matrix" values="0 0 0 0 0 0 0 0 0 0 0 0 0 0 0 0 0 0 0.25 0"/>
<feBlend mode="normal" in2="BackgroundImageFix" result="effect1_dropShadow"/>
<feBlend mode="normal" in="SourceGraphic" in2="effect1_dropShadow" result="shape"/>
</filter>
</defs>
</svg>
