<svg width="44" height="44" viewBox="0 0 44 44" fill="none" xmlns="http://www.w3.org/2000/svg">
<path d="M28.1327 29.7163C26.7551 31.0114 25.2404 32.4355 23.6207 34.0346L22 35.6068L20.3791 34.0344C18.7595 32.4354 17.2449 31.0114 15.8674 29.7164C15.485 29.3569 15.1133 29.0074 14.7528 28.6669C13.0837 27.0902 11.6619 25.7108 10.5009 24.3904C8.19683 21.7701 7 19.4732 7 16.5207C7 11.631 10.4648 8 14.8 8C17.2657 8 19.6246 9.22158 21.2123 11.2514L22 12.2585L22.7877 11.2514C24.3753 9.22158 26.7341 8 29.2 8C33.5352 8 37 11.631 37 16.5207C37 19.4733 35.8031 21.7702 33.4991 24.3905C32.338 25.7109 30.9162 27.0902 29.2472 28.6669C28.8867 29.0074 28.515 29.3569 28.1327 29.7163Z" stroke="#2C4EDD" stroke-width="2"/>
<path d="M28 12C30.8183 12 33 14.1817 33 17" stroke="#1A173B" stroke-width="2" stroke-linecap="round"/>
</svg>
