<?xml version="1.0" encoding="UTF-8"?>
<!DOCTYPE svg PUBLIC "-//W3C//DTD SVG 1.1//EN" "http://www.w3.org/Graphics/SVG/1.1/DTD/svg11.dtd">
<!-- Creator: CorelDRAW X7 -->
<svg xmlns="http://www.w3.org/2000/svg" xml:space="preserve" width="210mm" height="223.859mm" version="1.1" style="shape-rendering:geometricPrecision; text-rendering:geometricPrecision; image-rendering:optimizeQuality; fill-rule:evenodd; clip-rule:evenodd"
viewBox="0 0 21000 22386"
 xmlns:xlink="http://www.w3.org/1999/xlink">
 <defs>
  <style type="text/css">
   <![CDATA[
    .fil0 {fill:#000000}

    nav.tariffs li:hover .fil0 {
        fill: #ce6667;
    }
   ]]>
  </style>
 </defs>
 <g id="Слой_x0020_1">
  <metadata id="CorelCorpID_0Corel-Layer"/>
  <path class="fil0" d="M4191 11916l1350 0 2116 0 0 -9894 0 -675 694 0 1434 0 695 0 0 675 0 9894 2106 0 0 -6383 0 -676 695 0 1434 0 694 0 0 676 0 6383 4241 0 1350 0 0 1351 0 7769 0 1351 -1350 0 -2885 0 -480 0 -215 0 -15376 0 -694 0 0 -675 0 -2116 0 -675 694 0 3497 0 0 -5654 0 -1351zm11218 -7729l0 -676 -2823 0 0 676 2823 0zm-2128 1346l0 6383 1434 0 0 -6383 -1434 0zm-2801 -4857l0 -675 -2823 0 0 675 2823 0zm-2129 1346l0 9894 1434 0 0 -9894 -1434 0zm5681 12669l694 0 0 1399 -694 0 0 -1399zm-1416 0l695 0 0 1399 -695 0 0 -1399zm-1416 0l695 0 0 1399 -695 0 0 -1399zm-1415 0l694 0 0 1399 -694 0 0 -1399zm-1416 0l694 0 0 1399 -694 0 0 -1399zm-1388 0l694 0 0 1399 -694 0 0 -1399zm9784 4905l0 1440 2885 0 0 -7769 -14109 0 0 5654 10529 0 695 0 0 675zm-695 2116l0 -2116 -15376 0 0 2116 15376 0z"/>
 </g>
</svg>
