<?xml version="1.0" encoding="UTF-8"?><!DOCTYPE svg PUBLIC "-//W3C//DTD SVG 1.1//EN" "http://www.w3.org/Graphics/SVG/1.1/DTD/svg11.dtd"><!-- Creator: niges.ru --><svg xmlns="http://www.w3.org/2000/svg" xml:space="preserve" width="210px" height="210px" version="1.1" style="shape-rendering:geometricPrecision; text-rendering:geometricPrecision; image-rendering:optimizeQuality; fill-rule:evenodd; clip-rule:evenodd" viewBox="0 0 210 210" xmlns:xlink="http://www.w3.org/1999/xlink">
 <defs>
  <style type="text/css">
   <![CDATA[
    .fil9 {fill:#061C58;fill-rule:nonzero}
    .fil4 {fill:#103DAF;fill-rule:nonzero}
    .fil3 {fill:#1945AD;fill-rule:nonzero}
    .fil12 {fill:#C04C50;fill-rule:nonzero}
    .fil8 {fill:#FF3100;fill-rule:nonzero}
    .fil17 {fill:url(#id0);fill-rule:nonzero}
    .fil14 {fill:url(#id1);fill-rule:nonzero}
    .fil6 {fill:url(#id2);fill-rule:nonzero}
    .fil20 {fill:url(#id3);fill-rule:nonzero}
    .fil15 {fill:url(#id4);fill-rule:nonzero}
    .fil2 {fill:url(#id5);fill-rule:nonzero}
    .fil1 {fill:url(#id6);fill-rule:nonzero}
    .fil0 {fill:url(#id7);fill-rule:nonzero}
    .fil18 {fill:url(#id8);fill-rule:nonzero}
    .fil22 {fill:url(#id9);fill-rule:nonzero}
    .fil16 {fill:url(#id10);fill-rule:nonzero}
    .fil21 {fill:url(#id11);fill-rule:nonzero}
    .fil10 {fill:url(#id12);fill-rule:nonzero}
    .fil13 {fill:url(#id13);fill-rule:nonzero}
    .fil5 {fill:url(#id14);fill-rule:nonzero}
    .fil7 {fill:url(#id15);fill-rule:nonzero}
    .fil19 {fill:url(#id16);fill-rule:nonzero}
    .fil11 {fill:url(#id17);fill-rule:nonzero}
   ]]>
  </style>
  <linearGradient id="id0" gradientUnits="userSpaceOnUse" x1="118.236" y1="30.3504" x2="118.236" y2="59.6901">
   <stop offset="0" style="stop-opacity:1; stop-color:#FF9400"/>
   <stop offset="0.0313725" style="stop-opacity:1; stop-color:#FF9400"/>
   <stop offset="0.921569" style="stop-opacity:1; stop-color:#FF3100"/>
   <stop offset="1" style="stop-opacity:1; stop-color:#FF3100"/>
  </linearGradient>
  <linearGradient id="id1" gradientUnits="userSpaceOnUse" x1="82.4627" y1="119.617" x2="81.525" y2="97.0487">
   <stop offset="0" style="stop-opacity:1; stop-color:#8AFFFF"/>
   <stop offset="0.411765" style="stop-opacity:1; stop-color:#C4FFFF"/>
   <stop offset="1" style="stop-opacity:1; stop-color:white"/>
  </linearGradient>
  <linearGradient id="id2" gradientUnits="userSpaceOnUse" x1="43.7243" y1="120.185" x2="145.016" y2="117.872">
   <stop offset="0" style="stop-opacity:1; stop-color:#0E196E"/>
   <stop offset="0" style="stop-opacity:1; stop-color:#0E196E"/>
   <stop offset="1" style="stop-opacity:1; stop-color:#140020"/>
  </linearGradient>
  <linearGradient id="id3" gradientUnits="userSpaceOnUse" xlink:href="#id0" x1="71.4197" y1="13.1421" x2="71.4197" y2="38.9288">
  </linearGradient>
  <linearGradient id="id4" gradientUnits="userSpaceOnUse" x1="73.2718" y1="100.73" x2="89.2094" y2="115.956">
   <stop offset="0" style="stop-opacity:1; stop-color:#ECF6F0"/>
   <stop offset="0.458824" style="stop-opacity:0; stop-color:#99FAF7"/>
   <stop offset="1" style="stop-opacity:0; stop-color:#45FFFF"/>
  </linearGradient>
  <linearGradient id="id5" gradientUnits="userSpaceOnUse" xlink:href="#id2" x1="93.1079" y1="47.5303" x2="96.8257" y2="210.351">
  </linearGradient>
  <linearGradient id="id6" gradientUnits="userSpaceOnUse" x1="61.9488" y1="59.375" x2="177.045" y2="59.375">
   <stop offset="0" style="stop-opacity:0; stop-color:#120836"/>
   <stop offset="0.631373" style="stop-opacity:1; stop-color:#120836"/>
   <stop offset="1" style="stop-opacity:1; stop-color:#120836"/>
  </linearGradient>
  <linearGradient id="id7" gradientUnits="userSpaceOnUse" x1="119.497" y1="0.6092" x2="119.497" y2="162.441">
   <stop offset="0" style="stop-opacity:0; stop-color:#BCFFFF"/>
   <stop offset="0.25098" style="stop-opacity:1; stop-color:#81FFFF"/>
   <stop offset="1" style="stop-opacity:1; stop-color:#45FFFF"/>
  </linearGradient>
  <linearGradient id="id8" gradientUnits="userSpaceOnUse" xlink:href="#id0" x1="115.891" y1="32.576" x2="115.891" y2="59.0226">
  </linearGradient>
  <linearGradient id="id9" gradientUnits="userSpaceOnUse" x1="60.483" y1="18.6092" x2="76.7052" y2="34.8316">
   <stop offset="0" style="stop-opacity:1; stop-color:white"/>
   <stop offset="0.478431" style="stop-opacity:0; stop-color:#FFCA80"/>
   <stop offset="1" style="stop-opacity:0; stop-color:#FF9400"/>
  </linearGradient>
  <linearGradient id="id10" gradientUnits="userSpaceOnUse" x1="89.5521" y1="47.1963" x2="89.9769" y2="65.788">
   <stop offset="0" style="stop-opacity:1; stop-color:#B84E5A"/>
   <stop offset="0.25098" style="stop-opacity:1; stop-color:#DB402D"/>
   <stop offset="1" style="stop-opacity:1; stop-color:#FF3100"/>
  </linearGradient>
  <linearGradient id="id11" gradientUnits="userSpaceOnUse" xlink:href="#id0" x1="69.3585" y1="15.0985" x2="69.3585" y2="38.3423">
  </linearGradient>
  <linearGradient id="id12" gradientUnits="userSpaceOnUse" xlink:href="#id2" x1="89.2957" y1="47.8049" x2="91.116" y2="127.528">
  </linearGradient>
  <linearGradient id="id13" gradientUnits="userSpaceOnUse" x1="83.888" y1="97.001" x2="84.0672" y2="117.976">
   <stop offset="0" style="stop-opacity:1; stop-color:#45FFFF"/>
   <stop offset="0.121569" style="stop-opacity:1; stop-color:#B6FFFF"/>
   <stop offset="0.490196" style="stop-opacity:1; stop-color:#B6FFFF"/>
   <stop offset="0.560784" style="stop-opacity:1; stop-color:#B6FFFF"/>
   <stop offset="1" style="stop-opacity:0; stop-color:#BCFFFF"/>
  </linearGradient>
  <linearGradient id="id14" gradientUnits="userSpaceOnUse" x1="15.8372" y1="192.273" x2="155.83" y2="52.2801">
   <stop offset="0" style="stop-opacity:1; stop-color:#4BC7E4"/>
   <stop offset="0.509804" style="stop-opacity:1; stop-color:#0E196E"/>
   <stop offset="0.901961" style="stop-opacity:0; stop-color:#0E196E"/>
   <stop offset="1" style="stop-opacity:1; stop-color:#0E196E"/>
  </linearGradient>
  <linearGradient id="id15" gradientUnits="userSpaceOnUse" x1="85.8333" y1="31" x2="85.8333" y2="213.557">
   <stop offset="0" style="stop-opacity:0; stop-color:#0E196E"/>
   <stop offset="0.0901961" style="stop-opacity:0; stop-color:#0E196E"/>
   <stop offset="0.768627" style="stop-opacity:0; stop-color:#140020"/>
   <stop offset="1" style="stop-opacity:1; stop-color:#140020"/>
  </linearGradient>
  <linearGradient id="id16" gradientUnits="userSpaceOnUse" xlink:href="#id9" x1="105.792" y1="36.5705" x2="124.25" y2="55.0279">
  </linearGradient>
  <linearGradient id="id17" gradientUnits="userSpaceOnUse" xlink:href="#id10" x1="83.8359" y1="51.3458" x2="85.5781" y2="127.641">
  </linearGradient>
 </defs>
 <g id="_x0020_1">
  <g id="_977761056">
   <path class="fil0" d="M78 2l94 54c3,2 5,6 5,9l0 87c0,8 -9,13 -16,9l-94 -54c-3,-2 -5,-6 -5,-9l0 -87c0,-8 9,-13 16,-9z"><animate attributeName="d" dur="5000ms" repeatCount="indefinite" values="M78 2l94 54c3,2 5,6 5,9l0 87c0,8 -9,13 -16,9l-94 -54c-3,-2 -5,-6 -5,-9l0 -87c0,-8 9,-13 16,-9z;M78 10l94 54c3,2 5,5 5,9l0 87c0,8 -9,13 -16,9l-94 -54c-3,-2 -5,-6 -5,-10l0 -86c0,-8 9,-13 16,-9z;M78 2l94 54c3,2 5,6 5,9l0 87c0,8 -9,13 -16,9l-94 -54c-3,-2 -5,-6 -5,-9l0 -87c0,-8 9,-13 16,-9z;"/>   </path> 
   <path class="fil1" d="M62 15c38,22 77,44 115,66l0 23 -115 -67c0,-10 0,-15 0,-22z"><animate attributeName="d" dur="5000ms" repeatCount="indefinite" values="M62 15c38,22 77,44 115,66l0 23 -115 -67c0,-10 0,-15 0,-22z;M62 23c38,22 77,44 115,66l0 22 -115 -66c0,-10 0,-15 0,-22z;M62 15c38,22 77,44 115,66l0 23 -115 -67c0,-10 0,-15 0,-22z;"/>   </path>
   <path class="fil17" d="M128 51c0,-8 -4,-16 -10,-20 -2,-1 -4,-1 -6,0l0 0 -2 1 0 0c-1,2 -2,4 -2,7 0,7 4,16 10,19 1,1 2,1 3,1l0 1 2 -1 0 0c3,-1 5,-4 5,-8z"><animate attributeName="d" dur="5000ms" repeatCount="indefinite" values="M128 51c0,-8 -4,-16 -10,-20 -2,-1 -4,-1 -6,0l0 0 -2 1 0 0c-1,2 -2,4 -2,7 0,7 4,16 10,19 1,1 2,1 3,1l0 1 2 -1 0 0c3,-1 5,-4 5,-8z;M128 51c0,-8 -4,-16 -10,-20 -2,-1 -4,-1 -6,0l0 0 -2 1 0 0c-1,2 -2,4 -2,7 0,7 4,16 10,19 1,1 2,1 3,1l0 1 2 -1 0 0c3,-1 5,-4 5,-8z;M128 51c0,-8 -4,-16 -10,-20 -2,-1 -4,-1 -6,0l0 0 -2 1 0 0c-1,2 -2,4 -2,7 0,7 4,16 10,19 1,1 2,1 3,1l0 1 2 -1 0 0c3,-1 5,-4 5,-8z;M128 47c0,-7 -4,-16 -10,-19 -2,-2 -4,-2 -6,-1l0 0 -2 2 0 0c-1,1 -2,3 -2,6 0,8 4,16 10,19 1,1 2,1 3,1l0 1 2 -1 0 0c3,0 5,-3 5,-8z;M127 96c0,-7 -5,-16 -10,-19 -3,-1 -5,-1 -7,0l0 0 -2 1 1 0c-2,1 -3,4 -3,7 0,7 5,15 10,19 1,0 2,1 4,1l-1 0 3 0 0 0c3,-1 5,-4 5,-9z;M127 96c0,-7 -5,-16 -10,-19 -3,-1 -5,-1 -7,0l0 0 -2 1 1 0c-2,1 -3,4 -3,7 0,7 5,15 10,19 1,0 2,1 4,1l-1 0 3 0 0 0c3,-1 5,-4 5,-9z;M127 96c0,-7 -5,-16 -10,-19 -3,-1 -5,-1 -7,0l0 0 -2 1 1 0c-2,1 -3,4 -3,7 0,7 5,15 10,19 1,0 2,1 4,1l-1 0 3 0 0 0c3,-1 5,-4 5,-9z;M127 96c0,-7 -5,-16 -10,-19 -3,-1 -5,-1 -7,0l0 0 -2 1 1 0c-2,1 -3,4 -3,7 0,7 5,15 10,19 1,0 2,1 4,1l-1 0 3 0 0 0c3,-1 5,-4 5,-9z;M127 96c0,-7 -5,-16 -10,-19 -3,-1 -5,-1 -7,0l0 0 -2 1 1 0c-2,1 -3,4 -3,7 0,7 5,15 10,19 1,0 2,1 4,1l-1 0 3 0 0 0c3,-1 5,-4 5,-9z;M128 47c0,-7 -4,-16 -10,-19 -2,-2 -4,-2 -6,-1l0 0 -2 2 0 0c-1,1 -2,3 -2,6 0,8 4,16 10,19 1,1 2,1 3,1l0 1 2 -1 0 0c3,0 5,-3 5,-8z;M128 51c0,-8 -4,-16 -10,-20 -2,-1 -4,-1 -6,0l0 0 -2 1 0 0c-1,2 -2,4 -2,7 0,7 4,16 10,19 1,1 2,1 3,1l0 1 2 -1 0 0c3,-1 5,-4 5,-8z;M128 51c0,-8 -4,-16 -10,-20 -2,-1 -4,-1 -6,0l0 0 -2 1 0 0c-1,2 -2,4 -2,7 0,7 4,16 10,19 1,1 2,1 3,1l0 1 2 -1 0 0c3,-1 5,-4 5,-8z;"/>   </path>
   <path class="fil18" d="M126 51c0,-7 -4,-15 -10,-18 -5,-3 -10,0 -10,7 0,7 4,15 10,19 5,3 10,-1 10,-8z"> <animate attributeName="d" dur="5000ms" repeatCount="indefinite" values="M126 51c0,-7 -4,-15 -10,-18 -5,-3 -10,0 -10,7 0,7 4,15 10,19 5,3 10,-1 10,-8z;M126 51c0,-7 -4,-15 -10,-18 -5,-3 -10,0 -10,7 0,7 4,15 10,19 5,3 10,-1 10,-8z;M126 51c0,-7 -4,-15 -10,-18 -5,-3 -10,0 -10,7 0,7 4,15 10,19 5,3 10,-1 10,-8z;M126 48c0,-7 -4,-16 -10,-19 -5,-3 -10,0 -10,7 0,8 4,16 10,19 5,3 10,0 10,-7z;M124 97c0,-7 -4,-15 -10,-18 -5,-4 -10,0 -10,7 0,7 5,15 10,18 5,3 10,0 10,-7z;M124 97c0,-7 -4,-15 -10,-18 -5,-4 -10,0 -10,7 0,7 5,15 10,18 5,3 10,0 10,-7z;M124 97c0,-7 -4,-15 -10,-18 -5,-4 -10,0 -10,7 0,7 5,15 10,18 5,3 10,0 10,-7z;M124 97c0,-7 -4,-15 -10,-18 -5,-4 -10,0 -10,7 0,7 5,15 10,18 5,3 10,0 10,-7z;M124 97c0,-7 -4,-15 -10,-18 -5,-4 -10,0 -10,7 0,7 5,15 10,18 5,3 10,0 10,-7z;M126 48c0,-7 -4,-16 -10,-19 -5,-3 -10,0 -10,7 0,8 4,16 10,19 5,3 10,0 10,-7z;M126 51c0,-7 -4,-15 -10,-18 -5,-3 -10,0 -10,7 0,7 4,15 10,19 5,3 10,-1 10,-8z;M126 51c0,-7 -4,-15 -10,-18 -5,-3 -10,0 -10,7 0,7 4,15 10,19 5,3 10,-1 10,-8z;"/>   </path>
   <path class="fil19" d="M123 50c0,-5 -4,-12 -8,-14 -4,-3 -8,0 -8,5 0,6 4,12 8,15 4,2 8,0 8,-6z"><animate attributeName="d" dur="5000ms" repeatCount="indefinite" values="M123 50c0,-5 -4,-12 -8,-14 -4,-3 -8,0 -8,5 0,6 4,12 8,15 4,2 8,0 8,-6z;M123 50c0,-5 -4,-12 -8,-14 -4,-3 -8,0 -8,5 0,6 4,12 8,15 4,2 8,0 8,-6z;M123 50c0,-5 -4,-12 -8,-14 -4,-3 -8,0 -8,5 0,6 4,12 8,15 4,2 8,0 8,-6z;M123 47c0,-6 -4,-13 -8,-15 -4,-3 -8,0 -8,6 0,5 4,12 8,14 4,3 8,0 8,-5z;M121 96c0,-6 -3,-12 -8,-15 -4,-2 -7,0 -7,6 -1,6 3,12 7,15 4,2 8,-1 8,-6z;M121 96c0,-6 -3,-12 -8,-15 -4,-2 -7,0 -7,6 -1,6 3,12 7,15 4,2 8,-1 8,-6z;M121 96c0,-6 -3,-12 -8,-15 -4,-2 -7,0 -7,6 -1,6 3,12 7,15 4,2 8,-1 8,-6z;M121 96c0,-6 -3,-12 -8,-15 -4,-2 -7,0 -7,6 -1,6 3,12 7,15 4,2 8,-1 8,-6z;M121 96c0,-6 -3,-12 -8,-15 -4,-2 -7,0 -7,6 -1,6 3,12 7,15 4,2 8,-1 8,-6z;M123 47c0,-6 -4,-13 -8,-15 -4,-3 -8,0 -8,6 0,5 4,12 8,14 4,3 8,0 8,-5z;M123 50c0,-5 -4,-12 -8,-14 -4,-3 -8,0 -8,5 0,6 4,12 8,15 4,2 8,0 8,-6z;M123 50c0,-5 -4,-12 -8,-14 -4,-3 -8,0 -8,5 0,6 4,12 8,15 4,2 8,0 8,-6z;"/>   </path>
   <path class="fil20" d="M80 31c0,-7 -4,-14 -8,-17 -3,-1 -5,-1 -6,0l0 0 -2 1 0 0c-1,1 -1,3 -2,6 0,6 4,14 9,16 1,1 2,1 3,1l0 1 2 -1 0 0c2,0 4,-3 4,-7z"><animate attributeName="d" dur="5000ms" repeatCount="indefinite" values="M80 31c0,-7 -4,-14 -8,-17 -3,-1 -5,-1 -6,0l0 0 -2 1 0 0c-1,1 -1,3 -2,6 0,6 4,14 9,16 1,1 2,1 3,1l0 1 2 -1 0 0c2,0 4,-3 4,-7z;M80 31c0,-7 -4,-14 -8,-17 -3,-1 -5,-1 -6,0l0 0 -2 1 0 0c-1,1 -1,3 -2,6 0,6 4,14 9,16 1,1 2,1 3,1l0 1 2 -1 0 0c2,0 4,-3 4,-7z;M80 25c0,-6 -4,-14 -8,-16 -3,-2 -5,-2 -6,-1l0 0 -2 1 0 0c-1,2 -1,4 -2,6 0,7 4,14 9,17 1,0 2,1 3,1l0 0 2 0 0 0c2,-1 4,-3 4,-8z;M78 72c0,-7 -4,-14 -9,-17 -2,-1 -4,-1 -5,0l0 -1 -2 2 0 0c-1,1 -2,3 -2,6 0,6 4,13 9,16 1,1 2,1 3,1l0 1 2 -1 0 0c2,0 4,-3 4,-7z;M78 72c0,-7 -4,-14 -9,-17 -2,-1 -4,-1 -5,0l0 -1 -2 2 0 0c-1,1 -2,3 -2,6 0,6 4,13 9,16 1,1 2,1 3,1l0 1 2 -1 0 0c2,0 4,-3 4,-7z;						M78 72c0,-7 -4,-14 -9,-17 -2,-1 -4,-1 -5,0l0 -1 -2 2 0 0c-1,1 -2,3 -2,6 0,6 4,13 9,16 1,1 2,1 3,1l0 1 2 -1 0 0c2,0 4,-3 4,-7z;						M78 72c0,-7 -4,-14 -9,-17 -2,-1 -4,-1 -5,0l0 -1 -2 2 0 0c-1,1 -2,3 -2,6 0,6 4,13 9,16 1,1 2,1 3,1l0 1 2 -1 0 0c2,0 4,-3 4,-7z;	M78 72c0,-7 -4,-14 -9,-17 -2,-1 -4,-1 -5,0l0 -1 -2 2 0 0c-1,1 -2,3 -2,6 0,6 4,13 9,16 1,1 2,1 3,1l0 1 2 -1 0 0c2,0 4,-3 4,-7z;M80 25c0,-6 -4,-14 -8,-16 -3,-2 -5,-2 -6,-1l0 0 -2 1 0 0c-1,2 -1,4 -2,6 0,7 4,14 9,17 1,0 2,1 3,1l0 0 2 0 0 0c2,-1 4,-3 4,-8z;M80 31c0,-7 -4,-14 -8,-17 -3,-1 -5,-1 -6,0l0 0 -2 1 0 0c-1,1 -1,3 -2,6 0,6 4,14 9,16 1,1 2,1 3,1l0 1 2 -1 0 0c2,0 4,-3 4,-7z;M80 31c0,-7 -4,-14 -8,-17 -3,-1 -5,-1 -6,0l0 0 -2 1 0 0c-1,1 -1,3 -2,6 0,6 4,14 9,16 1,1 2,1 3,1l0 1 2 -1 0 0c2,0 4,-3 4,-7z;M80 31c0,-7 -4,-14 -8,-17 -3,-1 -5,-1 -6,0l0 0 -2 1 0 0c-1,1 -1,3 -2,6 0,6 4,14 9,16 1,1 2,1 3,1l0 1 2 -1 0 0c2,0 4,-3 4,-7z;"/>   </path>
   <path class="fil21" d="M78 32c0,-7 -4,-14 -9,-17 -4,-2 -8,0 -8,7 0,6 3,13 8,16 5,3 9,0 9,-6z"><animate attributeName="d" dur="5000ms" repeatCount="indefinite" values="M78 32c0,-7 -4,-14 -9,-17 -4,-2 -8,0 -8,7 0,6 3,13 8,16 5,3 9,0 9,-6z;M78 32c0,-7 -4,-14 -9,-17 -4,-2 -8,0 -8,7 0,6 3,13 8,16 5,3 9,0 9,-6z;M78 26c0,-6 -4,-13 -9,-16 -4,-3 -8,0 -8,6 0,6 3,14 8,17 5,2 9,-1 9,-7z;M76 73c0,-7 -4,-14 -9,-17 -4,-3 -8,0 -8,7 -1,6 3,13 8,16 5,3 9,0 9,-6z;M76 73c0,-7 -4,-14 -9,-17 -4,-3 -8,0 -8,7 -1,6 3,13 8,16 5,3 9,0 9,-6z;M76 73c0,-7 -4,-14 -9,-17 -4,-3 -8,0 -8,7 -1,6 3,13 8,16 5,3 9,0 9,-6z;M76 73c0,-7 -4,-14 -9,-17 -4,-3 -8,0 -8,7 -1,6 3,13 8,16 5,3 9,0 9,-6z;M76 73c0,-7 -4,-14 -9,-17 -4,-3 -8,0 -8,7 -1,6 3,13 8,16 5,3 9,0 9,-6z;M78 26c0,-6 -4,-13 -9,-16 -4,-3 -8,0 -8,6 0,6 3,14 8,17 5,2 9,-1 9,-7z;M78 32c0,-7 -4,-14 -9,-17 -4,-2 -8,0 -8,7 0,6 3,13 8,16 5,3 9,0 9,-6z;M78 32c0,-7 -4,-14 -9,-17 -4,-2 -8,0 -8,7 0,6 3,13 8,16 5,3 9,0 9,-6z;M78 32c0,-7 -4,-14 -9,-17 -4,-2 -8,0 -8,7 0,6 3,13 8,16 5,3 9,0 9,-6z;"/>   </path>
   <path class="fil22" d="M75 31c0,-5 -3,-11 -6,-13 -4,-3 -7,0 -7,5 0,5 3,10 6,13 4,2 7,-1 7,-5z"><animate attributeName="d" dur="5000ms" repeatCount="indefinite" values="M75 31c0,-5 -3,-11 -6,-13 -4,-3 -7,0 -7,5 0,5 3,10 6,13 4,2 7,-1 7,-5z;M75 31c0,-5 -3,-11 -6,-13 -4,-3 -7,0 -7,5 0,5 3,10 6,13 4,2 7,-1 7,-5z;M75 25c0,-5 -3,-11 -6,-13 -4,-2 -7,0 -7,5 0,5 3,11 6,13 4,2 7,0 7,-5z;M73 71c0,-4 -3,-10 -6,-12 -4,-3 -7,0 -7,5 0,5 3,10 6,12 4,3 7,0 7,-5z;M73 71c0,-4 -3,-10 -6,-12 -4,-3 -7,0 -7,5 0,5 3,10 6,12 4,3 7,0 7,-5z;M73 71c0,-4 -3,-10 -6,-12 -4,-3 -7,0 -7,5 0,5 3,10 6,12 4,3 7,0 7,-5z;M73 71c0,-4 -3,-10 -6,-12 -4,-3 -7,0 -7,5 0,5 3,10 6,12 4,3 7,0 7,-5z;M73 71c0,-4 -3,-10 -6,-12 -4,-3 -7,0 -7,5 0,5 3,10 6,12 4,3 7,0 7,-5z;M75 25c0,-5 -3,-11 -6,-13 -4,-2 -7,0 -7,5 0,5 3,11 6,13 4,2 7,0 7,-5z;M75 31c0,-5 -3,-11 -6,-13 -4,-3 -7,0 -7,5 0,5 3,10 6,13 4,2 7,-1 7,-5z;M75 31c0,-5 -3,-11 -6,-13 -4,-3 -7,0 -7,5 0,5 3,10 6,13 4,2 7,-1 7,-5z;M75 31c0,-5 -3,-11 -6,-13 -4,-3 -7,0 -7,5 0,5 3,10 6,13 4,2 7,-1 7,-5z;"/>   </path>   
   <path class="fil2" d="M147 92c2,36 1,71 -2,107 0,1 0,2 0,3 0,0 0,0 0,0 0,0 0,0 0,0 -3,7 -13,8 -13,8 1,-3 2,-4 3,-6 -28,-15 -55,-30 -84,-44 -4,-2 -9,-9 -9,-15 0,-32 0,-64 2,-97 30,14 61,26 92,39 3,-2 5,-3 8,-4 2,2 3,6 3,9z"/>
   <path class="fil3" d="M144 83c-1,0 -1,0 -2,0 -2,2 -3,2 -5,3 0,0 -1,1 -1,1 -31,-13 -62,-25 -92,-39 0,-4 0,-6 0,-10 0,-1 0,-1 0,-2 -2,0 -3,0 -4,-1 0,0 0,-1 3,-2 1,-1 3,-1 5,-2 0,0 0,0 1,0 0,0 1,0 1,0 0,0 0,0 0,0 0,0 0,0 0,0 1,0 2,1 3,1 28,16 56,31 85,45 2,1 5,3 6,6z"/>
   <path class="fil4" d="M128 209c-28,-16 -57,-31 -85,-45 -5,-3 -9,-9 -10,-15 -1,-36 0,-71 2,-107 1,-6 5,-9 9,-6 28,16 57,30 85,45 5,2 9,9 9,15 1,35 1,71 -1,107 -1,5 -5,8 -9,6z"/>
   <path class="fil5" d="M128 209c-28,-16 -57,-31 -85,-45 -5,-3 -9,-9 -10,-15 -1,-36 0,-71 2,-107 1,-6 5,-9 9,-6 28,16 57,30 85,45 5,2 9,9 9,15 1,35 1,71 -1,107 -1,5 -5,8 -9,6z"/>
   <path class="fil6" d="M146 92c1,36 0,71 -2,107 0,1 -1,1 -1,2 0,0 0,0 0,0 0,0 0,0 0,1 -1,2 -3,4 -5,5 0,-2 0,-3 0,-4 3,-36 3,-72 2,-107 0,-3 -1,-7 -3,-10 -2,-3 -4,-5 -7,-7 -29,-15 -59,-30 -87,-46 1,-1 3,-1 5,-1 29,16 59,31 89,47 2,1 4,2 5,4 1,0 1,1 1,1 1,2 2,5 3,8z"/>
   <path class="fil7" d="M124 200c-25,-14 -51,-27 -77,-40 -5,-2 -9,-8 -9,-14 -1,-32 0,-64 2,-96 0,-5 3,-8 7,-6 26,14 52,28 78,41 5,2 8,8 8,13 1,33 1,65 -1,97 0,5 -4,8 -8,5z"/>
   <path class="fil8" d="M124 201c-1,-1 -2,-1 -4,-2 0,0 0,-1 0,-1 0,-1 0,-1 0,-1 2,1 3,2 4,3 1,0 1,0 1,1 0,0 0,0 0,0 0,0 -1,0 -1,0zm-8 -5c-2,-1 -3,-1 -5,-2 0,0 0,-1 0,-1 0,-1 0,-1 0,-1 2,1 3,2 5,3 0,0 0,0 0,1 0,0 0,0 0,0zm-9 -5c-2,0 -3,-1 -5,-2 0,0 0,-1 0,-1 0,0 0,-1 0,0 2,1 3,1 5,2 0,0 0,1 0,1 0,0 0,1 0,0zm-9 -4c-2,-1 -3,-2 -5,-3 0,0 0,0 -1,-1 0,0 1,0 1,0 2,1 3,1 5,2 0,0 0,1 0,1 0,1 0,1 0,1zm-10 -5c-1,-1 -2,-2 -4,-3 0,0 -1,0 -1,-1 0,0 1,0 1,0 2,1 3,1 4,2 1,1 1,1 1,1 0,1 0,1 -1,1zm-9 -5c-2,-1 -3,-1 -4,-2 -1,-1 -1,-1 -1,-1 0,-1 0,-1 1,-1 1,1 2,2 4,3 1,0 1,0 1,1 0,0 0,0 -1,0zm-9 -5c-2,-1 -3,-1 -5,-2 0,0 0,-1 0,-1 0,-1 0,-1 0,-1 2,1 3,2 5,3 0,0 0,0 0,1 0,0 0,0 0,0zm-10 -5c-1,-1 -2,-1 -4,-2 -1,0 -1,-1 -1,-1 0,0 0,-1 1,0 2,1 2,1 4,2 1,0 1,1 1,1 0,0 0,1 -1,0zm-9 -4c-2,-1 -3,-2 -4,-3 -1,0 -1,0 -1,0 0,0 -1,0 -1,-1 1,0 1,0 1,0 0,0 0,0 1,0 1,1 2,1 4,2 0,0 0,1 0,1 0,1 0,1 0,1zm78 39c-1,0 -1,-1 -1,-1 0,0 0,-1 0,-1 2,0 2,-1 3,-3 0,0 0,0 1,0 0,1 0,1 0,1 -1,2 -2,3 -3,4 0,0 0,0 0,0zm-87 -46c0,0 -1,0 -1,0 -1,-2 -2,-5 -3,-7 0,0 0,0 1,0 0,0 0,0 0,0 1,2 2,4 3,6 0,0 0,1 0,1 0,0 0,0 0,0zm90 37c0,0 0,0 0,-1 0,-2 0,-3 0,-5 0,-1 0,-1 1,-1 0,0 0,1 0,1 0,2 0,4 0,6 0,0 0,0 -1,0zm-94 -49c0,0 0,0 0,-1 0,-2 0,-3 -1,-6 0,0 1,0 1,0 0,0 1,1 1,1 0,2 0,3 0,6 0,0 0,0 -1,0zm95 38c-1,0 -1,-1 -1,-1 0,-2 0,-4 0,-6 0,0 1,0 1,0 0,0 1,0 1,1 -1,2 -1,3 -1,5 0,1 0,1 0,1zm-95 -49c0,0 -1,-1 -1,-1 0,-3 0,-4 0,-6 0,0 1,-1 1,0 0,0 0,0 0,1 1,2 1,3 1,5 0,1 -1,1 -1,1zm95 37c0,0 0,0 0,-1 0,-2 0,-3 0,-5 0,-1 0,-1 0,-1 1,0 1,1 1,1 0,3 0,4 0,6 0,0 -1,1 -1,0zm-95 -49c-1,0 -1,0 -1,-1 0,-2 0,-3 0,-5 0,-1 0,-1 1,-1 0,0 0,1 0,1 0,2 0,4 0,6 0,0 0,1 0,0zm95 38c0,0 0,-1 0,-1 0,-2 0,-3 0,-6 0,0 0,0 1,0 0,0 0,0 0,1 0,2 0,3 0,6 0,0 0,0 -1,0zm-95 -49c-1,0 -1,-1 -1,-1 0,-2 0,-4 0,-6 0,0 1,0 1,0 0,0 0,0 0,1 0,2 0,3 0,5 0,1 0,1 0,1zm96 38c-1,-1 -1,-1 -1,-1 0,-3 0,-4 0,-6 0,-1 0,-1 1,-1 0,1 0,1 0,1 0,3 0,4 0,6 0,1 0,1 0,1zm-96 -50c0,0 -1,0 -1,-1 0,-2 0,-3 0,-5 0,-1 1,-1 1,-1 0,0 1,1 1,1 0,3 0,4 0,6 0,0 -1,1 -1,0zm96 38c-1,0 -1,-1 -1,-1 0,-2 0,-3 0,-6 0,0 0,0 1,0 0,0 0,1 0,1 0,2 0,3 0,6 0,0 0,0 0,0zm-96 -49c0,0 0,-1 0,-1 0,-2 0,-3 0,-6 0,0 0,0 0,0 1,0 1,0 1,1 0,2 0,3 0,6 0,0 -1,0 -1,0zm96 38c-1,0 -1,-1 -1,-1 0,-3 0,-4 0,-6 0,0 0,-1 1,0 0,0 0,0 0,1 0,2 0,3 0,5 0,1 0,1 0,1zm-96 -49c0,-1 0,-1 0,-1 0,-3 0,-4 0,-6 0,-1 0,-1 1,-1 0,1 0,1 0,1 0,3 0,4 0,6 0,1 0,1 -1,1zm96 37c-1,0 -1,0 -1,-1 0,-2 0,-3 0,-5 0,-1 0,-1 1,-1 0,0 0,1 0,1 0,2 0,4 0,6 0,0 0,0 0,0zm-95 -49c0,0 -1,0 -1,-1 1,-2 1,-3 1,-6 0,0 0,0 0,0 1,0 1,1 1,1 0,2 0,3 0,6 0,0 -1,0 -1,0zm94 38c0,0 0,-1 0,-1 0,-1 0,-2 0,-3 0,-1 0,-2 -1,-3 0,0 0,-1 1,-1 0,0 0,1 1,1 0,1 0,3 0,4 0,1 0,1 0,2 0,1 0,1 -1,1zm-93 -49c-1,0 -1,-1 -1,-1 0,-1 0,-2 0,-3 0,-1 0,-2 1,-3 0,0 0,0 1,0 0,0 0,1 0,1 0,1 -1,2 -1,3 0,1 0,1 0,2 0,1 0,1 0,1zm90 37c0,0 0,0 0,0 -1,-2 -3,-3 -4,-4 -1,0 -1,-1 -1,-1 0,-1 0,-1 1,-1 1,1 3,3 4,5 1,0 1,1 1,1 0,0 -1,0 -1,0zm-87 -46c0,0 0,0 0,0 0,-1 0,-1 0,-1 1,-1 3,0 4,1 0,0 0,0 0,0 1,0 1,0 1,1 0,0 0,0 -1,0 -1,-1 -2,-1 -3,-1 -1,0 -1,0 -1,0zm78 39c-2,-1 -3,-1 -5,-2 0,0 0,-1 0,-1 0,0 0,-1 0,0 2,1 3,1 5,2 0,0 0,1 1,1 0,0 -1,1 -1,0zm-10 -4c-1,-1 -2,-2 -4,-3 -1,0 -1,0 -1,-1 0,0 0,0 1,0 2,1 2,1 4,2 1,0 1,1 1,1 0,1 0,1 -1,1zm-9 -5c-2,-1 -3,-2 -5,-3 0,0 0,0 0,-1 0,0 0,0 0,0 2,1 3,1 5,2 0,1 1,1 1,1 0,1 -1,1 -1,1zm-9 -5c-2,-1 -3,-1 -5,-2 0,-1 -1,-1 -1,-1 0,-1 1,-1 1,-1 2,1 3,2 5,3 0,0 0,0 0,1 0,0 0,0 0,0zm-10 -5c-1,-1 -2,-1 -4,-2 -1,0 -1,-1 -1,-1 0,-1 0,-1 1,-1 2,1 3,2 4,3 1,0 1,0 1,1 0,0 0,0 -1,0zm-9 -5c-2,-1 -3,-1 -4,-2 -1,0 -1,-1 -1,-1 0,0 0,-1 1,0 1,0 2,1 4,2 1,0 1,1 1,1 0,0 0,1 -1,0zm-9 -4c-2,-1 -3,-2 -4,-3 -1,0 -1,0 -1,-1 0,0 0,0 1,0 1,1 2,1 4,2 0,0 1,1 1,1 0,1 -1,1 -1,1zm-9 -5c-2,-1 -2,-2 -4,-3 -1,0 -1,0 -1,-1 0,0 1,0 1,0 2,1 2,1 4,2 1,0 1,1 1,1 0,1 -1,1 -1,1z"/>
   <path class="fil9" d="M94 130c-6,-3 -10,-5 -17,-8 -2,-1 -5,-5 -5,-8 0,-20 0,-39 1,-58 8,4 17,9 25,13 1,19 1,39 1,58 0,3 -2,5 -5,3z"/>
   <path class="fil10" d="M81 48c-1,1 -2,1 -4,3 -1,0 -1,0 -1,0 -1,1 -1,2 -1,3 -1,19 -2,38 -2,56 0,3 2,7 5,8 7,4 10,5 17,9 2,1 5,0 5,-3 -2,-19 0,-38 0,-57 0,0 1,-1 1,-2 0,0 1,-1 1,-1 2,-1 3,-2 5,-3 -8,-4 -17,-9 -26,-13z"/>
   <path class="fil11" d="M99 66c0,0 -1,1 -1,1 -1,19 -2,38 0,57 0,3 -3,4 -5,3 -7,-3 -10,-5 -17,-9 -3,-1 -5,-5 -5,-8 -1,-17 0,-37 2,-56 0,-1 0,-2 1,-3 0,1 -1,1 -1,1 9,5 17,9 26,14z"/>
   <path class="fil12" d="M93 114c0,-6 -4,-13 -9,-15 -5,-3 -9,0 -9,6 0,6 4,12 9,15 5,2 9,-1 9,-6z"/>
   <path class="fil13" d="M93 112c0,-6 -4,-13 -9,-15 -5,-2 -9,0 -9,6 0,6 4,13 9,15 5,2 9,0 9,-6z"/>
   <path class="fil14" d="M90 113c0,5 -3,8 -8,6 -1,-1 -1,-1 -2,-2 -2,-2 -4,-4 -5,-7 -1,-2 -2,-4 -2,-6 0,-6 4,-8 9,-6 1,0 1,1 2,1 1,2 3,3 4,5 0,0 0,0 0,0 1,3 2,6 2,9z"/>
   <path class="fil15" d="M88 104c0,0 -7,5 -8,13 -2,-2 -4,-4 -5,-7 1,-4 4,-9 9,-11 1,2 3,3 4,5 0,0 0,0 0,0z"/>
   <path class="fil16" d="M106 61c-2,1 -3,2 -6,3 0,0 -1,1 -1,2 -9,-5 -17,-9 -26,-14 0,0 1,0 1,-1 0,0 0,0 1,0 2,-2 3,-2 5,-4 9,5 18,9 26,14z"/>
  </g>
 </g>
</svg>
