<svg width="369" height="180" viewBox="0 0 369 180" fill="none" xmlns="http://www.w3.org/2000/svg">
<path d="M191.473 156.054C184.342 155.578 176.119 154.328 169.633 152.449C168.418 152.097 163.388 150.248 162.108 149.66C139.528 139.199 123.798 116.362 123.798 89.8679C123.798 53.5286 153.357 23.9288 189.712 23.9288C225.745 23.9288 255.104 53.0237 255.608 88.9521H279.421C278.916 39.897 238.881 0.140917 189.712 0.140917C140.25 0.140917 99.9919 40.3842 99.9919 89.8679C99.9919 123.982 119.173 153.653 147.258 168.811C152.33 171.493 159.608 174.259 162.079 175.016C170.085 177.399 179.91 178.984 188.656 179.648C191.626 179.871 201.997 179.988 205.02 180H369V156.277H205.296C203.118 156.277 193.604 156.195 191.473 156.054ZM205.296 118.804C203.564 118.804 194.508 118.746 192.835 118.605C190 118.364 185.891 117.941 183.25 117.337C180.268 116.538 177.469 115.482 176.207 114.789C167.361 110.004 161.333 100.646 161.333 89.8679C161.333 74.1874 174.029 61.4716 189.712 61.4716C205.067 61.4716 217.551 73.6884 218.05 88.9521H240.929C240.448 61.0665 217.721 38.5937 189.712 38.5937C161.392 38.5937 138.437 61.5479 138.437 89.8679C138.437 109.84 149.882 127.088 166.551 135.536C169.116 137.039 173.941 138.612 175.314 138.97C180.022 140.209 186.343 141.054 191.473 141.43C193.369 141.588 202.654 141.659 204.615 141.671V141.706H368.994V118.804H205.296ZM85.3183 179.912H61.3474V23.9816H26.3186V2.59536e-05H85.3183V179.912ZM0 35.9636V59.0235H26.3186V179.912H49.3503V35.9636H0Z" fill="url(#paint0_linear)"/>
<defs>
<linearGradient id="paint0_linear" x1="79.7561" y1="162.223" x2="214.274" y2="-31.2191" gradientUnits="userSpaceOnUse">
<stop stop-color="#45FFFF"/>
<stop offset="0.2" stop-color="#46F2F9"/>
<stop offset="0.580392" stop-color="#4ACFE8"/>
<stop offset="1" stop-color="#4FA1D1"/>
</linearGradient>
</defs>
</svg>
