<?xml version="1.0" encoding="UTF-8"?><!DOCTYPE svg PUBLIC "-//W3C//DTD SVG 1.1//EN" "http://www.w3.org/Graphics/SVG/1.1/DTD/svg11.dtd"><!-- Creator: niges.ru --><svg xmlns="http://www.w3.org/2000/svg" xml:space="preserve" width="210px" height="210px" version="1.1" style="shape-rendering:geometricPrecision; text-rendering:geometricPrecision; image-rendering:optimizeQuality; fill-rule:evenodd; clip-rule:evenodd" viewBox="0 0 210 210" xmlns:xlink="http://www.w3.org/1999/xlink">
 <defs>
  <style type="text/css">
   <![CDATA[
    .fil2 {fill:url(#id0);fill-rule:nonzero}
    .fil8 {fill:url(#id1);fill-rule:nonzero}
    .fil7 {fill:url(#id2);fill-rule:nonzero}
    .fil9 {fill:url(#id3);fill-rule:nonzero}
    .fil6 {fill:url(#id4);fill-rule:nonzero}
    .fil1 {fill:url(#id5);fill-rule:nonzero}
    .fil0 {fill:url(#id6);fill-rule:nonzero}
    .fil3 {fill:url(#id7);fill-rule:nonzero}
    .fil4 {fill:url(#id8);fill-rule:nonzero}
    .fil5 {fill:url(#id9);fill-rule:nonzero}
   ]]>
  </style>
  <linearGradient id="id0" gradientUnits="userSpaceOnUse" x1="83.7523" y1="13.2894" x2="83.7523" y2="199.594">
   <stop offset="0" style="stop-opacity:1; stop-color:#0EC0FF"/>
   <stop offset="0.0196078" style="stop-opacity:1; stop-color:#0EC0FF"/>
   <stop offset="0.490196" style="stop-opacity:1; stop-color:#0E196E"/>
   <stop offset="0.780392" style="stop-opacity:1; stop-color:#0E196E"/>
   <stop offset="1" style="stop-opacity:1; stop-color:#0E0933"/>
  </linearGradient>
  <linearGradient id="id1" gradientUnits="userSpaceOnUse" x1="111.505" y1="164.273" x2="176.388" y2="126.814">
						<stop offset="0" style="stop-color:#4FA1D1"/>
						<stop offset="0.6344" style="stop-color:#48E0F0;stop-opacity:0.3656"/>
						<stop offset="1" style="stop-color:#45FFFF;stop-opacity:0"/>
  </linearGradient>
  <linearGradient id="id2" gradientUnits="userSpaceOnUse" xlink:href="#id1" x1="111.505" y1="150.015" x2="176.388" y2="112.555">
						<stop offset="0" style="stop-color:#4FA1D1"/>
						<stop offset="0.6344" style="stop-color:#48E0F0;stop-opacity:0.3656"/>
						<stop offset="1" style="stop-color:#45FFFF;stop-opacity:0"/>
  </linearGradient>
  <linearGradient id="id3" gradientUnits="userSpaceOnUse" xlink:href="#id1" x1="111.505" y1="178.532" x2="176.388" y2="141.072">
  						<stop offset="0" style="stop-color:#4FA1D1"/>
						<stop offset="0.6344" style="stop-color:#48E0F0;stop-opacity:0.3656"/>
						<stop offset="1" style="stop-color:#45FFFF;stop-opacity:0"/>
  </linearGradient>
  <linearGradient id="id4" gradientUnits="userSpaceOnUse" x1="85.0742" y1="175.755" x2="200.434" y2="109.152">
   <stop offset="0" style="stop-opacity:1; stop-color:#5293BA"/>
   <stop offset="0.380392" style="stop-opacity:0.588235; stop-color:#6AADBB"/>
   <stop offset="0.811765" style="stop-opacity:0.168627; stop-color:#83C7BC"/>
   <stop offset="1" style="stop-opacity:0; stop-color:#8DD2BC"/>
  </linearGradient>
  <linearGradient id="id5" gradientUnits="userSpaceOnUse" x1="151.335" y1="103.565" x2="20.0992" y2="103.565">
   <stop offset="0" style="stop-opacity:1; stop-color:darkorange"/>
   <stop offset="0" style="stop-opacity:1; stop-color:darkorange"/>
   <stop offset="0.290196" style="stop-opacity:1; stop-color:#FF3100"/>
   <stop offset="0.639216" style="stop-opacity:1; stop-color:#FF3100"/>
   <stop offset="1" style="stop-opacity:1; stop-color:#B84E5A"/>
  </linearGradient>
  <linearGradient id="id6" gradientUnits="userSpaceOnUse" x1="70.0208" y1="39.9254" x2="185.381" y2="127.128">
   <stop offset="0" style="stop-opacity:1; stop-color:#FF3100"/>
   <stop offset="0.741176" style="stop-opacity:1; stop-color:#DC2C1B"/>
   <stop offset="1" style="stop-opacity:1; stop-color:#B82637"/>
  </linearGradient>
  <linearGradient id="id7" gradientUnits="userSpaceOnUse" x1="37.6835" y1="6.1022" x2="65.3294" y2="207.965">
				<stop offset="0.1375" style="stop-color:#8BFFFF"/>
				<stop offset="0.6388" style="stop-color:#447AA7;stop-opacity:0.4188"/>
				<stop offset="1" style="stop-color:#0F1766;stop-opacity:0"/>
  </linearGradient>
  <linearGradient id="id8" gradientUnits="userSpaceOnUse" x1="37.3997" y1="5.6849" x2="65.1622" y2="208.399">
   <stop offset="0" style="stop-opacity:1; stop-color:#8AFFFF"/>
   <stop offset="0.129412" style="stop-opacity:1; stop-color:#8AFFFF"/>
   <stop offset="0.141176" style="stop-opacity:1; stop-color:#8AFFFF"/>
   <stop offset="1" style="stop-opacity:0; stop-color:#0F1766"/>
  </linearGradient>
  <radialGradient id="id9" gradientUnits="userSpaceOnUse" gradientTransform="matrix(1.34634 -0.0446301 0.0446299 1.34634 -18 -39)" cx="36.365" cy="116.729" r="24.2181" fx="36.365" fy="116.729">
					<stop offset="0.0297" style="stop-color:#0EC1FF"/>
					<stop offset="0.3612" style="stop-color:#0E7DC4;stop-opacity:0.6583"/>
					<stop offset="0.658" style="stop-color:#0E4896;stop-opacity:0.3525"/>
					<stop offset="0.8792" style="stop-color:#0E2679;stop-opacity:0.1245"/>
					<stop offset="1" style="stop-color:#0E1A6E;stop-opacity:0"/>
  </radialGradient>
 </defs>
 <g id="x0020_1">
  <g id="_973087744">
   <path class="fil0" d="M80 26c43,7 68,18 96,43 0,24 0,48 0,72 -29,-25 -59,-39 -97,-43 0,-24 1,-48 1,-72z"><animate attributeName="d" dur="10000ms" repeatCount="indefinite" values="M80 26c43,7 68,18 96,43 0,24 0,48 0,72 -29,-25 -59,-39 -97,-43 0,-24 1,-48 1,-72z; M80 17c43,7 68,18 96,43 0,24 0,49 0,73 -29,-25 -59,-40 -97,-43 0,-25 1,-49 1,-73z; M80 17c43,7 68,18 96,43 0,24 0,49 0,73 -29,-25 -59,-40 -97,-43 0,-25 1,-49 1,-73z; M80 33c43,7 68,18 96,43 0,24 0,48 0,73 -29,-26 -59,-40 -97,-44 0,-24 1,-48 1,-72z; M80 33c43,7 68,18 96,43 0,24 0,48 0,73 -29,-26 -59,-40 -97,-44 0,-24 1,-48 1,-72z;	 M80 17c43,7 68,18 96,43 0,24 0,49 0,73 -29,-25 -59,-40 -97,-43 0,-25 1,-49 1,-73z;	 M80 26c43,7 68,18 96,43 0,24 0,48 0,72 -29,-25 -59,-39 -97,-43 0,-24 1,-48 1,-72z;"/></path>  
   <path class="fil1" d="M151 75c-33,13 -61,-31 -64,-36l-1 0c-3,1 -31,13 -64,-38l-2 3 2 4c-2,28 -5,128 64,197l0 1c0,0 0,0 1,0 0,0 0,0 0,0l0 -1c75,-30 64,-130 64,-130z"/>
   <path class="fil2" d="M148 78c-33,13 -60,-31 -64,-36l0 0c-3,1 -31,13 -64,-38 0,0 -16,124 64,204l0 1c0,-1 0,-1 0,-1 0,1 0,1 0,1l0 -1c76,-30 64,-130 64,-130z"/>
   <path class="fil3" d="M84 208c-80,-80 -64,-204 -64,-204 33,51 61,39 64,38 0,0 -21,91 0,166z"/>
   <path class="fil4" d="M84 208c-80,-80 -64,-204 -64,-204 33,51 61,39 64,38 0,0 -21,91 0,166z"/>
   <path class="fil5" d="M148 78c-33,13 -60,-31 -64,-36l0 0c0,0 -21,91 0,166 0,0 0,0 0,0l0 0c0,0 0,0 0,0 0,0 0,0 0,0l0 0c0,0 0,0 0,0 0,1 0,1 0,1l0 -1c76,-30 64,-130 64,-130z"/>
   <path class="fil6" d="M95 192c43,0 68,-6 96,-26 0,-24 0,-49 0,-73 -29,20 -59,29 -97,26 0,24 1,49 1,73z"><animate attributeName="d" dur="11000ms" repeatCount="indefinite" values="M95 192c43,0 68,-6 96,-26 0,-24 0,-49 0,-73 -29,20 -59,29 -97,26 0,24 1,49 1,73z; M96 174c43,0 68,-6 96,-26 0,-24 0,-48 0,-73 -29,21 -59,29 -97,26 0,25 1,49 1,73z; M95 195c43,0 68,-6 96,-26 0,-24 0,-48 -1,-73 -28,20 -58,29 -96,26 0,25 0,49 1,73z; M96 174c43,0 68,-6 96,-26 0,-24 0,-48 0,-73 -29,21 -59,29 -97,26 0,25 1,49 1,73z; M95 192c43,0 68,-6 96,-26 0,-24 0,-49 0,-73 -29,20 -59,29 -97,26 0,24 1,49 1,73z;"/></path>  
   <path class="fil7" d="M108 143c0,-1 0,-3 0,-4 28,2 51,-5 72,-20 0,2 0,3 0,5 -21,15 -44,21 -72,19z"><animate attributeName="d" dur="11000ms" repeatCount="indefinite" values="M108 143c0,-1 0,-3 0,-4 28,2 51,-5 72,-20 0,2 0,3 0,5 -21,15 -44,21 -72,19z; M109 125c0,-1 0,-3 0,-4 28,2 51,-5 72,-20 0,2 0,3 0,5 -21,15 -44,21 -72,19z; M107 146c0,-1 0,-3 0,-4 29,2 52,-5 73,-20 0,2 0,3 0,5 -21,15 -44,21 -73,19z; M109 125c0,-1 0,-3 0,-4 28,2 51,-5 72,-20 0,2 0,3 0,5 -21,15 -44,21 -72,19z; M108 143c0,-1 0,-3 0,-4 28,2 51,-5 72,-20 0,2 0,3 0,5 -21,15 -44,21 -72,19z;"/></path>  
   <path class="fil8" d="M108 157c0,-1 0,-3 0,-4 28,2 51,-4 72,-20 0,2 0,4 0,5 -21,15 -44,21 -72,19z"><animate attributeName="d" dur="11000ms" repeatCount="indefinite" values="M108 157c0,-1 0,-3 0,-4 28,2 51,-4 72,-20 0,2 0,4 0,5 -21,15 -44,21 -72,19z; M109 140c0,-2 0,-3 0,-5 28,2 51,-4 72,-19 0,1 0,3 0,4 -21,15 -44,22 -72,20z; M107 161c0,-2 0,-3 0,-5 29,2 52,-4 73,-19 0,1 0,3 0,4 -21,15 -44,22 -73,20z; M109 140c0,-2 0,-3 0,-5 28,2 51,-4 72,-19 0,1 0,3 0,4 -21,15 -44,22 -72,20z; M108 157c0,-1 0,-3 0,-4 28,2 51,-4 72,-20 0,2 0,4 0,5 -21,15 -44,21 -72,19z;"/></path>  
   <path class="fil9" d="M108 172c0,-2 0,-3 0,-5 28,3 51,-4 72,-19 0,1 0,3 0,4 -21,15 -44,22 -72,20z"><animate attributeName="d" dur="11000ms" repeatCount="indefinite" values="M108 172c0,-2 0,-3 0,-5 28,3 51,-4 72,-19 0,1 0,3 0,4 -21,15 -44,22 -72,20z; M109 154c0,-2 0,-3 0,-5 28,3 51,-4 72,-19 0,1 0,3 0,5 -21,14 -44,21 -72,19z; M107 175c0,-2 0,-3 0,-5 29,3 52,-4 73,-19 0,1 0,3 0,4 -21,15 -44,22 -73,20z; M109 154c0,-2 0,-3 0,-5 28,3 51,-4 72,-19 0,1 0,3 0,5 -21,14 -44,21 -72,19z; M108 172c0,-2 0,-3 0,-5 28,3 51,-4 72,-19 0,1 0,3 0,4 -21,15 -44,22 -72,20z;"/></path>
  </g>
 </g>
</svg>
