<?xml version="1.0" encoding="UTF-8"?><!DOCTYPE svg PUBLIC "-//W3C//DTD SVG 1.1//EN" "http://www.w3.org/Graphics/SVG/1.1/DTD/svg11.dtd"><!-- Creator: niges.ru --><svg xmlns="http://www.w3.org/2000/svg" xml:space="preserve" width="210px" height="210px" version="1.1" style="shape-rendering:geometricPrecision; text-rendering:geometricPrecision; image-rendering:optimizeQuality; fill-rule:evenodd; clip-rule:evenodd" viewBox="0 0 210 210" xmlns:xlink="http://www.w3.org/1999/xlink">
 <defs>
  <style type="text/css">
   <![CDATA[
    .fil3 {fill:#FF3200}
	.fil20 {fill:#FF6E00}
    .fil16 {fill:white;fill: none;}
    .fil2 {fill:url(#id0)}
    .fil0 {fill:url(#id1)}
    .fil18 {fill:url(#id2)}
    .fil11 {fill:url(#id3)}
    .fil9 {fill:url(#id4)}
    .fil13 {fill:url(#id5)}
    .fil10 {fill:url(#id6)}
    .fil19 {fill:url(#id7)}
    .fil14 {fill:url(#id8)}
    .fil8 {fill:url(#id9);fill: none;}
    .fil7 {fill:url(#id10)}
    .fil1 {fill:url(#id11)}
    .fil5 {fill:url(#id12)}
    .fil4 {fill:url(#id13)}
    .fil12 {fill:url(#id14)}
    .fil17 {fill:url(#id15)}
    .fil15 {fill:url(#id16)}
    .fil6 {fill:url(#id17)}	
	.fil130 {fill:#FF3100;fill-rule:nonzero}
    .fil120 {fill:white;fill-rule:nonzero}
	.fil140 {fill:url(#id90);fill-rule:nonzero}
	.fil150 {fill:url(#id120);fill: #ff5900; fill-rule:nonzero}
	.fil160 {fill:url(#id60);fill-rule:nonzero}	
   ]]>
  </style>  
  <linearGradient id="id60" gradientUnits="userSpaceOnUse" x1="155.466" y1="73.8909" x2="138.464" y2="99.9708">
   <stop offset="0" style="stop-opacity:1; stop-color:white"/>
   <stop offset="0.478431" style="stop-opacity:0; stop-color:#FFCA80"/>
   <stop offset="1" style="stop-opacity:0; stop-color:#FF9400"/>
  </linearGradient>
  <linearGradient id="id90" gradientUnits="userSpaceOnUse" x1="156.298" y1="69.4892" x2="134.25" y2="103.309">
   <stop offset="0" style="stop-opacity:1; stop-color:#FF9400"/>
   <stop offset="0.0313725" style="stop-opacity:1; stop-color:#FF9400"/>
   <stop offset="0.921569" style="stop-opacity:1; stop-color:#FF3100"/>
   <stop offset="1" style="stop-opacity:1; stop-color:#FF3100"/>
  </linearGradient>
  <linearGradient id="id120" gradientUnits="userSpaceOnUse" xlink:href="#id9" x1="156.008" y1="73.0595" x2="137.922" y2="100.802">
  </linearGradient>  
  <linearGradient id="id0" gradientUnits="userSpaceOnUse" x1="90.5822" y1="98.7981" x2="90.5822" y2="207.662">
   <stop offset="0" style="stop-opacity:0; stop-color:#45FFFF"/>
   <stop offset="0.360784" style="stop-opacity:0.364706; stop-color:#48E0F0"/>
   <stop offset="1" style="stop-opacity:1; stop-color:#4FA1D1"/>
  </linearGradient>
  <linearGradient id="id1" gradientUnits="userSpaceOnUse" x1="109.424" y1="27.618" x2="109.424" y2="78.9095">
   <stop offset="0" style="stop-opacity:1; stop-color:#FF3200"/>
   <stop offset="0.278431" style="stop-opacity:1; stop-color:#FC3103"/>
   <stop offset="0.501961" style="stop-opacity:1; stop-color:#F2300A"/>
   <stop offset="0.709804" style="stop-opacity:1; stop-color:#E12D18"/>
   <stop offset="0.890196" style="stop-opacity:1; stop-color:#C92A2A"/>
   <stop offset="1" style="stop-opacity:1; stop-color:#B92737"/>
  </linearGradient>
  <linearGradient id="id2" gradientUnits="userSpaceOnUse" x1="-680.004" y1="-392.049" x2="-680.004" y2="-363.586">
   <stop offset="0" style="stop-opacity:1; stop-color:#FF9500"/>
   <stop offset="0.0313725" style="stop-opacity:1; stop-color:#FF9500"/>
   <stop offset="0.180392" style="stop-opacity:1; stop-color:#FF8400"/>
   <stop offset="0.729412" style="stop-opacity:1; stop-color:#FF4900"/>
   <stop offset="1" style="stop-opacity:1; stop-color:#FF3200"/>
  </linearGradient>  
  <linearGradient id="id3" gradientUnits="userSpaceOnUse" x1="-648.033" y1="-468.624" x2="-648.033" y2="-435.765">
   <stop offset="0" style="stop-opacity:0; stop-color:#45FFFF"/>
   <stop offset="0.168627" style="stop-opacity:0.172549; stop-color:#63FFFF"/>
   <stop offset="0.411765" style="stop-opacity:0.411765; stop-color:#87FFFF"/>
   <stop offset="0.639216" style="stop-opacity:0.639216; stop-color:#A1FFFF"/>
   <stop offset="0.839216" style="stop-opacity:0.839216; stop-color:#B1FFFF"/>
   <stop offset="1" style="stop-opacity:1; stop-color:#B6FFFF"/>
  </linearGradient>
  <linearGradient id="id4" gradientUnits="userSpaceOnUse" x1="132.453" y1="8.7763" x2="132.453" y2="145.903">
   <stop offset="0" style="stop-opacity:1; stop-color:#B6FFFF"/>
   <stop offset="0.0117647" style="stop-opacity:0.988235; stop-color:#B4FFFF"/>
   <stop offset="0.329412" style="stop-opacity:0.666667; stop-color:#85FFFF"/>
   <stop offset="0.619608" style="stop-opacity:0.384314; stop-color:#62FFFF"/>
   <stop offset="0.85098" style="stop-opacity:0.152941; stop-color:#4DFFFF"/>
   <stop offset="1" style="stop-opacity:0; stop-color:#45FFFF"/>
  </linearGradient>  
  <linearGradient id="id5" gradientUnits="userSpaceOnUse" x1="130.419" y1="141.625" x2="96.7126" y2="193.329">
   <stop offset="0" style="stop-opacity:1; stop-color:#45FFFF"/>
   <stop offset="0.54902" style="stop-opacity:1; stop-color:#49D0E8"/>
   <stop offset="1" style="stop-opacity:1; stop-color:#4EA1D1"/>
  </linearGradient>  
  <linearGradient id="id6" gradientUnits="userSpaceOnUse" xlink:href="#id4" x1="142.721" y1="8.7763" x2="142.721" y2="153.14">
  </linearGradient>
  <linearGradient id="id7" gradientUnits="userSpaceOnUse" x1="-680.1" y1="-392.062" x2="-680.1" y2="-364.516">
   <stop offset="0" style="stop-opacity:1; stop-color:white"/>
   <stop offset="0.670588" style="stop-opacity:0.32549; stop-color:#FFB650"/>
   <stop offset="1" style="stop-opacity:0; stop-color:#FF9500"/>
  </linearGradient>
  <linearGradient id="id8" gradientUnits="userSpaceOnUse" x1="5069.57" y1="-386.901" x2="5069.57" y2="-325.142">
   <stop offset="0" style="stop-opacity:1; stop-color:#45FFFF"/>
   <stop offset="0.188235" style="stop-opacity:1; stop-color:#49D9EC"/>
   <stop offset="0.380392" style="stop-opacity:1; stop-color:#4CBADD"/>
   <stop offset="0.54902" style="stop-opacity:1; stop-color:#4EA8D4"/>
   <stop offset="0.658824" style="stop-opacity:1; stop-color:#4FA1D1"/>
   <stop offset="1" style="stop-opacity:1; stop-color:#4FA1D1"/>
  </linearGradient>
  <linearGradient id="id9" gradientUnits="userSpaceOnUse" x1="-788.378" y1="-523.914" x2="-788.378" y2="-356.734">
   <stop offset="0" style="stop-opacity:0; stop-color:#4FA1D1"/>
   <stop offset="0.121569" style="stop-opacity:0.12549; stop-color:#4C9ACA"/>
   <stop offset="0.301961" style="stop-opacity:0.313725; stop-color:#4485B6"/>
   <stop offset="0.521569" style="stop-opacity:0.537255; stop-color:#366497"/>
   <stop offset="0.760784" style="stop-opacity:0.792157; stop-color:#23366B"/>
   <stop offset="0.968627" style="stop-opacity:1; stop-color:#110B41"/>
   <stop offset="1" style="stop-opacity:1; stop-color:#110B41"/>
  </linearGradient>
  <linearGradient id="id10" gradientUnits="userSpaceOnUse" x1="-788.378" y1="-523.914" x2="-788.378" y2="-356.734">
   <stop offset="0" style="stop-opacity:1; stop-color:#B6FFFF"/>
   <stop offset="0.0901961" style="stop-opacity:0.905882; stop-color:#A0FFFF"/>
   <stop offset="0.258824" style="stop-opacity:0.741176; stop-color:#7FFFFF"/>
   <stop offset="0.431373" style="stop-opacity:0.568627; stop-color:#65FFFF"/>
   <stop offset="0.611765" style="stop-opacity:0.392157; stop-color:#53FFFF"/>
   <stop offset="0.788235" style="stop-opacity:0.207843; stop-color:#49FFFF"/>
   <stop offset="1" style="stop-opacity:0; stop-color:#45FFFF"/>
  </linearGradient>
  <linearGradient id="id11" gradientUnits="userSpaceOnUse" x1="117.798" y1="85.1901" x2="117.798" y2="172.072">
   <stop offset="0" style="stop-opacity:1; stop-color:#4FA1D1"/>
   <stop offset="0.639216" style="stop-opacity:0.364706; stop-color:#48E0F0"/>
   <stop offset="1" style="stop-opacity:0; stop-color:#45FFFF"/>
  </linearGradient>
  <linearGradient id="id12" gradientUnits="userSpaceOnUse" xlink:href="#id8" x1="4940.97" y1="-409.93" x2="4940.97" y2="-362.825">
  </linearGradient>
  <linearGradient id="id13" gradientUnits="userSpaceOnUse" xlink:href="#id8" x1="-820.105" y1="-368.052" x2="-820.105" y2="-324.555">
  </linearGradient>
  <linearGradient id="id14" gradientUnits="userSpaceOnUse" xlink:href="#id8" x1="-818.009" y1="-386.901" x2="-818.009" y2="-325.142">
  </linearGradient>
  <linearGradient id="id15" gradientUnits="userSpaceOnUse" xlink:href="#id2" x1="-729.898" y1="-425.766" x2="-729.898" y2="-387.643">
  </linearGradient> 
  <linearGradient id="id16" gradientUnits="userSpaceOnUse" x1="130.419" y1="141.625" x2="96.7126" y2="193.329">
   <stop offset="0" style="stop-opacity:1; stop-color:#45FFFF"/>
   <stop offset="0.54902" style="stop-opacity:1; stop-color:#49D0E8"/>
   <stop offset="1" style="stop-opacity:1; stop-color:#4EA1D1"/>
  </linearGradient>
  <radialGradient id="id17" gradientUnits="userSpaceOnUse" gradientTransform="matrix(-0.072926 2.38225 -2.38225 -0.0729259 223 -209)" cx="107.966" cy="44.9888" r="27.0459" fx="107.966" fy="44.9888">
   <stop offset="0" style="stop-opacity:1; stop-color:#45FFFF"/>
   <stop offset="0.258824" style="stop-opacity:1; stop-color:#4AD0E8"/>
   <stop offset="0.45098" style="stop-opacity:1; stop-color:#4EA1D1"/>
   <stop offset="0.968627" style="stop-opacity:1; stop-color:#110B41"/>
   <stop offset="1" style="stop-opacity:1; stop-color:#110B41"/>
  </radialGradient>  
 </defs>
 <g id="x0020_1">
  <g id="_973094304">
  <circle id="orange-circle" class="fil0" cx="109" cy="54" r="26"/><animate   xlink:href="#orange-circle" attributeName="cx" from="109" to="99" values="109; 99; 109" dur="10s" repeatCount="indefinite"/><animate   xlink:href="#orange-circle" attributeName="cy" from="54" to="49" values="54; 49; 54" dur="5s" repeatCount="indefinite"/>
  <circle id="orange-circle2" class="fil1" cx="119" cy="129" r="43"/><animate   xlink:href="#orange-circle2" attributeName="cx" from="119" to="129" values="119; 129; 119" dur="10s" repeatCount="indefinite"/><animate   xlink:href="#orange-circle2" attributeName="cy" from="129" to="134" values="129; 134; 129" dur="5s" repeatCount="indefinite"/>
  <path class="fil2" d="M119 121c-3,0 -7,0 -10,1 -7,-13 -22,-23 -38,-23 -23,0 -42,19 -43,42 -5,7 -8,15 -8,25 0,23 19,43 43,43 11,0 21,-5 29,-12 8,6 17,10 27,10 24,0 43,-20 43,-43 0,-24 -19,-43 -43,-43z"><animate attributeName="d" dur="5000ms" repeatCount="indefinite" values="M119 121c-3,0 -7,0 -10,1 -7,-13 -22,-23 -38,-23 -23,0 -42,19 -43,42 -5,7 -8,15 -8,25 0,23 19,43 43,43 11,0 21,-5 29,-12 8,6 17,10 27,10 24,0 43,-20 43,-43 0,-24 -19,-43 -43,-43z; M124 121c-4,0 -8,1 -11,2 -7,-14 -22,-23 -38,-23 -23,0 -42,18 -43,41 -5,7 -8,16 -8,25 0,24 19,43 43,43 11,0 22,-5 29,-12 8,6 17,10 28,10 23,0 42,-19 42,-43 0,-23 -19,-43 -42,-43z; M119 121c-3,0 -7,0 -10,1 -7,-13 -22,-23 -38,-23 -23,0 -42,19 -43,42 -5,7 -8,15 -8,25 0,23 19,43 43,43 11,0 21,-5 29,-12 8,6 17,10 27,10 24,0 43,-20 43,-43 0,-24 -19,-43 -43,-43z;"/></path>
  <path class="fil3" d="M107 158c1,-3 -6,-7 -13,-12 -7,-4 -13,-9 -16,-6 -3,2 -7,20 -8,44 17,-8 35,-22 37,-26z"><animate attributeName="d" dur="200ms" repeatCount="indefinite" values="M107 158c1,-3 -6,-7 -13,-12 -7,-4 -13,-9 -16,-6 -3,2 -7,20 -8,44 17,-8 35,-22 37,-26z; M107 158c1,-3 -6,-7 -13,-12 -7,-4 -13,-9 -16,-6 -3,2 -6,26 -4,44 8,-8 31,-22 33,-26z; M107 158c1,-3 -6,-7 -13,-12 -7,-4 -13,-9 -16,-6 -3,2 -7,20 -8,44 17,-8 35,-22 37,-26z;"/></path>   
  <path class="fil4" d="M97 94c0,0 -12,-5 -17,2 -5,8 -16,25 -16,25l13 16 20 -43z"/>
  <path class="fil5" d="M140 122c0,0 10,9 5,17 -5,8 -15,24 -15,24l-21 -5 31 -36z"/>
  <path class="fil6" d="M104 162c-7,1 -17,-5 -17,-5 0,0 -9,-6 -11,-14 0,0 24,-93 86,-131 8,-5 17,-9 26,-11 2,10 3,19 1,29 -8,72 -85,132 -85,132z"/>
  <path class="fil7" d="M107 154c-6,1 -15,-4 -15,-4 0,0 -9,-6 -10,-13 0,0 21,-84 77,-118 8,-5 16,-8 25,-10 1,8 1,17 0,26 -8,65 -77,119 -77,119z"/>
  <path class="fil8" d="M107 154c-6,1 -15,-4 -15,-4 0,0 -9,-6 -10,-13 0,0 21,-84 77,-118 8,-5 16,-8 25,-10 1,8 1,17 0,26 -8,65 -77,119 -77,119z"/>
  <path class="fil9" d="M86 142c0,0 21,-84 77,-118 7,-4 14,-8 21,-9 0,-2 0,-4 0,-6 -9,2 -17,5 -25,10 -56,34 -77,118 -77,118 1,4 4,7 6,10 -1,-2 -2,-3 -2,-5z"/>
  <path class="fil10" d="M184 9c-2,0 -3,1 -5,1 2,8 2,17 1,25 -8,65 -77,119 -77,119 0,0 0,0 0,0 1,0 3,0 4,0 0,0 69,-54 77,-119 1,-9 1,-18 0,-26z"/>
  <path class="fil11" d="M187 33c0,0 -5,9 -19,0 -15,-10 -8,-18 -8,-18 0,-1 1,-2 2,-3 8,-5 17,-9 27,-11 1,10 2,19 0,29 0,1 -1,2 -2,3z"/>
  <path class="fil12" d="M92 118c0,0 -18,1 -28,8 -11,7 -23,32 -23,32l8 2 31 -19 14 -21 -2 -2z"/>
  <path class="fil13" d="M67 129c9,-6 23,-8 27,-9l0 0 -2 -2c0,0 -18,1 -28,8 -11,7 -23,32 -23,32l4 1c3,-5 14,-24 22,-30z"/>
  <path class="fil14" d="M121 137c0,0 6,17 4,29 -3,12 -20,34 -20,34l-6 -7 5 -36 14 -21 3 1z"/>
  <path class="fil15" d="M121 164c2,-10 -2,-24 -3,-28l0 0 3 1c0,0 6,17 4,29 -3,12 -20,34 -20,34l-3 -4c4,-5 17,-22 19,-32z"/>
  <ellipse class="fil16" transform="matrix(3.60087 -4.77624 4.77624 3.60087 146.127 86.1905)" rx="4" ry="2"/>
  <ellipse class="fil3" transform="matrix(3.60087 -4.77624 4.77624 3.60087 146.419 86.4084)" rx="3" ry="2"/>
  <path class="fil17" d="M137 104c-6,-4 -6,-16 1,-24 6,-9 17,-14 23,-8 0,0 0,0 0,0 -1,-1 -2,-1 -2,-2 -6,-4 -16,0 -23,8 -7,9 -8,20 -2,25 1,0 3,1 4,1 0,0 -1,0 -1,0z"/>
  <path class="fil18" d="M156 93c-6,8 -14,11 -19,7 -5,-3 -4,-12 2,-19 5,-8 14,-11 18,-7 5,3 4,12 -1,19z"/>
  <path class="fil19" d="M155 93c-5,7 -13,10 -17,6 -5,-3 -4,-11 1,-18 5,-7 13,-10 18,-7 4,4 3,12 -2,19z"/>
  <path class="fil120" d="M158 95c-8,10 -19,14 -25,9 -7,-5 -6,-17 1,-26 8,-10 19,-14 25,-9 7,4 6,16 -1,26z"/>
  <path class="fil130" d="M157 94c-7,9 -17,13 -23,9 -6,-5 -5,-16 2,-24 6,-9 17,-13 22,-9 6,5 6,16 -1,24z"/>
  <path class="fil140" d="M137 104c-7,-4 -6,-16 0,-24 7,-9 17,-13 23,-8 0,0 0,0 0,0 0,0 -1,-1 -2,-2 -5,-4 -16,0 -22,9 -7,8 -8,19 -2,24 1,0 2,1 4,1 -1,0 -1,0 -1,0z"/>
  <path class="fil150" d="M155 93c-5,8 -13,11 -18,7 -5,-3 -4,-12 2,-19 5,-8 13,-11 18,-7 5,3 4,12 -2,19z"/>
  <path class="fil160" d="M155 93c-5,7 -13,10 -17,6 -5,-3 -4,-11 1,-18 5,-7 13,-10 17,-7 5,4 4,12 -1,19z"/> 
  </g>
  <path class="fil20" d="M80 151c-2,3 -3,14 -1,19 8,0 15,-6 17,-9 -5,-1 -9,-4 -9,-4 0,0 -4,-2 -7,-6z"><animate attributeName="d" dur="600ms" repeatCount="indefinite" values="M80 151c-2,3 -3,14 -1,19 8,0 15,-6 17,-9 -5,-1 -9,-4 -9,-4 0,0 -4,-2 -7,-6z; M80 151c-3,2 -4,16 -3,22 7,-1 18,-8 19,-12 -5,-1 -9,-4 -9,-4 0,0 -4,-2 -7,-6z; M80 151c-2,3 -3,14 -1,19 8,0 15,-6 17,-9 -5,-1 -9,-4 -9,-4 0,0 -4,-2 -7,-6z;"/></path>
 </g>
</svg>
