<?xml version="1.0" encoding="UTF-8"?><!DOCTYPE svg PUBLIC "-//W3C//DTD SVG 1.1//EN" "http://www.w3.org/Graphics/SVG/1.1/DTD/svg11.dtd"><!-- Creator: niges.ru --><svg xmlns="http://www.w3.org/2000/svg" xml:space="preserve" width="210px" height="210px" version="1.1" style="shape-rendering:geometricPrecision; text-rendering:geometricPrecision; image-rendering:optimizeQuality; fill-rule:evenodd; clip-rule:evenodd" viewBox="0 0 210 210" xmlns:xlink="http://www.w3.org/1999/xlink">
 <defs>
  <style type="text/css">
   <![CDATA[
    .fil15 {fill:black}
    .fil19 {fill:url(#id0)}
    .fil2 {fill:url(#id1)}
    .fil0 {fill:url(#id2)}
    .fil20 {fill:url(#id3)}
    .fil12 {fill:url(#id4)}
    .fil22 {fill:url(#id5)}
    .fil5 {fill:url(#id6)}
    .fil14 {fill:url(#id7)}
    .fil1 {fill:url(#id8)}
    .fil17 {fill:url(#id9)}
    .fil23 {fill:url(#id10)}
    .fil9 {fill:url(#id11)}
    .fil18 {fill:url(#id12)}
    .fil11 {fill:url(#id13)}
    .fil6 {fill:url(#id14)}
    .fil16 {fill:url(#id15)}
    .fil3 {fill:url(#id16)}
    .fil7 {fill:url(#id17)}
    .fil8 {fill:url(#id18)}
    .fil4 {fill:url(#id19)}
    .fil13 {fill:url(#id20)}
    .fil21 {fill:url(#id21)}
    .fil10 {fill:url(#id22)}
   ]]>
  </style>
  <linearGradient id="id0" gradientUnits="userSpaceOnUse" x1="102.521" y1="178.327" x2="102.521" y2="193.946">
   <stop offset="0" style="stop-opacity:1; stop-color:#FF3200"/>
   <stop offset="0.278431" style="stop-opacity:1; stop-color:#FC3103"/>
   <stop offset="0.501961" style="stop-opacity:1; stop-color:#F2300A"/>
   <stop offset="0.709804" style="stop-opacity:1; stop-color:#E12D18"/>
   <stop offset="0.890196" style="stop-opacity:1; stop-color:#C92A2A"/>
   <stop offset="1" style="stop-opacity:1; stop-color:#B92737"/>
  </linearGradient>
  <linearGradient id="id1" gradientUnits="userSpaceOnUse" x1="86.719" y1="44.0361" x2="86.719" y2="199.196">
   <stop offset="0" style="stop-opacity:1; stop-color:white"/>
   <stop offset="0.239216" style="stop-opacity:1; stop-color:#FAFFFF"/>
   <stop offset="0.521569" style="stop-opacity:1; stop-color:#EBFFFF"/>
   <stop offset="0.839216" style="stop-opacity:1; stop-color:#D2FFFF"/>
   <stop offset="1" style="stop-opacity:1; stop-color:#C2FFFF"/>
  </linearGradient>
  <linearGradient id="id2" gradientUnits="userSpaceOnUse" x1="58.8699" y1="6.2409" x2="58.8699" y2="155.433">
   <stop offset="0" style="stop-opacity:1; stop-color:#45FFFF"/>
   <stop offset="0.2" style="stop-opacity:1; stop-color:#46F2F9"/>
   <stop offset="0.580392" style="stop-opacity:1; stop-color:#4ACFE8"/>
   <stop offset="1" style="stop-opacity:1; stop-color:#4FA1D1"/>
  </linearGradient>
  <linearGradient id="id3" gradientUnits="userSpaceOnUse" x1="163.304" y1="65.9176" x2="163.304" y2="113.659">
   <stop offset="0" style="stop-opacity:1; stop-color:#FF3200"/>
   <stop offset="0.0705882" style="stop-opacity:1; stop-color:#EA2F11"/>
   <stop offset="0.168627" style="stop-opacity:1; stop-color:#D42B22"/>
   <stop offset="0.278431" style="stop-opacity:1; stop-color:#C5292E"/>
   <stop offset="0.4" style="stop-opacity:1; stop-color:#BC2735"/>
   <stop offset="0.580392" style="stop-opacity:1; stop-color:#B92737"/>
   <stop offset="0.65098" style="stop-opacity:1; stop-color:#A62331"/>
   <stop offset="0.741176" style="stop-opacity:1; stop-color:#97202D"/>
   <stop offset="0.839216" style="stop-opacity:1; stop-color:#8F1F2A"/>
   <stop offset="1" style="stop-opacity:1; stop-color:#8C1E29"/>
  </linearGradient>
  <linearGradient id="id4" gradientUnits="userSpaceOnUse" xlink:href="#id0" x1="144.407" y1="1.8998" x2="144.407" y2="110.677">
  </linearGradient>
  <linearGradient id="id5" gradientUnits="userSpaceOnUse" xlink:href="#id2" x1="105.617" y1="141.508" x2="105.617" y2="150.46">
  </linearGradient>
  <linearGradient id="id6" gradientUnits="userSpaceOnUse" xlink:href="#id2" x1="102.633" y1="117.638" x2="102.633" y2="162.395">
  </linearGradient>
  <linearGradient id="id7" gradientUnits="userSpaceOnUse" x1="66.8268" y1="44.0361" x2="66.8268" y2="67.9068">
   <stop offset="0" style="stop-opacity:1; stop-color:#FF8D00"/>
   <stop offset="0.0117647" style="stop-opacity:1; stop-color:#FF8D00"/>
   <stop offset="0.631373" style="stop-opacity:1; stop-color:#FF3200"/>
   <stop offset="0.721569" style="stop-opacity:1; stop-color:#FD3303"/>
   <stop offset="0.8" style="stop-opacity:1; stop-color:#F5360D"/>
   <stop offset="0.858824" style="stop-opacity:1; stop-color:#E83C1E"/>
   <stop offset="0.929412" style="stop-opacity:1; stop-color:#D64336"/>
   <stop offset="0.988235" style="stop-opacity:1; stop-color:#BE4D54"/>
   <stop offset="1" style="stop-opacity:1; stop-color:#B94F5B"/>
  </linearGradient>
  <linearGradient id="id8" gradientUnits="userSpaceOnUse" xlink:href="#id2" x1="163.304" y1="65.9176" x2="163.304" y2="199.196">
  </linearGradient>
  <linearGradient id="id9" gradientUnits="userSpaceOnUse" x1="78.7621" y1="153.444" x2="78.7621" y2="187.26">
   <stop offset="0" style="stop-opacity:1; stop-color:#FF3200"/>
   <stop offset="0.458824" style="stop-opacity:1; stop-color:#E12D18"/>
   <stop offset="1" style="stop-opacity:1; stop-color:#B92737"/>
  </linearGradient>
  <linearGradient id="id10" gradientUnits="userSpaceOnUse" xlink:href="#id2" x1="99.649" y1="129.573" x2="99.649" y2="138.524">
  </linearGradient>
  <linearGradient id="id11" gradientUnits="userSpaceOnUse" x1="171.261" y1="61.9392" x2="151.369" y2="141.508">
   <stop offset="0" style="stop-opacity:1; stop-color:#1208FF"/>
   <stop offset="0.109804" style="stop-opacity:1; stop-color:#1208F9"/>
   <stop offset="0.25098" style="stop-opacity:1; stop-color:#1208E6"/>
   <stop offset="0.431373" style="stop-opacity:1; stop-color:#1208C9"/>
   <stop offset="0.619608" style="stop-opacity:1; stop-color:#12089F"/>
   <stop offset="0.819608" style="stop-opacity:1; stop-color:#12086B"/>
   <stop offset="1" style="stop-opacity:1; stop-color:#120836"/>
  </linearGradient>
  <linearGradient id="id12" gradientUnits="userSpaceOnUse" x1="100.644" y1="161.4" x2="100.644" y2="187.26">
   <stop offset="0" style="stop-opacity:1; stop-color:#360033"/>
   <stop offset="0.109804" style="stop-opacity:1; stop-color:#440330"/>
   <stop offset="0.321569" style="stop-opacity:1; stop-color:#670C26"/>
   <stop offset="0.6" style="stop-opacity:1; stop-color:#A21B18"/>
   <stop offset="0.941176" style="stop-opacity:1; stop-color:#F12E04"/>
   <stop offset="1" style="stop-opacity:1; stop-color:#FF3200"/>
  </linearGradient>
  <linearGradient id="id13" gradientUnits="userSpaceOnUse" x1="82.736" y1="162.395" x2="82.736" y2="208.147">
   <stop offset="0" style="stop-opacity:1; stop-color:#4FA1D1"/>
   <stop offset="0.419608" style="stop-opacity:1; stop-color:#4ACFE8"/>
   <stop offset="0.8" style="stop-opacity:1; stop-color:#46F2F9"/>
   <stop offset="1" style="stop-opacity:1; stop-color:#45FFFF"/>
  </linearGradient>
  <linearGradient id="id14" gradientUnits="userSpaceOnUse" x1="102.633" y1="121.616" x2="102.633" y2="159.411">
   <stop offset="0" style="stop-opacity:1; stop-color:#45FFFF"/>
   <stop offset="0.0705882" style="stop-opacity:1; stop-color:#47F0F7"/>
   <stop offset="0.211765" style="stop-opacity:1; stop-color:#4AD3EA"/>
   <stop offset="0.368627" style="stop-opacity:1; stop-color:#4CBDDF"/>
   <stop offset="0.541176" style="stop-opacity:1; stop-color:#4EADD7"/>
   <stop offset="0.729412" style="stop-opacity:1; stop-color:#4FA4D2"/>
   <stop offset="1" style="stop-opacity:1; stop-color:#4FA1D1"/>
  </linearGradient>
  <linearGradient id="id15" gradientUnits="userSpaceOnUse" xlink:href="#id0" x1="63.8429" y1="157.486" x2="108.6" y2="157.486">
  </linearGradient>
  <linearGradient id="id16" gradientUnits="userSpaceOnUse" xlink:href="#id11" x1="70.8052" y1="101.006" x2="70.8052" y2="175.328">
  </linearGradient>
  <linearGradient id="id17" gradientUnits="userSpaceOnUse" xlink:href="#id11" x1="-2550" y1="110.675" x2="-2550" y2="155.433">
  </linearGradient>
  <linearGradient id="id18" gradientUnits="userSpaceOnUse" x1="-2550" y1="113.659" x2="-2550" y2="151.454">
   <stop offset="0" style="stop-opacity:1; stop-color:#1208FF"/>
   <stop offset="0.0784314" style="stop-opacity:1; stop-color:#1208D8"/>
   <stop offset="0.188235" style="stop-opacity:1; stop-color:#1208AD"/>
   <stop offset="0.301961" style="stop-opacity:1; stop-color:#120888"/>
   <stop offset="0.419608" style="stop-opacity:1; stop-color:#12086A"/>
   <stop offset="0.541176" style="stop-opacity:1; stop-color:#120853"/>
   <stop offset="0.670588" style="stop-opacity:1; stop-color:#120843"/>
   <stop offset="0.811765" style="stop-opacity:1; stop-color:#120839"/>
   <stop offset="1" style="stop-opacity:1; stop-color:#120836"/>
  </linearGradient>
  <linearGradient id="id19" gradientUnits="userSpaceOnUse" xlink:href="#id2" x1="58.8704" y1="101.006" x2="58.8704" y2="175.328">
  </linearGradient>
  <linearGradient id="id20" gradientUnits="userSpaceOnUse" xlink:href="#id7" x1="104.622" y1="44.0361" x2="104.622" y2="113.659">
  </linearGradient>
  <linearGradient id="id21" gradientUnits="userSpaceOnUse" xlink:href="#id2" x1="102.633" y1="133.551" x2="102.633" y2="146.481">
  </linearGradient>
  <linearGradient id="id22" gradientUnits="userSpaceOnUse" xlink:href="#id2" x1="-2612.66" y1="61.9392" x2="-2632.55" y2="141.508">
  </linearGradient>
 </defs>
 <g id="_x0020_1">
  <g id="_835837248">
   <path class="fil0" d="M8 67l102 -60 0 89 -102 60c0,-30 0,-52 0,-89z"><animate attributeName="d" dur="3000ms" repeatCount="indefinite" values="M8 67l102 -60 0 89 -102 60c0,-30 0,-52 0,-89z; M10 69l108 -62 0 93 -108 62c0,-31 0,-54 0,-93z; M8 67l102 -60 0 89 -102 60c0,-30 0,-52 0,-89z;"/> </path> 
   <path class="fil1" d="M125 200l0 -89 77 -44 0 84c0,3 -1,5 -3,7l-74 42z"/>
   <path class="fil2" d="M125 111l0 89 -75 -43c-1,-1 -2,-2 -2,-4l0 -86 37 -22 2 -1 38 67z"/>
   <path class="fil3" d="M61 102l22 12c0,1 0,1 0,1l0 61 -24 -14 0 -60c0,0 1,-1 2,0z"/>
   <path class="fil4" d="M59 102l-22 12c0,1 0,1 0,1l0 61 24 -13 0 -61c0,0 -1,-1 -2,0z"/>
   <polygon class="fil5" points="90,119 90,148 116,163 116,133 "/>
   <polygon class="fil6" points="92,122 92,147 114,160 114,134 "/>
   <polygon class="fil7" points="177,111 177,141 151,156 151,126 "/>
   <polygon class="fil8" points="175,114 175,140 153,152 153,127 "/>
   <polygon class="fil9" points="125,111 125,117 202,73 202,67 "/>
   <polygon class="fil10" points="125,111 125,117 48,73 48,67 "/>
   <path class="fil11" d="M83 163c-2,0 -4,1 -4,2l0 41c0,2 2,3 4,3 2,0 4,-1 4,-3l0 -41c0,-1 -2,-2 -4,-2z"/>
   <path class="fil12" d="M125 111l-38 -67 73 -42c2,-1 5,-1 6,2l36 63 -77 44z"/>
   <polygon class="fil13" points="125,111 125,114 85,45 87,44 "/>
   <polygon class="fil14" points="48,67 48,68 87,45 87,44 "/>
   <path class="fil15" d="M108 165l1 14 0 0 0 -15c0,-1 -1,-2 -1,-3l-27 -15c-1,-1 -2,-1 -3,0l-12 7c-1,0 -1,1 -1,2l0 14c0,1 0,2 1,2l28 17 1 -1c0,-4 0,-14 1,-15l3 -2c1,-1 9,-4 9,-5z"/>
   <path class="fil16" d="M65 154l13 -8c1,-1 2,-1 3,0l28 16 -15 9 -29 -17z"/>
   <path class="fil17" d="M65 154l0 15c0,1 0,2 1,2l28 17 0 -17 -29 -17z"/>
   <polygon class="fil18" points="109,162 109,179 94,188 94,171 "/>
   <path class="fil19" d="M109 179l5 12c1,0 1,1 0,2l-12 7c-1,0 -2,0 -2,-1 -1,-2 -5,-9 -6,-11 5,-3 10,-6 15,-9z"><animate attributeName="d" dur="3500ms" repeatCount="indefinite" values="M109 179l5 12c1,0 1,1 0,2l-12 7c-1,0 -2,0 -2,-1 -1,-2 -5,-9 -6,-11 5,-3 10,-6 15,-9z; M109 179l8 9c1,0 1,1 0,2l-12 7c-1,0 -2,0 -3,-1 -1,-1 -6,-6 -8,-8 5,-3 10,-6 15,-9z; M109 179l12 1c1,1 1,2 0,2l-12 7c-2,1 -3,1 -4,1 -1,0 -8,-1 -11,-2 5,-3 10,-6 15,-9z; M109 179l13 -7c1,-1 1,0 0,1l-12 7c-2,1 -2,2 -4,2 -2,1 -9,5 -12,6 5,-3 10,-6 15,-9z; M109 179l5 -8c1,-2 2,-3 1,-3l-11 7c-3,2 -3,4 -4,5 -2,2 -3,4 -6,8 5,-3 10,-6 15,-9z; M109 179l0 -15c0,-2 0,-4 -2,-3l-12 6c-1,1 -1,2 -1,10 0,3 0,7 0,11 5,-3 10,-6 15,-9z; M109 179l0 -15c0,-2 0,-4 -2,-3l-12 6c-1,1 -1,2 -1,10 0,3 0,7 0,11 5,-3 10,-6 15,-9z; M109 179l0 -15c0,-2 0,-4 -2,-3l-12 6c-1,1 -1,2 -1,10 0,3 0,7 0,11 5,-3 10,-6 15,-9z; M109 179l0 -15c0,-2 0,-4 -2,-3l-12 6c-1,1 -1,2 -1,10 0,3 0,7 0,11 5,-3 10,-6 15,-9z; M109 179l0 -15c0,-2 0,-4 -2,-3l-12 6c-1,1 -1,2 -1,10 0,3 0,7 0,11 5,-3 10,-6 15,-9z; M109 179l0 -15c0,-2 0,-4 -2,-3l-12 6c-1,1 -1,2 -1,10 0,3 0,7 0,11 5,-3 10,-6 15,-9z; M109 179l0 -15c0,-2 0,-4 -2,-3l-12 6c-1,1 -1,2 -1,10 0,3 0,7 0,11 5,-3 10,-6 15,-9z; M109 179l0 -15c0,-2 0,-4 -2,-3l-12 6c-1,1 -1,2 -1,10 0,3 0,7 0,11 5,-3 10,-6 15,-9z; M109 179l0 -15c0,-2 0,-4 -2,-3l-12 6c-1,1 -1,2 -1,10 0,3 0,7 0,11 5,-3 10,-6 15,-9z; M109 179l0 -15c0,-2 0,-4 -2,-3l-12 6c-1,1 -1,2 -1,10 0,3 0,7 0,11 5,-3 10,-6 15,-9z; M109 179l0 -15c0,-2 0,-4 -2,-3l-12 6c-1,1 -1,2 -1,10 0,3 0,7 0,11 5,-3 10,-6 15,-9z; M109 179l0 -15c0,-2 0,-4 -2,-3l-12 6c-1,1 -1,2 -1,10 0,3 0,7 0,11 5,-3 10,-6 15,-9z; M109 179l0 -15c0,-2 0,-4 -2,-3l-12 6c-1,1 -1,2 -1,10 0,3 0,7 0,11 5,-3 10,-6 15,-9z; M109 179l0 -15c0,-2 0,-4 -2,-3l-12 6c-1,1 -1,2 -1,10 0,3 0,7 0,11 5,-3 10,-6 15,-9z; M109 179l0 -15c0,-2 0,-4 -2,-3l-12 6c-1,1 -1,2 -1,10 0,3 0,7 0,11 5,-3 10,-6 15,-9z; M109 179l0 -15c0,-2 0,-4 -2,-3l-12 6c-1,1 -1,2 -1,10 0,3 0,7 0,11 5,-3 10,-6 15,-9z; M109 179l0 -15c0,-2 0,-4 -2,-3l-12 6c-1,1 -1,2 -1,10 0,3 0,7 0,11 5,-3 10,-6 15,-9z; M109 179l0 -15c0,-2 0,-4 -2,-3l-12 6c-1,1 -1,2 -1,10 0,3 0,7 0,11 5,-3 10,-6 15,-9z; M109 179l5 -8c1,-2 2,-3 1,-3l-11 7c-3,2 -3,4 -4,5 -2,2 -3,4 -6,8 5,-3 10,-6 15,-9z; M109 179l13 -7c1,-1 1,0 0,1l-12 7c-2,1 -2,2 -4,2 -2,1 -9,5 -12,6 5,-3 10,-6 15,-9z; M109 179l12 1c1,1 1,2 0,2l-12 7c-2,1 -3,1 -4,1 -1,0 -8,-1 -11,-2 5,-3 10,-6 15,-9z; M109 179l8 9c1,0 1,1 0,2l-12 7c-1,0 -2,0 -3,-1 -1,-1 -6,-6 -8,-8 5,-3 10,-6 15,-9z; M109 179l5 12c1,0 1,1 0,2l-12 7c-1,0 -2,0 -2,-1 -1,-2 -5,-9 -6,-11 5,-3 10,-6 15,-9z;"/></path> 
   <polygon class="fil20" points="125,114 202,69 202,67 125,111 "/>
   <polygon class="fil21" points="94,143 110,134 112,135 112,139 95,147 94,146 "/>
   <polygon class="fil22" points="100,148 112,142 113,143 113,145 101,151 100,150 "/>
   <polygon class="fil23" points="94,137 105,130 107,131 107,134 95,140 94,139 "/>
  </g>
 </g>
</svg>
