<svg width="740" height="1068" viewBox="0 0 740 1068" fill="none" xmlns="http://www.w3.org/2000/svg">
<path d="M677.232 458.185C611.161 352.704 498.839 280.185 370 280.185C300.625 280.185 234.554 299.963 178.393 339.519V296.667V89C178.393 26.3704 138.75 0 89.1964 0C39.6429 0 0 29.6667 0 89V672.444C0 890 165.179 1068 370 1068C498.839 1068 611.161 998.778 677.232 890C716.875 827.37 740 754.852 740 672.444C740 590.037 716.875 520.815 677.232 458.185ZM459.196 866.926C442.679 876.815 426.161 883.407 406.339 886.704C403.036 886.704 396.429 890 389.821 890C383.214 890 376.607 890 370 890C336.964 890 307.232 880.111 280.804 866.926C218.036 830.667 178.393 758.148 178.393 675.741C178.393 593.333 221.339 520.815 280.804 484.556C307.232 468.074 336.964 461.481 370 461.481C403.036 461.481 432.768 471.37 459.196 484.556C521.964 520.815 561.607 593.333 561.607 675.741C561.607 758.148 518.661 830.667 459.196 866.926Z" fill="#F2F3F6"/>
</svg>
