<svg width="62" height="62" viewBox="0 0 62 62" fill="none" xmlns="http://www.w3.org/2000/svg">
<mask id="path-1-inside-1" fill="white">
<path fill-rule="evenodd" clip-rule="evenodd" d="M39.3346 19C38.8792 19 38.4345 19.0457 38.0048 19.1327C36.6414 16.6685 34.0156 15 31 15C26.5817 15 23 18.5817 23 23C23 23.1928 23.0068 23.384 23.0202 23.5734C20.0777 24.7551 18 27.6349 18 31C18 34.9644 20.8837 38.2554 24.668 38.8896V39H26H46C46.0004 39 46.0009 39 46.0013 39C50.419 38.9993 54 35.4178 54 31C54 26.5817 50.4183 23 46 23C45.8167 23 45.6348 23.0062 45.4545 23.0183C44.43 20.654 42.0755 19 39.3346 19Z"/>
</mask>
<path fill-rule="evenodd" clip-rule="evenodd" d="M39.3346 19C38.8792 19 38.4345 19.0457 38.0048 19.1327C36.6414 16.6685 34.0156 15 31 15C26.5817 15 23 18.5817 23 23C23 23.1928 23.0068 23.384 23.0202 23.5734C20.0777 24.7551 18 27.6349 18 31C18 34.9644 20.8837 38.2554 24.668 38.8896V39H26H46C46.0004 39 46.0009 39 46.0013 39C50.419 38.9993 54 35.4178 54 31C54 26.5817 50.4183 23 46 23C45.8167 23 45.6348 23.0062 45.4545 23.0183C44.43 20.654 42.0755 19 39.3346 19Z" fill="white"/>
<path d="M38.0048 19.1327L36.2548 20.1009L36.9646 21.3838L38.4016 21.0929L38.0048 19.1327ZM23.0202 23.5734L23.7656 25.4293L25.1182 24.8861L25.0152 23.4321L23.0202 23.5734ZM24.668 38.8896H26.668V37.1969L24.9986 36.9171L24.668 38.8896ZM24.668 39H22.668V41H24.668V39ZM46.0013 39V41H46.0016L46.0013 39ZM45.4545 23.0183L43.6194 23.8135L44.1806 25.1086L45.5889 25.0138L45.4545 23.0183ZM38.4016 21.0929C38.7015 21.0322 39.0133 21 39.3346 21V17C38.7452 17 38.1676 17.0591 37.608 17.1724L38.4016 21.0929ZM31 17C33.259 17 35.2294 18.2476 36.2548 20.1009L39.7548 18.1644C38.0534 15.0894 34.7721 13 31 13V17ZM25 23C25 19.6863 27.6863 17 31 17V13C25.4772 13 21 17.4772 21 23H25ZM25.0152 23.4321C25.0051 23.2897 25 23.1456 25 23H21C21 23.24 21.0085 23.4783 21.0252 23.7146L25.0152 23.4321ZM20 31C20 28.4793 21.555 26.317 23.7656 25.4293L22.2749 21.7174C18.6003 23.1931 16 26.7905 16 31H20ZM24.9986 36.9171C22.1619 36.4417 20 33.9714 20 31H16C16 35.9575 19.6055 40.069 24.3374 40.8621L24.9986 36.9171ZM26.668 39V38.8896H22.668V39H26.668ZM26 37H24.668V41H26V37ZM46 37H26V41H46V37ZM46.0013 37H46.0013C46.0013 37 46.0013 37 46.0013 37H46.0013H46.0013C46.0013 37 46.0013 37 46.0013 37H46.0013H46.0013C46.0013 37 46.0013 37 46.0013 37H46.0013H46.0013C46.0013 37 46.0013 37 46.0013 37H46.0013H46.0013C46.0013 37 46.0013 37 46.0013 37H46.0013H46.0013C46.0013 37 46.0013 37 46.0013 37H46.0013H46.0013C46.0013 37 46.0013 37 46.0013 37H46.0012H46.0012C46.0012 37 46.0012 37 46.0012 37H46.0012C46.0012 37 46.0012 37 46.0012 37C46.0012 37 46.0012 37 46.0012 37H46.0012C46.0012 37 46.0012 37 46.0012 37C46.0012 37 46.0012 37 46.0012 37H46.0012C46.0012 37 46.0012 37 46.0012 37C46.0012 37 46.0012 37 46.0012 37H46.0012C46.0012 37 46.0012 37 46.0012 37C46.0012 37 46.0012 37 46.0012 37H46.0012C46.0012 37 46.0012 37 46.0012 37C46.0012 37 46.0012 37 46.0012 37H46.0012C46.0012 37 46.0012 37 46.0012 37C46.0012 37 46.0012 37 46.0012 37H46.0012C46.0012 37 46.0012 37 46.0012 37C46.0012 37 46.0012 37 46.0012 37H46.0012C46.0012 37 46.0012 37 46.0012 37C46.0012 37 46.0012 37 46.0012 37H46.0012C46.0012 37 46.0012 37 46.0012 37C46.0012 37 46.0012 37 46.0012 37H46.0012C46.0012 37 46.0012 37 46.0012 37C46.0012 37 46.0012 37 46.0012 37H46.0012C46.0012 37 46.0012 37 46.0012 37C46.0012 37 46.0012 37 46.0012 37H46.0012C46.0012 37 46.0012 37 46.0012 37C46.0012 37 46.0012 37 46.0012 37H46.0012C46.0011 37 46.0011 37 46.0011 37C46.0011 37 46.0011 37 46.0011 37H46.0011C46.0011 37 46.0011 37 46.0011 37C46.0011 37 46.0011 37 46.0011 37H46.0011C46.0011 37 46.0011 37 46.0011 37C46.0011 37 46.0011 37 46.0011 37H46.0011C46.0011 37 46.0011 37 46.0011 37C46.0011 37 46.0011 37 46.0011 37H46.0011C46.0011 37 46.0011 37 46.0011 37C46.0011 37 46.0011 37 46.0011 37H46.0011C46.0011 37 46.0011 37 46.0011 37C46.0011 37 46.0011 37 46.0011 37H46.0011C46.0011 37 46.0011 37 46.0011 37C46.0011 37 46.0011 37 46.0011 37H46.0011C46.0011 37 46.0011 37 46.0011 37C46.0011 37 46.0011 37 46.0011 37H46.0011C46.0011 37 46.0011 37 46.0011 37C46.0011 37 46.0011 37 46.0011 37H46.0011C46.0011 37 46.0011 37 46.0011 37C46.0011 37 46.0011 37 46.0011 37H46.0011C46.0011 37 46.0011 37 46.0011 37C46.0011 37 46.0011 37 46.0011 37H46.0011C46.0011 37 46.0011 37 46.0011 37C46.0011 37 46.0011 37 46.0011 37H46.0011C46.0011 37 46.0011 37 46.0011 37C46.0011 37 46.0011 37 46.0011 37H46.0011C46.001 37 46.001 37 46.001 37C46.001 37 46.001 37 46.001 37H46.001C46.001 37 46.001 37 46.001 37C46.001 37 46.001 37 46.001 37H46.001C46.001 37 46.001 37 46.001 37C46.001 37 46.001 37 46.001 37H46.001C46.001 37 46.001 37 46.001 37C46.001 37 46.001 37 46.001 37H46.001C46.001 37 46.001 37 46.001 37C46.001 37 46.001 37 46.001 37H46.001C46.001 37 46.001 37 46.001 37C46.001 37 46.001 37 46.001 37H46.001C46.001 37 46.001 37 46.001 37C46.001 37 46.001 37 46.001 37H46.001C46.001 37 46.001 37 46.001 37C46.001 37 46.001 37 46.001 37H46.001C46.001 37 46.001 37 46.001 37C46.001 37 46.001 37 46.001 37H46.001C46.001 37 46.001 37 46.001 37C46.001 37 46.001 37 46.001 37H46.001C46.001 37 46.001 37 46.001 37C46.001 37 46.001 37 46.001 37H46.001C46.001 37 46.001 37 46.001 37C46.001 37 46.001 37 46.001 37H46.001C46.001 37 46.001 37 46.001 37C46.001 37 46.001 37 46.001 37H46.001C46.0009 37 46.0009 37 46.0009 37C46.0009 37 46.0009 37 46.0009 37H46.0009C46.0009 37 46.0009 37 46.0009 37C46.0009 37 46.0009 37 46.0009 37H46.0009C46.0009 37 46.0009 37 46.0009 37C46.0009 37 46.0009 37 46.0009 37H46.0009C46.0009 37 46.0009 37 46.0009 37C46.0009 37 46.0009 37 46.0009 37H46.0009C46.0009 37 46.0009 37 46.0009 37C46.0009 37 46.0009 37 46.0009 37H46.0009C46.0009 37 46.0009 37 46.0009 37C46.0009 37 46.0009 37 46.0009 37H46.0009C46.0009 37 46.0009 37 46.0009 37C46.0009 37 46.0009 37 46.0009 37H46.0009C46.0009 37 46.0009 37 46.0009 37C46.0009 37 46.0009 37 46.0009 37H46.0009C46.0009 37 46.0009 37 46.0009 37C46.0009 37 46.0009 37 46.0009 37H46.0009C46.0009 37 46.0009 37 46.0009 37C46.0009 37 46.0009 37 46.0009 37H46.0009C46.0009 37 46.0009 37 46.0009 37C46.0009 37 46.0009 37 46.0009 37H46.0009C46.0009 37 46.0009 37 46.0009 37C46.0009 37 46.0009 37 46.0009 37H46.0009C46.0009 37 46.0009 37 46.0009 37C46.0009 37 46.0009 37 46.0009 37H46.0009C46.0009 37 46.0009 37 46.0008 37C46.0008 37 46.0008 37 46.0008 37H46.0008C46.0008 37 46.0008 37 46.0008 37C46.0008 37 46.0008 37 46.0008 37H46.0008C46.0008 37 46.0008 37 46.0008 37C46.0008 37 46.0008 37 46.0008 37H46.0008C46.0008 37 46.0008 37 46.0008 37C46.0008 37 46.0008 37 46.0008 37H46.0008C46.0008 37 46.0008 37 46.0008 37C46.0008 37 46.0008 37 46.0008 37H46.0008C46.0008 37 46.0008 37 46.0008 37C46.0008 37 46.0008 37 46.0008 37H46.0008C46.0008 37 46.0008 37 46.0008 37C46.0008 37 46.0008 37 46.0008 37H46.0008C46.0008 37 46.0008 37 46.0008 37C46.0008 37 46.0008 37 46.0008 37H46.0008C46.0008 37 46.0008 37 46.0008 37C46.0008 37 46.0008 37 46.0008 37H46.0008C46.0008 37 46.0008 37 46.0008 37C46.0008 37 46.0008 37 46.0008 37H46.0008C46.0008 37 46.0008 37 46.0008 37C46.0008 37 46.0008 37 46.0008 37H46.0008C46.0008 37 46.0008 37 46.0008 37C46.0008 37 46.0008 37 46.0008 37H46.0008C46.0008 37 46.0008 37 46.0008 37C46.0008 37 46.0008 37 46.0008 37H46.0008C46.0008 37 46.0008 37 46.0007 37C46.0007 37 46.0007 37 46.0007 37H46.0007C46.0007 37 46.0007 37 46.0007 37C46.0007 37 46.0007 37 46.0007 37H46.0007C46.0007 37 46.0007 37 46.0007 37C46.0007 37 46.0007 37 46.0007 37H46.0007C46.0007 37 46.0007 37 46.0007 37C46.0007 37 46.0007 37 46.0007 37H46.0007C46.0007 37 46.0007 37 46.0007 37C46.0007 37 46.0007 37 46.0007 37H46.0007C46.0007 37 46.0007 37 46.0007 37C46.0007 37 46.0007 37 46.0007 37H46.0007C46.0007 37 46.0007 37 46.0007 37C46.0007 37 46.0007 37 46.0007 37H46.0007C46.0007 37 46.0007 37 46.0007 37C46.0007 37 46.0007 37 46.0007 37H46.0007C46.0007 37 46.0007 37 46.0007 37C46.0007 37 46.0007 37 46.0007 37H46.0007C46.0007 37 46.0007 37 46.0007 37C46.0007 37 46.0007 37 46.0007 37H46.0007C46.0007 37 46.0007 37 46.0007 37C46.0007 37 46.0007 37 46.0007 37H46.0007C46.0007 37 46.0007 37 46.0007 37C46.0007 37 46.0007 37 46.0007 37H46.0007C46.0007 37 46.0007 37 46.0007 37C46.0007 37 46.0007 37 46.0007 37H46.0007C46.0007 37 46.0007 37 46.0007 37C46.0007 37 46.0007 37 46.0006 37H46.0006C46.0006 37 46.0006 37 46.0006 37C46.0006 37 46.0006 37 46.0006 37H46.0006C46.0006 37 46.0006 37 46.0006 37C46.0006 37 46.0006 37 46.0006 37H46.0006C46.0006 37 46.0006 37 46.0006 37C46.0006 37 46.0006 37 46.0006 37H46.0006C46.0006 37 46.0006 37 46.0006 37C46.0006 37 46.0006 37 46.0006 37H46.0006C46.0006 37 46.0006 37 46.0006 37C46.0006 37 46.0006 37 46.0006 37H46.0006C46.0006 37 46.0006 37 46.0006 37C46.0006 37 46.0006 37 46.0006 37H46.0006C46.0006 37 46.0006 37 46.0006 37C46.0006 37 46.0006 37 46.0006 37H46.0006C46.0006 37 46.0006 37 46.0006 37C46.0006 37 46.0006 37 46.0006 37H46.0006C46.0006 37 46.0006 37 46.0006 37C46.0006 37 46.0006 37 46.0006 37H46.0006C46.0006 37 46.0006 37 46.0006 37C46.0006 37 46.0006 37 46.0006 37H46.0006C46.0006 37 46.0006 37 46.0006 37C46.0006 37 46.0006 37 46.0006 37H46.0006C46.0006 37 46.0006 37 46.0006 37C46.0006 37 46.0006 37 46.0006 37H46.0006C46.0006 37 46.0006 37 46.0006 37C46.0006 37 46.0006 37 46.0005 37H46.0005C46.0005 37 46.0005 37 46.0005 37C46.0005 37 46.0005 37 46.0005 37H46.0005C46.0005 37 46.0005 37 46.0005 37C46.0005 37 46.0005 37 46.0005 37H46.0005C46.0005 37 46.0005 37 46.0005 37C46.0005 37 46.0005 37 46.0005 37H46.0005C46.0005 37 46.0005 37 46.0005 37C46.0005 37 46.0005 37 46.0005 37H46.0005C46.0005 37 46.0005 37 46.0005 37C46.0005 37 46.0005 37 46.0005 37H46.0005C46.0005 37 46.0005 37 46.0005 37C46.0005 37 46.0005 37 46.0005 37H46.0005C46.0005 37 46.0005 37 46.0005 37C46.0005 37 46.0005 37 46.0005 37H46.0005C46.0005 37 46.0005 37 46.0005 37C46.0005 37 46.0005 37 46.0005 37H46.0005C46.0005 37 46.0005 37 46.0005 37C46.0005 37 46.0005 37 46.0005 37H46.0005C46.0005 37 46.0005 37 46.0005 37C46.0005 37 46.0005 37 46.0005 37H46.0005C46.0005 37 46.0005 37 46.0005 37C46.0005 37 46.0005 37 46.0005 37H46.0005C46.0005 37 46.0005 37 46.0005 37C46.0005 37 46.0005 37 46.0005 37H46.0005C46.0005 37 46.0005 37 46.0005 37C46.0005 37 46.0005 37 46.0005 37H46.0004C46.0004 37 46.0004 37 46.0004 37C46.0004 37 46.0004 37 46.0004 37H46.0004C46.0004 37 46.0004 37 46.0004 37C46.0004 37 46.0004 37 46.0004 37H46.0004C46.0004 37 46.0004 37 46.0004 37C46.0004 37 46.0004 37 46.0004 37H46.0004C46.0004 37 46.0004 37 46.0004 37C46.0004 37 46.0004 37 46.0004 37H46.0004C46.0004 37 46.0004 37 46.0004 37C46.0004 37 46.0004 37 46.0004 37H46.0004C46.0004 37 46.0004 37 46.0004 37C46.0004 37 46.0004 37 46.0004 37H46.0004C46.0004 37 46.0004 37 46.0004 37C46.0004 37 46.0004 37 46.0004 37H46.0004C46.0004 37 46.0004 37 46.0004 37C46.0004 37 46.0004 37 46.0004 37H46.0004C46.0004 37 46.0004 37 46.0004 37C46.0004 37 46.0004 37 46.0004 37H46.0004C46.0004 37 46.0004 37 46.0004 37C46.0004 37 46.0004 37 46.0004 37H46.0004C46.0004 37 46.0004 37 46.0004 37C46.0004 37 46.0004 37 46.0004 37H46.0004C46.0004 37 46.0004 37 46.0004 37C46.0004 37 46.0004 37 46.0004 37H46.0004C46.0004 37 46.0004 37 46.0004 37C46.0004 37 46.0004 37 46.0004 37H46.0003C46.0003 37 46.0003 37 46.0003 37C46.0003 37 46.0003 37 46.0003 37H46.0003C46.0003 37 46.0003 37 46.0003 37C46.0003 37 46.0003 37 46.0003 37H46.0003C46.0003 37 46.0003 37 46.0003 37C46.0003 37 46.0003 37 46.0003 37H46.0003C46.0003 37 46.0003 37 46.0003 37C46.0003 37 46.0003 37 46.0003 37H46.0003C46.0003 37 46.0003 37 46.0003 37C46.0003 37 46.0003 37 46.0003 37H46.0003C46.0003 37 46.0003 37 46.0003 37C46.0003 37 46.0003 37 46.0003 37H46.0003C46.0003 37 46.0003 37 46.0003 37C46.0003 37 46.0003 37 46.0003 37H46.0003C46.0003 37 46.0003 37 46.0003 37C46.0003 37 46.0003 37 46.0003 37H46.0003C46.0003 37 46.0003 37 46.0003 37C46.0003 37 46.0003 37 46.0003 37H46.0003C46.0003 37 46.0003 37 46.0003 37C46.0003 37 46.0003 37 46.0003 37H46.0003C46.0003 37 46.0003 37 46.0003 37C46.0003 37 46.0003 37 46.0003 37H46.0003C46.0003 37 46.0003 37 46.0003 37C46.0003 37 46.0003 37 46.0003 37H46.0003C46.0003 37 46.0003 37 46.0003 37C46.0003 37 46.0003 37 46.0003 37H46.0002C46.0002 37 46.0002 37 46.0002 37C46.0002 37 46.0002 37 46.0002 37H46.0002C46.0002 37 46.0002 37 46.0002 37C46.0002 37 46.0002 37 46.0002 37H46.0002C46.0002 37 46.0002 37 46.0002 37C46.0002 37 46.0002 37 46.0002 37H46.0002C46.0002 37 46.0002 37 46.0002 37C46.0002 37 46.0002 37 46.0002 37H46.0002C46.0002 37 46.0002 37 46.0002 37C46.0002 37 46.0002 37 46.0002 37H46.0002C46.0002 37 46.0002 37 46.0002 37C46.0002 37 46.0002 37 46.0002 37H46.0002C46.0002 37 46.0002 37 46.0002 37C46.0002 37 46.0002 37 46.0002 37H46.0002C46.0002 37 46.0002 37 46.0002 37C46.0002 37 46.0002 37 46.0002 37H46.0002C46.0002 37 46.0002 37 46.0002 37C46.0002 37 46.0002 37 46.0002 37H46.0002C46.0002 37 46.0002 37 46.0002 37C46.0002 37 46.0002 37 46.0002 37H46.0002C46.0002 37 46.0002 37 46.0002 37C46.0002 37 46.0002 37 46.0002 37H46.0002C46.0002 37 46.0002 37 46.0002 37C46.0002 37 46.0002 37 46.0002 37H46.0002C46.0002 37 46.0002 37 46.0002 37C46.0002 37 46.0002 37 46.0002 37H46.0002C46.0001 37 46.0001 37 46.0001 37C46.0001 37 46.0001 37 46.0001 37H46.0001C46.0001 37 46.0001 37 46.0001 37C46.0001 37 46.0001 37 46.0001 37H46.0001C46.0001 37 46.0001 37 46.0001 37C46.0001 37 46.0001 37 46.0001 37H46.0001C46.0001 37 46.0001 37 46.0001 37C46.0001 37 46.0001 37 46.0001 37H46.0001C46.0001 37 46.0001 37 46.0001 37C46.0001 37 46.0001 37 46.0001 37H46.0001C46.0001 37 46.0001 37 46.0001 37C46.0001 37 46.0001 37 46.0001 37H46.0001C46.0001 37 46.0001 37 46.0001 37C46.0001 37 46.0001 37 46.0001 37H46.0001C46.0001 37 46.0001 37 46.0001 37C46.0001 37 46.0001 37 46.0001 37H46.0001C46.0001 37 46.0001 37 46.0001 37C46.0001 37 46.0001 37 46.0001 37H46.0001C46.0001 37 46.0001 37 46.0001 37C46.0001 37 46.0001 37 46.0001 37H46.0001C46.0001 37 46.0001 37 46.0001 37C46.0001 37 46.0001 37 46.0001 37H46.0001C46.0001 37 46.0001 37 46.0001 37C46.0001 37 46.0001 37 46.0001 37H46.0001C46.0001 37 46.0001 37 46.0001 37H46.0001H46.0001C46 37 46 37 46 37H46H46C46 37 46 37 46 37H46H46C46 37 46 37 46 37H46H46C46 37 46 37 46 37H46H46C46 37 46 37 46 37H46H46C46 37 46 37 46 37H46H46C46 37 46 37 46 37H46V41H46C46 41 46 41 46 41H46H46C46 41 46 41 46 41H46H46C46 41 46 41 46 41H46H46C46 41 46 41 46 41H46H46C46 41 46 41 46 41H46H46C46 41 46 41 46 41H46H46C46 41 46 41 46.0001 41H46.0001H46.0001C46.0001 41 46.0001 41 46.0001 41H46.0001C46.0001 41 46.0001 41 46.0001 41C46.0001 41 46.0001 41 46.0001 41H46.0001C46.0001 41 46.0001 41 46.0001 41C46.0001 41 46.0001 41 46.0001 41H46.0001C46.0001 41 46.0001 41 46.0001 41C46.0001 41 46.0001 41 46.0001 41H46.0001C46.0001 41 46.0001 41 46.0001 41C46.0001 41 46.0001 41 46.0001 41H46.0001C46.0001 41 46.0001 41 46.0001 41C46.0001 41 46.0001 41 46.0001 41H46.0001C46.0001 41 46.0001 41 46.0001 41C46.0001 41 46.0001 41 46.0001 41H46.0001C46.0001 41 46.0001 41 46.0001 41C46.0001 41 46.0001 41 46.0001 41H46.0001C46.0001 41 46.0001 41 46.0001 41C46.0001 41 46.0001 41 46.0001 41H46.0001C46.0001 41 46.0001 41 46.0001 41C46.0001 41 46.0001 41 46.0001 41H46.0001C46.0001 41 46.0001 41 46.0001 41C46.0001 41 46.0001 41 46.0001 41H46.0001C46.0001 41 46.0001 41 46.0001 41C46.0001 41 46.0001 41 46.0001 41H46.0001C46.0001 41 46.0001 41 46.0001 41C46.0001 41 46.0001 41 46.0002 41H46.0002C46.0002 41 46.0002 41 46.0002 41C46.0002 41 46.0002 41 46.0002 41H46.0002C46.0002 41 46.0002 41 46.0002 41C46.0002 41 46.0002 41 46.0002 41H46.0002C46.0002 41 46.0002 41 46.0002 41C46.0002 41 46.0002 41 46.0002 41H46.0002C46.0002 41 46.0002 41 46.0002 41C46.0002 41 46.0002 41 46.0002 41H46.0002C46.0002 41 46.0002 41 46.0002 41C46.0002 41 46.0002 41 46.0002 41H46.0002C46.0002 41 46.0002 41 46.0002 41C46.0002 41 46.0002 41 46.0002 41H46.0002C46.0002 41 46.0002 41 46.0002 41C46.0002 41 46.0002 41 46.0002 41H46.0002C46.0002 41 46.0002 41 46.0002 41C46.0002 41 46.0002 41 46.0002 41H46.0002C46.0002 41 46.0002 41 46.0002 41C46.0002 41 46.0002 41 46.0002 41H46.0002C46.0002 41 46.0002 41 46.0002 41C46.0002 41 46.0002 41 46.0002 41H46.0002C46.0002 41 46.0002 41 46.0002 41C46.0002 41 46.0002 41 46.0002 41H46.0002C46.0002 41 46.0002 41 46.0002 41C46.0002 41 46.0002 41 46.0002 41H46.0002C46.0002 41 46.0002 41 46.0002 41C46.0002 41 46.0002 41 46.0002 41H46.0003C46.0003 41 46.0003 41 46.0003 41C46.0003 41 46.0003 41 46.0003 41H46.0003C46.0003 41 46.0003 41 46.0003 41C46.0003 41 46.0003 41 46.0003 41H46.0003C46.0003 41 46.0003 41 46.0003 41C46.0003 41 46.0003 41 46.0003 41H46.0003C46.0003 41 46.0003 41 46.0003 41C46.0003 41 46.0003 41 46.0003 41H46.0003C46.0003 41 46.0003 41 46.0003 41C46.0003 41 46.0003 41 46.0003 41H46.0003C46.0003 41 46.0003 41 46.0003 41C46.0003 41 46.0003 41 46.0003 41H46.0003C46.0003 41 46.0003 41 46.0003 41C46.0003 41 46.0003 41 46.0003 41H46.0003C46.0003 41 46.0003 41 46.0003 41C46.0003 41 46.0003 41 46.0003 41H46.0003C46.0003 41 46.0003 41 46.0003 41C46.0003 41 46.0003 41 46.0003 41H46.0003C46.0003 41 46.0003 41 46.0003 41C46.0003 41 46.0003 41 46.0003 41H46.0003C46.0003 41 46.0003 41 46.0003 41C46.0003 41 46.0003 41 46.0003 41H46.0003C46.0003 41 46.0003 41 46.0003 41C46.0003 41 46.0003 41 46.0003 41H46.0003C46.0003 41 46.0003 41 46.0003 41C46.0003 41 46.0003 41 46.0003 41H46.0004C46.0004 41 46.0004 41 46.0004 41C46.0004 41 46.0004 41 46.0004 41H46.0004C46.0004 41 46.0004 41 46.0004 41C46.0004 41 46.0004 41 46.0004 41H46.0004C46.0004 41 46.0004 41 46.0004 41C46.0004 41 46.0004 41 46.0004 41H46.0004C46.0004 41 46.0004 41 46.0004 41C46.0004 41 46.0004 41 46.0004 41H46.0004C46.0004 41 46.0004 41 46.0004 41C46.0004 41 46.0004 41 46.0004 41H46.0004C46.0004 41 46.0004 41 46.0004 41C46.0004 41 46.0004 41 46.0004 41H46.0004C46.0004 41 46.0004 41 46.0004 41C46.0004 41 46.0004 41 46.0004 41H46.0004C46.0004 41 46.0004 41 46.0004 41C46.0004 41 46.0004 41 46.0004 41H46.0004C46.0004 41 46.0004 41 46.0004 41C46.0004 41 46.0004 41 46.0004 41H46.0004C46.0004 41 46.0004 41 46.0004 41C46.0004 41 46.0004 41 46.0004 41H46.0004C46.0004 41 46.0004 41 46.0004 41C46.0004 41 46.0004 41 46.0004 41H46.0004C46.0004 41 46.0004 41 46.0004 41C46.0004 41 46.0004 41 46.0004 41H46.0004C46.0004 41 46.0004 41 46.0004 41C46.0004 41 46.0004 41 46.0004 41H46.0005C46.0005 41 46.0005 41 46.0005 41C46.0005 41 46.0005 41 46.0005 41H46.0005C46.0005 41 46.0005 41 46.0005 41C46.0005 41 46.0005 41 46.0005 41H46.0005C46.0005 41 46.0005 41 46.0005 41C46.0005 41 46.0005 41 46.0005 41H46.0005C46.0005 41 46.0005 41 46.0005 41C46.0005 41 46.0005 41 46.0005 41H46.0005C46.0005 41 46.0005 41 46.0005 41C46.0005 41 46.0005 41 46.0005 41H46.0005C46.0005 41 46.0005 41 46.0005 41C46.0005 41 46.0005 41 46.0005 41H46.0005C46.0005 41 46.0005 41 46.0005 41C46.0005 41 46.0005 41 46.0005 41H46.0005C46.0005 41 46.0005 41 46.0005 41C46.0005 41 46.0005 41 46.0005 41H46.0005C46.0005 41 46.0005 41 46.0005 41C46.0005 41 46.0005 41 46.0005 41H46.0005C46.0005 41 46.0005 41 46.0005 41C46.0005 41 46.0005 41 46.0005 41H46.0005C46.0005 41 46.0005 41 46.0005 41C46.0005 41 46.0005 41 46.0005 41H46.0005C46.0005 41 46.0005 41 46.0005 41C46.0005 41 46.0005 41 46.0005 41H46.0005C46.0005 41 46.0005 41 46.0005 41C46.0005 41 46.0005 41 46.0005 41H46.0005C46.0006 41 46.0006 41 46.0006 41C46.0006 41 46.0006 41 46.0006 41H46.0006C46.0006 41 46.0006 41 46.0006 41C46.0006 41 46.0006 41 46.0006 41H46.0006C46.0006 41 46.0006 41 46.0006 41C46.0006 41 46.0006 41 46.0006 41H46.0006C46.0006 41 46.0006 41 46.0006 41C46.0006 41 46.0006 41 46.0006 41H46.0006C46.0006 41 46.0006 41 46.0006 41C46.0006 41 46.0006 41 46.0006 41H46.0006C46.0006 41 46.0006 41 46.0006 41C46.0006 41 46.0006 41 46.0006 41H46.0006C46.0006 41 46.0006 41 46.0006 41C46.0006 41 46.0006 41 46.0006 41H46.0006C46.0006 41 46.0006 41 46.0006 41C46.0006 41 46.0006 41 46.0006 41H46.0006C46.0006 41 46.0006 41 46.0006 41C46.0006 41 46.0006 41 46.0006 41H46.0006C46.0006 41 46.0006 41 46.0006 41C46.0006 41 46.0006 41 46.0006 41H46.0006C46.0006 41 46.0006 41 46.0006 41C46.0006 41 46.0006 41 46.0006 41H46.0006C46.0006 41 46.0006 41 46.0006 41C46.0006 41 46.0006 41 46.0006 41H46.0006C46.0006 41 46.0006 41 46.0006 41C46.0006 41 46.0006 41 46.0006 41H46.0006C46.0007 41 46.0007 41 46.0007 41C46.0007 41 46.0007 41 46.0007 41H46.0007C46.0007 41 46.0007 41 46.0007 41C46.0007 41 46.0007 41 46.0007 41H46.0007C46.0007 41 46.0007 41 46.0007 41C46.0007 41 46.0007 41 46.0007 41H46.0007C46.0007 41 46.0007 41 46.0007 41C46.0007 41 46.0007 41 46.0007 41H46.0007C46.0007 41 46.0007 41 46.0007 41C46.0007 41 46.0007 41 46.0007 41H46.0007C46.0007 41 46.0007 41 46.0007 41C46.0007 41 46.0007 41 46.0007 41H46.0007C46.0007 41 46.0007 41 46.0007 41C46.0007 41 46.0007 41 46.0007 41H46.0007C46.0007 41 46.0007 41 46.0007 41C46.0007 41 46.0007 41 46.0007 41H46.0007C46.0007 41 46.0007 41 46.0007 41C46.0007 41 46.0007 41 46.0007 41H46.0007C46.0007 41 46.0007 41 46.0007 41C46.0007 41 46.0007 41 46.0007 41H46.0007C46.0007 41 46.0007 41 46.0007 41C46.0007 41 46.0007 41 46.0007 41H46.0007C46.0007 41 46.0007 41 46.0007 41C46.0007 41 46.0007 41 46.0007 41H46.0007C46.0007 41 46.0007 41 46.0007 41C46.0007 41 46.0007 41 46.0007 41H46.0007C46.0007 41 46.0007 41 46.0007 41C46.0008 41 46.0008 41 46.0008 41H46.0008C46.0008 41 46.0008 41 46.0008 41C46.0008 41 46.0008 41 46.0008 41H46.0008C46.0008 41 46.0008 41 46.0008 41C46.0008 41 46.0008 41 46.0008 41H46.0008C46.0008 41 46.0008 41 46.0008 41C46.0008 41 46.0008 41 46.0008 41H46.0008C46.0008 41 46.0008 41 46.0008 41C46.0008 41 46.0008 41 46.0008 41H46.0008C46.0008 41 46.0008 41 46.0008 41C46.0008 41 46.0008 41 46.0008 41H46.0008C46.0008 41 46.0008 41 46.0008 41C46.0008 41 46.0008 41 46.0008 41H46.0008C46.0008 41 46.0008 41 46.0008 41C46.0008 41 46.0008 41 46.0008 41H46.0008C46.0008 41 46.0008 41 46.0008 41C46.0008 41 46.0008 41 46.0008 41H46.0008C46.0008 41 46.0008 41 46.0008 41C46.0008 41 46.0008 41 46.0008 41H46.0008C46.0008 41 46.0008 41 46.0008 41C46.0008 41 46.0008 41 46.0008 41H46.0008C46.0008 41 46.0008 41 46.0008 41C46.0008 41 46.0008 41 46.0008 41H46.0008C46.0008 41 46.0008 41 46.0008 41C46.0008 41 46.0008 41 46.0008 41H46.0008C46.0008 41 46.0008 41 46.0008 41C46.0009 41 46.0009 41 46.0009 41H46.0009C46.0009 41 46.0009 41 46.0009 41C46.0009 41 46.0009 41 46.0009 41H46.0009C46.0009 41 46.0009 41 46.0009 41C46.0009 41 46.0009 41 46.0009 41H46.0009C46.0009 41 46.0009 41 46.0009 41C46.0009 41 46.0009 41 46.0009 41H46.0009C46.0009 41 46.0009 41 46.0009 41C46.0009 41 46.0009 41 46.0009 41H46.0009C46.0009 41 46.0009 41 46.0009 41C46.0009 41 46.0009 41 46.0009 41H46.0009C46.0009 41 46.0009 41 46.0009 41C46.0009 41 46.0009 41 46.0009 41H46.0009C46.0009 41 46.0009 41 46.0009 41C46.0009 41 46.0009 41 46.0009 41H46.0009C46.0009 41 46.0009 41 46.0009 41C46.0009 41 46.0009 41 46.0009 41H46.0009C46.0009 41 46.0009 41 46.0009 41C46.0009 41 46.0009 41 46.0009 41H46.0009C46.0009 41 46.0009 41 46.0009 41C46.0009 41 46.0009 41 46.0009 41H46.0009C46.0009 41 46.0009 41 46.0009 41C46.0009 41 46.0009 41 46.0009 41H46.0009C46.0009 41 46.0009 41 46.0009 41C46.0009 41 46.0009 41 46.0009 41H46.0009C46.0009 41 46.0009 41 46.0009 41C46.0009 41 46.0009 41 46.001 41H46.001C46.001 41 46.001 41 46.001 41C46.001 41 46.001 41 46.001 41H46.001C46.001 41 46.001 41 46.001 41C46.001 41 46.001 41 46.001 41H46.001C46.001 41 46.001 41 46.001 41C46.001 41 46.001 41 46.001 41H46.001C46.001 41 46.001 41 46.001 41C46.001 41 46.001 41 46.001 41H46.001C46.001 41 46.001 41 46.001 41C46.001 41 46.001 41 46.001 41H46.001C46.001 41 46.001 41 46.001 41C46.001 41 46.001 41 46.001 41H46.001C46.001 41 46.001 41 46.001 41C46.001 41 46.001 41 46.001 41H46.001C46.001 41 46.001 41 46.001 41C46.001 41 46.001 41 46.001 41H46.001C46.001 41 46.001 41 46.001 41C46.001 41 46.001 41 46.001 41H46.001C46.001 41 46.001 41 46.001 41C46.001 41 46.001 41 46.001 41H46.001C46.001 41 46.001 41 46.001 41C46.001 41 46.001 41 46.001 41H46.001C46.001 41 46.001 41 46.001 41C46.001 41 46.001 41 46.001 41H46.001C46.001 41 46.001 41 46.001 41C46.001 41 46.001 41 46.0011 41H46.0011C46.0011 41 46.0011 41 46.0011 41C46.0011 41 46.0011 41 46.0011 41H46.0011C46.0011 41 46.0011 41 46.0011 41C46.0011 41 46.0011 41 46.0011 41H46.0011C46.0011 41 46.0011 41 46.0011 41C46.0011 41 46.0011 41 46.0011 41H46.0011C46.0011 41 46.0011 41 46.0011 41C46.0011 41 46.0011 41 46.0011 41H46.0011C46.0011 41 46.0011 41 46.0011 41C46.0011 41 46.0011 41 46.0011 41H46.0011C46.0011 41 46.0011 41 46.0011 41C46.0011 41 46.0011 41 46.0011 41H46.0011C46.0011 41 46.0011 41 46.0011 41C46.0011 41 46.0011 41 46.0011 41H46.0011C46.0011 41 46.0011 41 46.0011 41C46.0011 41 46.0011 41 46.0011 41H46.0011C46.0011 41 46.0011 41 46.0011 41C46.0011 41 46.0011 41 46.0011 41H46.0011C46.0011 41 46.0011 41 46.0011 41C46.0011 41 46.0011 41 46.0011 41H46.0011C46.0011 41 46.0011 41 46.0011 41C46.0011 41 46.0011 41 46.0011 41H46.0011C46.0011 41 46.0011 41 46.0011 41C46.0011 41 46.0011 41 46.0011 41H46.0011C46.0011 41 46.0011 41 46.0011 41C46.0011 41 46.0011 41 46.0012 41H46.0012C46.0012 41 46.0012 41 46.0012 41C46.0012 41 46.0012 41 46.0012 41H46.0012C46.0012 41 46.0012 41 46.0012 41C46.0012 41 46.0012 41 46.0012 41H46.0012C46.0012 41 46.0012 41 46.0012 41C46.0012 41 46.0012 41 46.0012 41H46.0012C46.0012 41 46.0012 41 46.0012 41C46.0012 41 46.0012 41 46.0012 41H46.0012C46.0012 41 46.0012 41 46.0012 41C46.0012 41 46.0012 41 46.0012 41H46.0012C46.0012 41 46.0012 41 46.0012 41C46.0012 41 46.0012 41 46.0012 41H46.0012C46.0012 41 46.0012 41 46.0012 41C46.0012 41 46.0012 41 46.0012 41H46.0012C46.0012 41 46.0012 41 46.0012 41C46.0012 41 46.0012 41 46.0012 41H46.0012C46.0012 41 46.0012 41 46.0012 41C46.0012 41 46.0012 41 46.0012 41H46.0012C46.0012 41 46.0012 41 46.0012 41C46.0012 41 46.0012 41 46.0012 41H46.0012C46.0012 41 46.0012 41 46.0012 41C46.0012 41 46.0012 41 46.0012 41H46.0012C46.0012 41 46.0012 41 46.0012 41C46.0012 41 46.0012 41 46.0012 41H46.0012C46.0012 41 46.0012 41 46.0012 41H46.0012H46.0013C46.0013 41 46.0013 41 46.0013 41H46.0013H46.0013C46.0013 41 46.0013 41 46.0013 41H46.0013H46.0013C46.0013 41 46.0013 41 46.0013 41H46.0013H46.0013C46.0013 41 46.0013 41 46.0013 41H46.0013H46.0013C46.0013 41 46.0013 41 46.0013 41H46.0013H46.0013C46.0013 41 46.0013 41 46.0013 41H46.0013H46.0013C46.0013 41 46.0013 41 46.0013 41H46.0013V37ZM52 31C52 34.3134 49.3142 36.9995 46.001 37L46.0016 41C51.5237 40.9991 56 36.5223 56 31H52ZM46 25C49.3137 25 52 27.6863 52 31H56C56 25.4772 51.5228 21 46 21V25ZM45.5889 25.0138C45.7245 25.0047 45.8616 25 46 25V21C45.7718 21 45.5451 21.0077 45.3202 21.0228L45.5889 25.0138ZM39.3346 21C41.2501 21 42.9005 22.1544 43.6194 23.8135L47.2897 22.2231C45.9595 19.1536 42.9008 17 39.3346 17V21Z" fill="#4252FF" mask="url(#path-1-inside-1)"/>
<mask id="path-3-inside-2" fill="white">
<path fill-rule="evenodd" clip-rule="evenodd" d="M29.3346 27C28.8792 27 28.4345 27.0457 28.0048 27.1327C26.6414 24.6685 24.0156 23 21 23C16.5817 23 13 26.5817 13 31C13 31.1928 13.0068 31.384 13.0202 31.5734C10.0777 32.7551 8 35.6349 8 39C8 42.9644 10.8837 46.2554 14.668 46.8896V47H16H36C36.0004 47 36.0009 47 36.0013 47C40.419 46.9993 44 43.4178 44 39C44 34.5817 40.4183 31 36 31C35.8167 31 35.6348 31.0062 35.4545 31.0183C34.43 28.654 32.0755 27 29.3346 27Z"/>
</mask>
<path fill-rule="evenodd" clip-rule="evenodd" d="M29.3346 27C28.8792 27 28.4345 27.0457 28.0048 27.1327C26.6414 24.6685 24.0156 23 21 23C16.5817 23 13 26.5817 13 31C13 31.1928 13.0068 31.384 13.0202 31.5734C10.0777 32.7551 8 35.6349 8 39C8 42.9644 10.8837 46.2554 14.668 46.8896V47H16H36C36.0004 47 36.0009 47 36.0013 47C40.419 46.9993 44 43.4178 44 39C44 34.5817 40.4183 31 36 31C35.8167 31 35.6348 31.0062 35.4545 31.0183C34.43 28.654 32.0755 27 29.3346 27Z" fill="white"/>
<path d="M28.0048 27.1327L26.2548 28.1009L26.9646 29.3838L28.4016 29.0929L28.0048 27.1327ZM13.0202 31.5734L13.7656 33.4293L15.1182 32.8861L15.0152 31.4321L13.0202 31.5734ZM14.668 46.8896H16.668V45.1969L14.9986 44.9171L14.668 46.8896ZM14.668 47H12.668V49H14.668V47ZM36.0013 47V49H36.0016L36.0013 47ZM35.4545 31.0183L33.6194 31.8135L34.1806 33.1086L35.5889 33.0138L35.4545 31.0183ZM28.4016 29.0929C28.7015 29.0322 29.0133 29 29.3346 29V25C28.7452 25 28.1676 25.0591 27.608 25.1724L28.4016 29.0929ZM21 25C23.259 25 25.2294 26.2476 26.2548 28.1009L29.7548 26.1644C28.0534 23.0894 24.7721 21 21 21V25ZM15 31C15 27.6863 17.6863 25 21 25V21C15.4772 21 11 25.4772 11 31H15ZM15.0152 31.4321C15.0051 31.2897 15 31.1456 15 31H11C11 31.24 11.0085 31.4783 11.0252 31.7146L15.0152 31.4321ZM10 39C10 36.4793 11.555 34.317 13.7656 33.4293L12.2749 29.7174C8.60034 31.1931 6 34.7905 6 39H10ZM14.9986 44.9171C12.1619 44.4417 10 41.9714 10 39H6C6 43.9575 9.60554 48.069 14.3374 48.8621L14.9986 44.9171ZM16.668 47V46.8896H12.668V47H16.668ZM16 45H14.668V49H16V45ZM36 45H16V49H36V45ZM36.0013 45H36.0013C36.0013 45 36.0013 45 36.0013 45H36.0013H36.0013C36.0013 45 36.0013 45 36.0013 45H36.0013H36.0013C36.0013 45 36.0013 45 36.0013 45H36.0013H36.0013C36.0013 45 36.0013 45 36.0013 45H36.0013H36.0013C36.0013 45 36.0013 45 36.0013 45H36.0013H36.0013C36.0013 45 36.0013 45 36.0013 45H36.0013H36.0013C36.0013 45 36.0013 45 36.0013 45H36.0012H36.0012C36.0012 45 36.0012 45 36.0012 45H36.0012C36.0012 45 36.0012 45 36.0012 45C36.0012 45 36.0012 45 36.0012 45H36.0012C36.0012 45 36.0012 45 36.0012 45C36.0012 45 36.0012 45 36.0012 45H36.0012C36.0012 45 36.0012 45 36.0012 45C36.0012 45 36.0012 45 36.0012 45H36.0012C36.0012 45 36.0012 45 36.0012 45C36.0012 45 36.0012 45 36.0012 45H36.0012C36.0012 45 36.0012 45 36.0012 45C36.0012 45 36.0012 45 36.0012 45H36.0012C36.0012 45 36.0012 45 36.0012 45C36.0012 45 36.0012 45 36.0012 45H36.0012C36.0012 45 36.0012 45 36.0012 45C36.0012 45 36.0012 45 36.0012 45H36.0012C36.0012 45 36.0012 45 36.0012 45C36.0012 45 36.0012 45 36.0012 45H36.0012C36.0012 45 36.0012 45 36.0012 45C36.0012 45 36.0012 45 36.0012 45H36.0012C36.0012 45 36.0012 45 36.0012 45C36.0012 45 36.0012 45 36.0012 45H36.0012C36.0012 45 36.0012 45 36.0012 45C36.0012 45 36.0012 45 36.0012 45H36.0012C36.0012 45 36.0012 45 36.0012 45C36.0012 45 36.0012 45 36.0012 45H36.0012C36.0011 45 36.0011 45 36.0011 45C36.0011 45 36.0011 45 36.0011 45H36.0011C36.0011 45 36.0011 45 36.0011 45C36.0011 45 36.0011 45 36.0011 45H36.0011C36.0011 45 36.0011 45 36.0011 45C36.0011 45 36.0011 45 36.0011 45H36.0011C36.0011 45 36.0011 45 36.0011 45C36.0011 45 36.0011 45 36.0011 45H36.0011C36.0011 45 36.0011 45 36.0011 45C36.0011 45 36.0011 45 36.0011 45H36.0011C36.0011 45 36.0011 45 36.0011 45C36.0011 45 36.0011 45 36.0011 45H36.0011C36.0011 45 36.0011 45 36.0011 45C36.0011 45 36.0011 45 36.0011 45H36.0011C36.0011 45 36.0011 45 36.0011 45C36.0011 45 36.0011 45 36.0011 45H36.0011C36.0011 45 36.0011 45 36.0011 45C36.0011 45 36.0011 45 36.0011 45H36.0011C36.0011 45 36.0011 45 36.0011 45C36.0011 45 36.0011 45 36.0011 45H36.0011C36.0011 45 36.0011 45 36.0011 45C36.0011 45 36.0011 45 36.0011 45H36.0011C36.0011 45 36.0011 45 36.0011 45C36.0011 45 36.0011 45 36.0011 45H36.0011C36.0011 45 36.0011 45 36.0011 45C36.0011 45 36.0011 45 36.0011 45H36.0011C36.001 45 36.001 45 36.001 45C36.001 45 36.001 45 36.001 45H36.001C36.001 45 36.001 45 36.001 45C36.001 45 36.001 45 36.001 45H36.001C36.001 45 36.001 45 36.001 45C36.001 45 36.001 45 36.001 45H36.001C36.001 45 36.001 45 36.001 45C36.001 45 36.001 45 36.001 45H36.001C36.001 45 36.001 45 36.001 45C36.001 45 36.001 45 36.001 45H36.001C36.001 45 36.001 45 36.001 45C36.001 45 36.001 45 36.001 45H36.001C36.001 45 36.001 45 36.001 45C36.001 45 36.001 45 36.001 45H36.001C36.001 45 36.001 45 36.001 45C36.001 45 36.001 45 36.001 45H36.001C36.001 45 36.001 45 36.001 45C36.001 45 36.001 45 36.001 45H36.001C36.001 45 36.001 45 36.001 45C36.001 45 36.001 45 36.001 45H36.001C36.001 45 36.001 45 36.001 45C36.001 45 36.001 45 36.001 45H36.001C36.001 45 36.001 45 36.001 45C36.001 45 36.001 45 36.001 45H36.001C36.001 45 36.001 45 36.001 45C36.001 45 36.001 45 36.001 45H36.001C36.0009 45 36.0009 45 36.0009 45C36.0009 45 36.0009 45 36.0009 45H36.0009C36.0009 45 36.0009 45 36.0009 45C36.0009 45 36.0009 45 36.0009 45H36.0009C36.0009 45 36.0009 45 36.0009 45C36.0009 45 36.0009 45 36.0009 45H36.0009C36.0009 45 36.0009 45 36.0009 45C36.0009 45 36.0009 45 36.0009 45H36.0009C36.0009 45 36.0009 45 36.0009 45C36.0009 45 36.0009 45 36.0009 45H36.0009C36.0009 45 36.0009 45 36.0009 45C36.0009 45 36.0009 45 36.0009 45H36.0009C36.0009 45 36.0009 45 36.0009 45C36.0009 45 36.0009 45 36.0009 45H36.0009C36.0009 45 36.0009 45 36.0009 45C36.0009 45 36.0009 45 36.0009 45H36.0009C36.0009 45 36.0009 45 36.0009 45C36.0009 45 36.0009 45 36.0009 45H36.0009C36.0009 45 36.0009 45 36.0009 45C36.0009 45 36.0009 45 36.0009 45H36.0009C36.0009 45 36.0009 45 36.0009 45C36.0009 45 36.0009 45 36.0009 45H36.0009C36.0009 45 36.0009 45 36.0009 45C36.0009 45 36.0009 45 36.0009 45H36.0009C36.0009 45 36.0009 45 36.0009 45C36.0009 45 36.0009 45 36.0009 45H36.0009C36.0009 45 36.0009 45 36.0008 45C36.0008 45 36.0008 45 36.0008 45H36.0008C36.0008 45 36.0008 45 36.0008 45C36.0008 45 36.0008 45 36.0008 45H36.0008C36.0008 45 36.0008 45 36.0008 45C36.0008 45 36.0008 45 36.0008 45H36.0008C36.0008 45 36.0008 45 36.0008 45C36.0008 45 36.0008 45 36.0008 45H36.0008C36.0008 45 36.0008 45 36.0008 45C36.0008 45 36.0008 45 36.0008 45H36.0008C36.0008 45 36.0008 45 36.0008 45C36.0008 45 36.0008 45 36.0008 45H36.0008C36.0008 45 36.0008 45 36.0008 45C36.0008 45 36.0008 45 36.0008 45H36.0008C36.0008 45 36.0008 45 36.0008 45C36.0008 45 36.0008 45 36.0008 45H36.0008C36.0008 45 36.0008 45 36.0008 45C36.0008 45 36.0008 45 36.0008 45H36.0008C36.0008 45 36.0008 45 36.0008 45C36.0008 45 36.0008 45 36.0008 45H36.0008C36.0008 45 36.0008 45 36.0008 45C36.0008 45 36.0008 45 36.0008 45H36.0008C36.0008 45 36.0008 45 36.0008 45C36.0008 45 36.0008 45 36.0008 45H36.0008C36.0008 45 36.0008 45 36.0008 45C36.0008 45 36.0008 45 36.0008 45H36.0008C36.0008 45 36.0008 45 36.0007 45C36.0007 45 36.0007 45 36.0007 45H36.0007C36.0007 45 36.0007 45 36.0007 45C36.0007 45 36.0007 45 36.0007 45H36.0007C36.0007 45 36.0007 45 36.0007 45C36.0007 45 36.0007 45 36.0007 45H36.0007C36.0007 45 36.0007 45 36.0007 45C36.0007 45 36.0007 45 36.0007 45H36.0007C36.0007 45 36.0007 45 36.0007 45C36.0007 45 36.0007 45 36.0007 45H36.0007C36.0007 45 36.0007 45 36.0007 45C36.0007 45 36.0007 45 36.0007 45H36.0007C36.0007 45 36.0007 45 36.0007 45C36.0007 45 36.0007 45 36.0007 45H36.0007C36.0007 45 36.0007 45 36.0007 45C36.0007 45 36.0007 45 36.0007 45H36.0007C36.0007 45 36.0007 45 36.0007 45C36.0007 45 36.0007 45 36.0007 45H36.0007C36.0007 45 36.0007 45 36.0007 45C36.0007 45 36.0007 45 36.0007 45H36.0007C36.0007 45 36.0007 45 36.0007 45C36.0007 45 36.0007 45 36.0007 45H36.0007C36.0007 45 36.0007 45 36.0007 45C36.0007 45 36.0007 45 36.0007 45H36.0007C36.0007 45 36.0007 45 36.0007 45C36.0007 45 36.0007 45 36.0007 45H36.0007C36.0007 45 36.0007 45 36.0007 45C36.0007 45 36.0007 45 36.0006 45H36.0006C36.0006 45 36.0006 45 36.0006 45C36.0006 45 36.0006 45 36.0006 45H36.0006C36.0006 45 36.0006 45 36.0006 45C36.0006 45 36.0006 45 36.0006 45H36.0006C36.0006 45 36.0006 45 36.0006 45C36.0006 45 36.0006 45 36.0006 45H36.0006C36.0006 45 36.0006 45 36.0006 45C36.0006 45 36.0006 45 36.0006 45H36.0006C36.0006 45 36.0006 45 36.0006 45C36.0006 45 36.0006 45 36.0006 45H36.0006C36.0006 45 36.0006 45 36.0006 45C36.0006 45 36.0006 45 36.0006 45H36.0006C36.0006 45 36.0006 45 36.0006 45C36.0006 45 36.0006 45 36.0006 45H36.0006C36.0006 45 36.0006 45 36.0006 45C36.0006 45 36.0006 45 36.0006 45H36.0006C36.0006 45 36.0006 45 36.0006 45C36.0006 45 36.0006 45 36.0006 45H36.0006C36.0006 45 36.0006 45 36.0006 45C36.0006 45 36.0006 45 36.0006 45H36.0006C36.0006 45 36.0006 45 36.0006 45C36.0006 45 36.0006 45 36.0006 45H36.0006C36.0006 45 36.0006 45 36.0006 45C36.0006 45 36.0006 45 36.0006 45H36.0006C36.0006 45 36.0006 45 36.0006 45C36.0006 45 36.0006 45 36.0005 45H36.0005C36.0005 45 36.0005 45 36.0005 45C36.0005 45 36.0005 45 36.0005 45H36.0005C36.0005 45 36.0005 45 36.0005 45C36.0005 45 36.0005 45 36.0005 45H36.0005C36.0005 45 36.0005 45 36.0005 45C36.0005 45 36.0005 45 36.0005 45H36.0005C36.0005 45 36.0005 45 36.0005 45C36.0005 45 36.0005 45 36.0005 45H36.0005C36.0005 45 36.0005 45 36.0005 45C36.0005 45 36.0005 45 36.0005 45H36.0005C36.0005 45 36.0005 45 36.0005 45C36.0005 45 36.0005 45 36.0005 45H36.0005C36.0005 45 36.0005 45 36.0005 45C36.0005 45 36.0005 45 36.0005 45H36.0005C36.0005 45 36.0005 45 36.0005 45C36.0005 45 36.0005 45 36.0005 45H36.0005C36.0005 45 36.0005 45 36.0005 45C36.0005 45 36.0005 45 36.0005 45H36.0005C36.0005 45 36.0005 45 36.0005 45C36.0005 45 36.0005 45 36.0005 45H36.0005C36.0005 45 36.0005 45 36.0005 45C36.0005 45 36.0005 45 36.0005 45H36.0005C36.0005 45 36.0005 45 36.0005 45C36.0005 45 36.0005 45 36.0005 45H36.0005C36.0005 45 36.0005 45 36.0005 45C36.0005 45 36.0005 45 36.0005 45H36.0004C36.0004 45 36.0004 45 36.0004 45C36.0004 45 36.0004 45 36.0004 45H36.0004C36.0004 45 36.0004 45 36.0004 45C36.0004 45 36.0004 45 36.0004 45H36.0004C36.0004 45 36.0004 45 36.0004 45C36.0004 45 36.0004 45 36.0004 45H36.0004C36.0004 45 36.0004 45 36.0004 45C36.0004 45 36.0004 45 36.0004 45H36.0004C36.0004 45 36.0004 45 36.0004 45C36.0004 45 36.0004 45 36.0004 45H36.0004C36.0004 45 36.0004 45 36.0004 45C36.0004 45 36.0004 45 36.0004 45H36.0004C36.0004 45 36.0004 45 36.0004 45C36.0004 45 36.0004 45 36.0004 45H36.0004C36.0004 45 36.0004 45 36.0004 45C36.0004 45 36.0004 45 36.0004 45H36.0004C36.0004 45 36.0004 45 36.0004 45C36.0004 45 36.0004 45 36.0004 45H36.0004C36.0004 45 36.0004 45 36.0004 45C36.0004 45 36.0004 45 36.0004 45H36.0004C36.0004 45 36.0004 45 36.0004 45C36.0004 45 36.0004 45 36.0004 45H36.0004C36.0004 45 36.0004 45 36.0004 45C36.0004 45 36.0004 45 36.0004 45H36.0004C36.0004 45 36.0004 45 36.0004 45C36.0004 45 36.0004 45 36.0004 45H36.0003C36.0003 45 36.0003 45 36.0003 45C36.0003 45 36.0003 45 36.0003 45H36.0003C36.0003 45 36.0003 45 36.0003 45C36.0003 45 36.0003 45 36.0003 45H36.0003C36.0003 45 36.0003 45 36.0003 45C36.0003 45 36.0003 45 36.0003 45H36.0003C36.0003 45 36.0003 45 36.0003 45C36.0003 45 36.0003 45 36.0003 45H36.0003C36.0003 45 36.0003 45 36.0003 45C36.0003 45 36.0003 45 36.0003 45H36.0003C36.0003 45 36.0003 45 36.0003 45C36.0003 45 36.0003 45 36.0003 45H36.0003C36.0003 45 36.0003 45 36.0003 45C36.0003 45 36.0003 45 36.0003 45H36.0003C36.0003 45 36.0003 45 36.0003 45C36.0003 45 36.0003 45 36.0003 45H36.0003C36.0003 45 36.0003 45 36.0003 45C36.0003 45 36.0003 45 36.0003 45H36.0003C36.0003 45 36.0003 45 36.0003 45C36.0003 45 36.0003 45 36.0003 45H36.0003C36.0003 45 36.0003 45 36.0003 45C36.0003 45 36.0003 45 36.0003 45H36.0003C36.0003 45 36.0003 45 36.0003 45C36.0003 45 36.0003 45 36.0003 45H36.0003C36.0003 45 36.0003 45 36.0003 45C36.0003 45 36.0003 45 36.0003 45H36.0002C36.0002 45 36.0002 45 36.0002 45C36.0002 45 36.0002 45 36.0002 45H36.0002C36.0002 45 36.0002 45 36.0002 45C36.0002 45 36.0002 45 36.0002 45H36.0002C36.0002 45 36.0002 45 36.0002 45C36.0002 45 36.0002 45 36.0002 45H36.0002C36.0002 45 36.0002 45 36.0002 45C36.0002 45 36.0002 45 36.0002 45H36.0002C36.0002 45 36.0002 45 36.0002 45C36.0002 45 36.0002 45 36.0002 45H36.0002C36.0002 45 36.0002 45 36.0002 45C36.0002 45 36.0002 45 36.0002 45H36.0002C36.0002 45 36.0002 45 36.0002 45C36.0002 45 36.0002 45 36.0002 45H36.0002C36.0002 45 36.0002 45 36.0002 45C36.0002 45 36.0002 45 36.0002 45H36.0002C36.0002 45 36.0002 45 36.0002 45C36.0002 45 36.0002 45 36.0002 45H36.0002C36.0002 45 36.0002 45 36.0002 45C36.0002 45 36.0002 45 36.0002 45H36.0002C36.0002 45 36.0002 45 36.0002 45C36.0002 45 36.0002 45 36.0002 45H36.0002C36.0002 45 36.0002 45 36.0002 45C36.0002 45 36.0002 45 36.0002 45H36.0002C36.0002 45 36.0002 45 36.0002 45C36.0002 45 36.0002 45 36.0002 45H36.0002C36.0001 45 36.0001 45 36.0001 45C36.0001 45 36.0001 45 36.0001 45H36.0001C36.0001 45 36.0001 45 36.0001 45C36.0001 45 36.0001 45 36.0001 45H36.0001C36.0001 45 36.0001 45 36.0001 45C36.0001 45 36.0001 45 36.0001 45H36.0001C36.0001 45 36.0001 45 36.0001 45C36.0001 45 36.0001 45 36.0001 45H36.0001C36.0001 45 36.0001 45 36.0001 45C36.0001 45 36.0001 45 36.0001 45H36.0001C36.0001 45 36.0001 45 36.0001 45C36.0001 45 36.0001 45 36.0001 45H36.0001C36.0001 45 36.0001 45 36.0001 45C36.0001 45 36.0001 45 36.0001 45H36.0001C36.0001 45 36.0001 45 36.0001 45C36.0001 45 36.0001 45 36.0001 45H36.0001C36.0001 45 36.0001 45 36.0001 45C36.0001 45 36.0001 45 36.0001 45H36.0001C36.0001 45 36.0001 45 36.0001 45C36.0001 45 36.0001 45 36.0001 45H36.0001C36.0001 45 36.0001 45 36.0001 45C36.0001 45 36.0001 45 36.0001 45H36.0001C36.0001 45 36.0001 45 36.0001 45C36.0001 45 36.0001 45 36.0001 45H36.0001C36.0001 45 36.0001 45 36.0001 45H36.0001H36.0001C36 45 36 45 36 45H36H36C36 45 36 45 36 45H36H36C36 45 36 45 36 45H36H36C36 45 36 45 36 45H36H36C36 45 36 45 36 45H36H36C36 45 36 45 36 45H36H36C36 45 36 45 36 45H36V49H36C36 49 36 49 36 49H36H36C36 49 36 49 36 49H36H36C36 49 36 49 36 49H36H36C36 49 36 49 36 49H36H36C36 49 36 49 36 49H36H36C36 49 36 49 36 49H36H36C36 49 36 49 36.0001 49H36.0001H36.0001C36.0001 49 36.0001 49 36.0001 49H36.0001C36.0001 49 36.0001 49 36.0001 49C36.0001 49 36.0001 49 36.0001 49H36.0001C36.0001 49 36.0001 49 36.0001 49C36.0001 49 36.0001 49 36.0001 49H36.0001C36.0001 49 36.0001 49 36.0001 49C36.0001 49 36.0001 49 36.0001 49H36.0001C36.0001 49 36.0001 49 36.0001 49C36.0001 49 36.0001 49 36.0001 49H36.0001C36.0001 49 36.0001 49 36.0001 49C36.0001 49 36.0001 49 36.0001 49H36.0001C36.0001 49 36.0001 49 36.0001 49C36.0001 49 36.0001 49 36.0001 49H36.0001C36.0001 49 36.0001 49 36.0001 49C36.0001 49 36.0001 49 36.0001 49H36.0001C36.0001 49 36.0001 49 36.0001 49C36.0001 49 36.0001 49 36.0001 49H36.0001C36.0001 49 36.0001 49 36.0001 49C36.0001 49 36.0001 49 36.0001 49H36.0001C36.0001 49 36.0001 49 36.0001 49C36.0001 49 36.0001 49 36.0001 49H36.0001C36.0001 49 36.0001 49 36.0001 49C36.0001 49 36.0001 49 36.0001 49H36.0001C36.0001 49 36.0001 49 36.0001 49C36.0001 49 36.0001 49 36.0002 49H36.0002C36.0002 49 36.0002 49 36.0002 49C36.0002 49 36.0002 49 36.0002 49H36.0002C36.0002 49 36.0002 49 36.0002 49C36.0002 49 36.0002 49 36.0002 49H36.0002C36.0002 49 36.0002 49 36.0002 49C36.0002 49 36.0002 49 36.0002 49H36.0002C36.0002 49 36.0002 49 36.0002 49C36.0002 49 36.0002 49 36.0002 49H36.0002C36.0002 49 36.0002 49 36.0002 49C36.0002 49 36.0002 49 36.0002 49H36.0002C36.0002 49 36.0002 49 36.0002 49C36.0002 49 36.0002 49 36.0002 49H36.0002C36.0002 49 36.0002 49 36.0002 49C36.0002 49 36.0002 49 36.0002 49H36.0002C36.0002 49 36.0002 49 36.0002 49C36.0002 49 36.0002 49 36.0002 49H36.0002C36.0002 49 36.0002 49 36.0002 49C36.0002 49 36.0002 49 36.0002 49H36.0002C36.0002 49 36.0002 49 36.0002 49C36.0002 49 36.0002 49 36.0002 49H36.0002C36.0002 49 36.0002 49 36.0002 49C36.0002 49 36.0002 49 36.0002 49H36.0002C36.0002 49 36.0002 49 36.0002 49C36.0002 49 36.0002 49 36.0002 49H36.0002C36.0002 49 36.0002 49 36.0002 49C36.0002 49 36.0002 49 36.0002 49H36.0003C36.0003 49 36.0003 49 36.0003 49C36.0003 49 36.0003 49 36.0003 49H36.0003C36.0003 49 36.0003 49 36.0003 49C36.0003 49 36.0003 49 36.0003 49H36.0003C36.0003 49 36.0003 49 36.0003 49C36.0003 49 36.0003 49 36.0003 49H36.0003C36.0003 49 36.0003 49 36.0003 49C36.0003 49 36.0003 49 36.0003 49H36.0003C36.0003 49 36.0003 49 36.0003 49C36.0003 49 36.0003 49 36.0003 49H36.0003C36.0003 49 36.0003 49 36.0003 49C36.0003 49 36.0003 49 36.0003 49H36.0003C36.0003 49 36.0003 49 36.0003 49C36.0003 49 36.0003 49 36.0003 49H36.0003C36.0003 49 36.0003 49 36.0003 49C36.0003 49 36.0003 49 36.0003 49H36.0003C36.0003 49 36.0003 49 36.0003 49C36.0003 49 36.0003 49 36.0003 49H36.0003C36.0003 49 36.0003 49 36.0003 49C36.0003 49 36.0003 49 36.0003 49H36.0003C36.0003 49 36.0003 49 36.0003 49C36.0003 49 36.0003 49 36.0003 49H36.0003C36.0003 49 36.0003 49 36.0003 49C36.0003 49 36.0003 49 36.0003 49H36.0003C36.0003 49 36.0003 49 36.0003 49C36.0003 49 36.0003 49 36.0003 49H36.0004C36.0004 49 36.0004 49 36.0004 49C36.0004 49 36.0004 49 36.0004 49H36.0004C36.0004 49 36.0004 49 36.0004 49C36.0004 49 36.0004 49 36.0004 49H36.0004C36.0004 49 36.0004 49 36.0004 49C36.0004 49 36.0004 49 36.0004 49H36.0004C36.0004 49 36.0004 49 36.0004 49C36.0004 49 36.0004 49 36.0004 49H36.0004C36.0004 49 36.0004 49 36.0004 49C36.0004 49 36.0004 49 36.0004 49H36.0004C36.0004 49 36.0004 49 36.0004 49C36.0004 49 36.0004 49 36.0004 49H36.0004C36.0004 49 36.0004 49 36.0004 49C36.0004 49 36.0004 49 36.0004 49H36.0004C36.0004 49 36.0004 49 36.0004 49C36.0004 49 36.0004 49 36.0004 49H36.0004C36.0004 49 36.0004 49 36.0004 49C36.0004 49 36.0004 49 36.0004 49H36.0004C36.0004 49 36.0004 49 36.0004 49C36.0004 49 36.0004 49 36.0004 49H36.0004C36.0004 49 36.0004 49 36.0004 49C36.0004 49 36.0004 49 36.0004 49H36.0004C36.0004 49 36.0004 49 36.0004 49C36.0004 49 36.0004 49 36.0004 49H36.0004C36.0004 49 36.0004 49 36.0004 49C36.0004 49 36.0004 49 36.0004 49H36.0005C36.0005 49 36.0005 49 36.0005 49C36.0005 49 36.0005 49 36.0005 49H36.0005C36.0005 49 36.0005 49 36.0005 49C36.0005 49 36.0005 49 36.0005 49H36.0005C36.0005 49 36.0005 49 36.0005 49C36.0005 49 36.0005 49 36.0005 49H36.0005C36.0005 49 36.0005 49 36.0005 49C36.0005 49 36.0005 49 36.0005 49H36.0005C36.0005 49 36.0005 49 36.0005 49C36.0005 49 36.0005 49 36.0005 49H36.0005C36.0005 49 36.0005 49 36.0005 49C36.0005 49 36.0005 49 36.0005 49H36.0005C36.0005 49 36.0005 49 36.0005 49C36.0005 49 36.0005 49 36.0005 49H36.0005C36.0005 49 36.0005 49 36.0005 49C36.0005 49 36.0005 49 36.0005 49H36.0005C36.0005 49 36.0005 49 36.0005 49C36.0005 49 36.0005 49 36.0005 49H36.0005C36.0005 49 36.0005 49 36.0005 49C36.0005 49 36.0005 49 36.0005 49H36.0005C36.0005 49 36.0005 49 36.0005 49C36.0005 49 36.0005 49 36.0005 49H36.0005C36.0005 49 36.0005 49 36.0005 49C36.0005 49 36.0005 49 36.0005 49H36.0005C36.0005 49 36.0005 49 36.0005 49C36.0005 49 36.0005 49 36.0005 49H36.0005C36.0006 49 36.0006 49 36.0006 49C36.0006 49 36.0006 49 36.0006 49H36.0006C36.0006 49 36.0006 49 36.0006 49C36.0006 49 36.0006 49 36.0006 49H36.0006C36.0006 49 36.0006 49 36.0006 49C36.0006 49 36.0006 49 36.0006 49H36.0006C36.0006 49 36.0006 49 36.0006 49C36.0006 49 36.0006 49 36.0006 49H36.0006C36.0006 49 36.0006 49 36.0006 49C36.0006 49 36.0006 49 36.0006 49H36.0006C36.0006 49 36.0006 49 36.0006 49C36.0006 49 36.0006 49 36.0006 49H36.0006C36.0006 49 36.0006 49 36.0006 49C36.0006 49 36.0006 49 36.0006 49H36.0006C36.0006 49 36.0006 49 36.0006 49C36.0006 49 36.0006 49 36.0006 49H36.0006C36.0006 49 36.0006 49 36.0006 49C36.0006 49 36.0006 49 36.0006 49H36.0006C36.0006 49 36.0006 49 36.0006 49C36.0006 49 36.0006 49 36.0006 49H36.0006C36.0006 49 36.0006 49 36.0006 49C36.0006 49 36.0006 49 36.0006 49H36.0006C36.0006 49 36.0006 49 36.0006 49C36.0006 49 36.0006 49 36.0006 49H36.0006C36.0006 49 36.0006 49 36.0006 49C36.0006 49 36.0006 49 36.0006 49H36.0006C36.0007 49 36.0007 49 36.0007 49C36.0007 49 36.0007 49 36.0007 49H36.0007C36.0007 49 36.0007 49 36.0007 49C36.0007 49 36.0007 49 36.0007 49H36.0007C36.0007 49 36.0007 49 36.0007 49C36.0007 49 36.0007 49 36.0007 49H36.0007C36.0007 49 36.0007 49 36.0007 49C36.0007 49 36.0007 49 36.0007 49H36.0007C36.0007 49 36.0007 49 36.0007 49C36.0007 49 36.0007 49 36.0007 49H36.0007C36.0007 49 36.0007 49 36.0007 49C36.0007 49 36.0007 49 36.0007 49H36.0007C36.0007 49 36.0007 49 36.0007 49C36.0007 49 36.0007 49 36.0007 49H36.0007C36.0007 49 36.0007 49 36.0007 49C36.0007 49 36.0007 49 36.0007 49H36.0007C36.0007 49 36.0007 49 36.0007 49C36.0007 49 36.0007 49 36.0007 49H36.0007C36.0007 49 36.0007 49 36.0007 49C36.0007 49 36.0007 49 36.0007 49H36.0007C36.0007 49 36.0007 49 36.0007 49C36.0007 49 36.0007 49 36.0007 49H36.0007C36.0007 49 36.0007 49 36.0007 49C36.0007 49 36.0007 49 36.0007 49H36.0007C36.0007 49 36.0007 49 36.0007 49C36.0007 49 36.0007 49 36.0007 49H36.0007C36.0007 49 36.0007 49 36.0007 49C36.0008 49 36.0008 49 36.0008 49H36.0008C36.0008 49 36.0008 49 36.0008 49C36.0008 49 36.0008 49 36.0008 49H36.0008C36.0008 49 36.0008 49 36.0008 49C36.0008 49 36.0008 49 36.0008 49H36.0008C36.0008 49 36.0008 49 36.0008 49C36.0008 49 36.0008 49 36.0008 49H36.0008C36.0008 49 36.0008 49 36.0008 49C36.0008 49 36.0008 49 36.0008 49H36.0008C36.0008 49 36.0008 49 36.0008 49C36.0008 49 36.0008 49 36.0008 49H36.0008C36.0008 49 36.0008 49 36.0008 49C36.0008 49 36.0008 49 36.0008 49H36.0008C36.0008 49 36.0008 49 36.0008 49C36.0008 49 36.0008 49 36.0008 49H36.0008C36.0008 49 36.0008 49 36.0008 49C36.0008 49 36.0008 49 36.0008 49H36.0008C36.0008 49 36.0008 49 36.0008 49C36.0008 49 36.0008 49 36.0008 49H36.0008C36.0008 49 36.0008 49 36.0008 49C36.0008 49 36.0008 49 36.0008 49H36.0008C36.0008 49 36.0008 49 36.0008 49C36.0008 49 36.0008 49 36.0008 49H36.0008C36.0008 49 36.0008 49 36.0008 49C36.0008 49 36.0008 49 36.0008 49H36.0008C36.0008 49 36.0008 49 36.0008 49C36.0009 49 36.0009 49 36.0009 49H36.0009C36.0009 49 36.0009 49 36.0009 49C36.0009 49 36.0009 49 36.0009 49H36.0009C36.0009 49 36.0009 49 36.0009 49C36.0009 49 36.0009 49 36.0009 49H36.0009C36.0009 49 36.0009 49 36.0009 49C36.0009 49 36.0009 49 36.0009 49H36.0009C36.0009 49 36.0009 49 36.0009 49C36.0009 49 36.0009 49 36.0009 49H36.0009C36.0009 49 36.0009 49 36.0009 49C36.0009 49 36.0009 49 36.0009 49H36.0009C36.0009 49 36.0009 49 36.0009 49C36.0009 49 36.0009 49 36.0009 49H36.0009C36.0009 49 36.0009 49 36.0009 49C36.0009 49 36.0009 49 36.0009 49H36.0009C36.0009 49 36.0009 49 36.0009 49C36.0009 49 36.0009 49 36.0009 49H36.0009C36.0009 49 36.0009 49 36.0009 49C36.0009 49 36.0009 49 36.0009 49H36.0009C36.0009 49 36.0009 49 36.0009 49C36.0009 49 36.0009 49 36.0009 49H36.0009C36.0009 49 36.0009 49 36.0009 49C36.0009 49 36.0009 49 36.0009 49H36.0009C36.0009 49 36.0009 49 36.0009 49C36.0009 49 36.0009 49 36.0009 49H36.0009C36.0009 49 36.0009 49 36.0009 49C36.0009 49 36.0009 49 36.001 49H36.001C36.001 49 36.001 49 36.001 49C36.001 49 36.001 49 36.001 49H36.001C36.001 49 36.001 49 36.001 49C36.001 49 36.001 49 36.001 49H36.001C36.001 49 36.001 49 36.001 49C36.001 49 36.001 49 36.001 49H36.001C36.001 49 36.001 49 36.001 49C36.001 49 36.001 49 36.001 49H36.001C36.001 49 36.001 49 36.001 49C36.001 49 36.001 49 36.001 49H36.001C36.001 49 36.001 49 36.001 49C36.001 49 36.001 49 36.001 49H36.001C36.001 49 36.001 49 36.001 49C36.001 49 36.001 49 36.001 49H36.001C36.001 49 36.001 49 36.001 49C36.001 49 36.001 49 36.001 49H36.001C36.001 49 36.001 49 36.001 49C36.001 49 36.001 49 36.001 49H36.001C36.001 49 36.001 49 36.001 49C36.001 49 36.001 49 36.001 49H36.001C36.001 49 36.001 49 36.001 49C36.001 49 36.001 49 36.001 49H36.001C36.001 49 36.001 49 36.001 49C36.001 49 36.001 49 36.001 49H36.001C36.001 49 36.001 49 36.001 49C36.001 49 36.001 49 36.0011 49H36.0011C36.0011 49 36.0011 49 36.0011 49C36.0011 49 36.0011 49 36.0011 49H36.0011C36.0011 49 36.0011 49 36.0011 49C36.0011 49 36.0011 49 36.0011 49H36.0011C36.0011 49 36.0011 49 36.0011 49C36.0011 49 36.0011 49 36.0011 49H36.0011C36.0011 49 36.0011 49 36.0011 49C36.0011 49 36.0011 49 36.0011 49H36.0011C36.0011 49 36.0011 49 36.0011 49C36.0011 49 36.0011 49 36.0011 49H36.0011C36.0011 49 36.0011 49 36.0011 49C36.0011 49 36.0011 49 36.0011 49H36.0011C36.0011 49 36.0011 49 36.0011 49C36.0011 49 36.0011 49 36.0011 49H36.0011C36.0011 49 36.0011 49 36.0011 49C36.0011 49 36.0011 49 36.0011 49H36.0011C36.0011 49 36.0011 49 36.0011 49C36.0011 49 36.0011 49 36.0011 49H36.0011C36.0011 49 36.0011 49 36.0011 49C36.0011 49 36.0011 49 36.0011 49H36.0011C36.0011 49 36.0011 49 36.0011 49C36.0011 49 36.0011 49 36.0011 49H36.0011C36.0011 49 36.0011 49 36.0011 49C36.0011 49 36.0011 49 36.0011 49H36.0011C36.0011 49 36.0011 49 36.0011 49C36.0011 49 36.0011 49 36.0012 49H36.0012C36.0012 49 36.0012 49 36.0012 49C36.0012 49 36.0012 49 36.0012 49H36.0012C36.0012 49 36.0012 49 36.0012 49C36.0012 49 36.0012 49 36.0012 49H36.0012C36.0012 49 36.0012 49 36.0012 49C36.0012 49 36.0012 49 36.0012 49H36.0012C36.0012 49 36.0012 49 36.0012 49C36.0012 49 36.0012 49 36.0012 49H36.0012C36.0012 49 36.0012 49 36.0012 49C36.0012 49 36.0012 49 36.0012 49H36.0012C36.0012 49 36.0012 49 36.0012 49C36.0012 49 36.0012 49 36.0012 49H36.0012C36.0012 49 36.0012 49 36.0012 49C36.0012 49 36.0012 49 36.0012 49H36.0012C36.0012 49 36.0012 49 36.0012 49C36.0012 49 36.0012 49 36.0012 49H36.0012C36.0012 49 36.0012 49 36.0012 49C36.0012 49 36.0012 49 36.0012 49H36.0012C36.0012 49 36.0012 49 36.0012 49C36.0012 49 36.0012 49 36.0012 49H36.0012C36.0012 49 36.0012 49 36.0012 49C36.0012 49 36.0012 49 36.0012 49H36.0012C36.0012 49 36.0012 49 36.0012 49C36.0012 49 36.0012 49 36.0012 49H36.0012C36.0012 49 36.0012 49 36.0012 49H36.0012H36.0013C36.0013 49 36.0013 49 36.0013 49H36.0013H36.0013C36.0013 49 36.0013 49 36.0013 49H36.0013H36.0013C36.0013 49 36.0013 49 36.0013 49H36.0013H36.0013C36.0013 49 36.0013 49 36.0013 49H36.0013H36.0013C36.0013 49 36.0013 49 36.0013 49H36.0013H36.0013C36.0013 49 36.0013 49 36.0013 49H36.0013H36.0013C36.0013 49 36.0013 49 36.0013 49H36.0013V45ZM42 39C42 42.3134 39.3142 44.9995 36.001 45L36.0016 49C41.5237 48.9991 46 44.5223 46 39H42ZM36 33C39.3137 33 42 35.6863 42 39H46C46 33.4772 41.5228 29 36 29V33ZM35.5889 33.0138C35.7245 33.0047 35.8616 33 36 33V29C35.7718 29 35.5451 29.0077 35.3202 29.0228L35.5889 33.0138ZM29.3346 29C31.2501 29 32.9005 30.1544 33.6194 31.8135L37.2897 30.2231C35.9595 27.1536 32.9008 25 29.3346 25V29Z" fill="#4252FF" mask="url(#path-3-inside-2)"/>
<rect x="23" y="39" width="14" height="2" rx="1" fill="#4252FF"/>
<rect x="14" y="39" width="6" height="2" rx="1" fill="#4252FF"/>
</svg>
