<svg width="48" height="48" viewBox="0 0 48 48" fill="none" xmlns="http://www.w3.org/2000/svg">
<path d="M47.4235 33.7921C46.4635 20.9281 36.1915 10.8481 23.9995 10.8481C11.8075 10.8481 1.53547 20.9281 0.575473 33.7921C0.527473 34.6561 0.815473 35.4721 1.39147 36.1441C1.96747 36.7681 2.78347 37.1521 3.64747 37.1521H44.3515C45.2155 37.1521 46.0315 36.8161 46.6075 36.1441C47.1835 35.5201 47.4715 34.6561 47.4235 33.7921ZM44.6875 34.3201C44.6395 34.3681 44.5435 34.4641 44.3515 34.4641H26.4955L24.4795 28.2241C24.3355 27.7921 23.7115 27.7921 23.5675 28.2241L21.5515 34.4641H3.64747C3.50347 34.4641 3.35947 34.3681 3.31147 34.3201C3.26347 34.2721 3.16747 34.1281 3.21547 33.9841C4.07947 22.5121 13.1995 13.5361 23.9995 13.5361C34.7995 13.5361 43.9195 22.5121 44.7835 34.0321C44.7835 34.1761 44.7355 34.2721 44.6875 34.3201Z" fill="#4252FF"/>
<path d="M24.0002 17.376C23.2802 17.376 22.6562 17.952 22.6562 18.72V20.448C22.6562 21.168 23.2322 21.792 24.0002 21.792C24.7682 21.792 25.3442 21.216 25.3442 20.448V18.72C25.3442 17.952 24.7202 17.376 24.0002 17.376Z" fill="#4252FF"/>
<path d="M35.7093 23.04L34.5093 24.24C33.9813 24.768 33.9813 25.584 34.5093 26.112C34.7493 26.352 35.0853 26.496 35.4213 26.496C35.7573 26.496 36.0933 26.352 36.3333 26.112L37.5333 24.912C38.0613 24.384 38.0613 23.568 37.5333 23.04C37.0533 22.512 36.2373 22.512 35.7093 23.04Z" fill="#4252FF"/>
<path d="M12.2889 23.04C11.8089 22.512 10.9449 22.464 10.4169 22.992C9.88891 23.472 9.84091 24.336 10.3689 24.864L11.5209 26.064C11.7609 26.352 12.1449 26.496 12.4809 26.496C12.8169 26.496 13.1529 26.4 13.3929 26.16C13.9209 25.68 13.9689 24.816 13.4409 24.288L12.2889 23.04Z" fill="#4252FF"/>
</svg>
