<svg width="48" height="48" viewBox="0 0 48 48" fill="none" xmlns="http://www.w3.org/2000/svg">
<path d="M45.2169 9.3116L45.0729 9.0716C43.5849 4.3196 35.5209 1.3916 24.0009 1.3916H23.3769C21.4569 1.4396 19.4409 1.5356 17.3769 1.7756C15.4569 2.0636 13.8249 2.3036 12.0969 2.7836C10.7529 3.1676 9.21691 3.6476 7.82491 4.3676C6.28891 5.0876 4.56091 6.0956 3.50491 7.8716L3.12091 8.6396C2.97691 8.8316 2.64091 9.2156 2.64091 9.7916V14.0636V24.3836V34.7036V37.4396V37.4876C2.64091 37.6796 2.59291 37.9196 2.68891 38.2556C2.68891 38.3516 2.73691 38.4476 2.78491 38.5916C4.03291 43.3436 12.7689 46.6076 24.0009 46.6076C33.5529 46.6076 43.8729 44.1596 45.2649 38.6396L45.3609 38.1596V34.6556V24.3356V14.0636V9.5516L45.2169 9.3116ZM42.7209 22.2716C36.6249 23.7116 30.3369 24.4316 24.0009 24.4316C17.6649 24.4316 11.3769 23.7116 5.28091 22.2716V14.6876C11.3769 16.0796 17.6649 16.7996 24.0009 16.7996C30.3369 16.7996 36.6249 16.0796 42.7209 14.6876V22.2716ZM5.28091 25.0076C11.3769 26.3996 17.6649 27.1196 24.0009 27.1196C30.3369 27.1196 36.6249 26.3996 42.7209 25.0076V32.5916C36.6249 34.0316 30.3369 34.7516 24.0009 34.7516C17.6649 34.7516 11.3769 34.0316 5.28091 32.5916V25.0076ZM5.85691 9.1196C6.52891 8.0156 7.77691 7.2956 9.02491 6.7196C10.2729 6.0956 11.6649 5.6636 12.8169 5.3276C14.4009 4.8956 15.9369 4.6556 17.7609 4.4156C19.6329 4.1756 21.6009 4.0796 23.4729 4.0316H24.0009V4.0796C35.5689 4.0796 41.7609 7.1516 42.5769 9.9836L42.6249 10.1276L42.7209 10.2716V11.9516C36.6249 13.3916 30.3369 14.1116 24.0009 14.1116C17.6649 14.1116 11.3769 13.3916 5.28091 11.9516V10.1756C5.37691 10.0796 5.42491 9.9356 5.47291 9.7916L5.85691 9.1196ZM42.6729 38.0636C41.7609 41.3756 33.6009 43.9676 24.0009 43.9676C13.2969 43.9676 6.09691 40.8956 5.32891 37.9676C5.32891 37.9676 5.32891 37.9196 5.28091 37.8716V37.6796C5.28091 37.6316 5.28091 37.5356 5.28091 37.4876V35.3276C11.3769 36.7196 17.6649 37.4396 24.0009 37.4396C30.3369 37.4396 36.6249 36.7196 42.7209 35.3276V37.8716L42.6729 38.0636Z" fill="#4252FF"/>
</svg>
