<svg width="63" height="62" viewBox="0 0 63 62" fill="none" xmlns="http://www.w3.org/2000/svg">
<path fill-rule="evenodd" clip-rule="evenodd" d="M26.9976 24.0669C24.694 20.4202 20.6283 18.0005 15.9991 18.0005C8.81972 18.0005 2.99969 23.8205 2.99969 30.9999C2.99969 38.1793 8.81972 43.9993 15.9991 43.9993C20.6283 43.9993 24.694 41.5796 26.9976 37.9329V35.9991H32.9974L36.9972 31.9993L39.9971 34.9991L42.9969 31.9993L45.9968 34.9991L48.9967 31.9993L52.9965 35.9991H54.9964L59.9962 30.9993L54.9964 25.9995H26.9976V24.0669ZM29.268 23.9998C26.7542 19.2442 21.7564 16.0005 15.9991 16.0005C7.71515 16.0005 0.999687 22.716 0.999687 30.9999C0.999687 39.2838 7.71515 45.9993 15.9991 45.9993C21.7567 45.9993 26.7547 42.7553 29.2685 37.9992H33.9973L36.9972 34.9993L39.9971 37.9992L42.9969 34.9993L45.9968 37.9992L48.9967 34.9993L51.9966 37.9992H55.9964L62.9961 30.9995L55.9964 23.9998H29.268Z" fill="#4252FF"/>
<rect width="16.9993" height="1.99992" rx="0.999958" transform="matrix(-1 0 0 1 53.9966 27.9995)" fill="#4252FF"/>
<rect width="5.99975" height="1.99992" rx="0.999958" transform="matrix(-1 0 0 1 32.9961 27.9995)" fill="#4252FF"/>
<circle r="3.99979" transform="matrix(-1 0 0 1 11.9963 30.9993)" stroke="#4252FF" stroke-width="2"/>
</svg>
