<svg width="48" height="48" viewBox="0 0 48 48" fill="none" xmlns="http://www.w3.org/2000/svg">
<path d="M44.7832 15.8883H38.6872V5.28027C38.6872 4.08027 37.6792 3.07227 36.4792 3.07227H6.33518C5.13518 3.07227 4.12718 4.08027 4.12718 5.28027V21.0723C4.12718 21.4563 4.22318 21.7923 4.41518 22.0803C4.22318 22.3203 4.07918 22.6083 3.98318 22.9443L1.24718 36.1443V36.1923C1.15118 36.8643 1.29518 37.4883 1.72718 38.0163C2.15918 38.4963 2.78318 38.7843 3.40718 38.7843H28.2232V43.0563C28.2232 44.1123 29.0872 44.9763 30.1432 44.9763H44.8312C45.8872 44.9763 46.7512 44.1123 46.7512 43.0563V17.8083C46.7032 16.7523 45.8392 15.8883 44.7832 15.8883ZM28.2232 36.1443H3.93518L6.47918 23.8563H28.2232V36.1443ZM28.2232 17.8083V20.6883H6.76718V5.71227H36.0472V15.8883H30.1432C29.0872 15.8883 28.2232 16.7523 28.2232 17.8083ZM44.0632 42.3843H30.8632V18.5283H44.0632V42.3843Z" fill="#4252FF"/>
<path d="M37.0538 21.5523H38.3978C38.9258 21.5523 39.3578 21.1203 39.3578 20.5923C39.3578 20.0643 38.9258 19.6323 38.3978 19.6323H37.0538C36.5258 19.6323 36.0938 20.0643 36.0938 20.5923C36.0938 21.1203 36.4778 21.5523 37.0538 21.5523Z" fill="#4252FF"/>
<path d="M41.3277 21.4084C41.7784 21.4084 42.1437 21.043 42.1437 20.5924C42.1437 20.1417 41.7784 19.7764 41.3277 19.7764C40.8771 19.7764 40.5117 20.1417 40.5117 20.5924C40.5117 21.043 40.8771 21.4084 41.3277 21.4084Z" fill="#4252FF"/>
<path d="M37.7263 38.5444C36.9103 38.5444 36.2383 39.2164 36.2383 40.0324C36.2383 40.8484 36.9103 41.5204 37.7263 41.5204C38.5423 41.5204 39.2143 40.8484 39.2143 40.0324C39.2143 39.2164 38.5423 38.5444 37.7263 38.5444Z" fill="#4252FF"/>
</svg>
