<svg width="154" height="46" viewBox="0 0 154 46" fill="none" xmlns="http://www.w3.org/2000/svg">
<path d="M32.0415 0C30.5396 0 29.338 0.9 29.338 2.7V10.4C27.4355 9.2 25.0324 8.6 22.3289 8.6H11.3146C9.81264 8.6 8.61108 9.8 8.61108 11.3L14.0181 14H22.429C28.8373 14 29.4381 18.6 29.4381 20.6C29.4381 22.9 28.8373 24.5 27.7359 25.6C26.5344 26.7 24.732 27.2 22.2288 27.2H14.0181L8.61108 29.9C8.61108 31.4 9.81264 32.6 11.3146 32.6H22.2288C30.139 32.6 34.8451 28.1 34.8451 20.7V2.7C34.6449 0.8 33.4433 0 32.0415 0Z" fill="#FF3200"/>
<path d="M12.2153 26.9C12.0153 26.9 11.9153 27 11.7153 27C11.7153 27 11.7153 27 11.8153 27C11.9153 27 12.1153 27 12.2153 26.9Z" fill="#2C4EDD"/>
<path d="M20.5267 13.9C18.5241 10.7 15.1196 8.5 11.2146 8.5C9.11183 8.5 7.10923 9.1 5.40702 10.3V9V2.7C5.40702 0.8 4.20546 0 2.70351 0C1.20156 0 0 0.9 0 2.7V20.4C0 27 5.0065 32.4 11.2146 32.4C15.1196 32.4 18.5241 30.3 20.5267 27C21.7282 25.1 22.4291 22.9 22.4291 20.4C22.4291 17.9 21.7282 15.8 20.5267 13.9ZM13.9181 26.3C13.4174 26.6 12.9168 26.8 12.316 26.9C12.2159 26.9 12.0156 27 11.8153 27C11.6151 27 11.4148 27 11.2146 27C10.2133 27 9.31209 26.7 8.51105 26.3C6.60858 25.2 5.40702 23 5.40702 20.5C5.40702 18 6.70871 15.8 8.51105 14.7C9.31209 14.2 10.2133 14 11.2146 14C12.2159 14 13.117 14.3 13.9181 14.7C15.8205 15.8 17.0221 18 17.0221 20.5C17.0221 23 15.7204 25.2 13.9181 26.3Z" fill="#2C4EDD"/>
<path d="M17.1222 46C13.2172 46 9.41222 45.2 6.0078 43.5C4.60598 42.9 4.20546 41.4 4.80624 40.2C5.40702 39 6.70871 38.4 8.11053 39C13.7178 41.6 20.4265 41.7 26.5345 39C28.0364 38.4 29.238 39 29.8387 40.3C30.4395 41.6 29.9389 43 28.5371 43.6C24.9324 45.2 21.0273 46 17.1222 46Z" fill="url(#paint0_linear)"/>
<path d="M99.9297 45.2C99.1286 45.2 98.4277 44.5 98.4277 43.7C98.4277 42.9 99.1286 42.2 99.9297 42.2C100.731 42.2 101.432 42.9 101.432 43.7C101.432 44.5 100.731 45.2 99.9297 45.2Z" fill="black"/>
<path d="M110.043 44.1C109.442 44.7 108.541 45.2 107.239 45.2C105.837 45.2 104.936 44.7 104.436 44.1C103.635 43.2 103.434 42.2 103.434 40.5C103.434 38.8 103.635 37.8 104.436 36.9C105.036 36.3 105.938 35.8 107.239 35.8C108.641 35.8 109.542 36.3 110.043 36.9C110.844 37.8 111.044 38.8 111.044 40.5C111.144 42.3 110.844 43.3 110.043 44.1ZM106.138 42.8C106.438 43.1 106.739 43.2 107.239 43.2C107.74 43.2 108.04 43.1 108.341 42.8C108.841 42.3 108.841 41.5 108.841 40.6C108.841 39.6 108.741 38.8 108.341 38.4C108.04 38.1 107.74 38 107.239 38C106.739 38 106.438 38.1 106.138 38.4C105.637 38.9 105.637 39.7 105.637 40.6C105.637 41.6 105.737 42.4 106.138 42.8Z" fill="black"/>
<path d="M117.753 35.9C118.654 35.9 119.355 36.2 119.956 36.7C120.657 37.4 120.857 38.3 120.857 39.3V43.6C120.857 44.2 120.857 44.4 120.757 44.6C120.556 44.9 120.256 45.1 119.755 45.1C119.255 45.1 118.954 44.9 118.754 44.6C118.654 44.4 118.654 44.1 118.654 43.6V39.6C118.654 38.4 117.853 38 117.152 38C116.451 38 115.65 38.4 115.65 39.6V43.6C115.65 44.2 115.65 44.4 115.55 44.6C115.35 44.9 115.049 45.1 114.549 45.1C114.048 45.1 113.748 44.9 113.547 44.6C113.447 44.4 113.447 44.1 113.447 43.6V37.4C113.447 36.8 113.447 36.6 113.648 36.4C113.848 36.1 114.248 35.9 114.649 35.9C114.949 35.9 115.25 36 115.35 36.2C115.55 36.4 115.65 36.6 115.65 36.9C116.051 36.2 116.952 35.9 117.753 35.9Z" fill="black"/>
<path d="M125.563 42.4007C125.563 42.8007 125.763 43.2007 126.264 43.2007C126.564 43.2007 126.765 43.2007 126.965 43.3007C127.265 43.4007 127.465 43.7007 127.465 44.1007C127.465 44.5007 127.265 44.8007 126.965 44.9007C126.765 45.0007 126.464 45.1007 126.064 45.1007H125.963C124.061 45.1007 123.36 43.8007 123.36 42.5007V34.1006C123.36 33.5006 123.36 33.3006 123.46 33.1006C123.661 32.8006 123.961 32.6006 124.462 32.6006C124.962 32.6006 125.263 32.8006 125.463 33.1006C125.563 33.3006 125.563 33.6006 125.563 34.1006V42.4007Z" fill="black"/>
<path d="M130.069 32.1C130.77 32.1 131.37 32.7 131.37 33.4C131.37 34.1 130.77 34.7 130.069 34.7C129.368 34.7 128.767 34.1 128.767 33.4C128.767 32.7 129.368 32.1 130.069 32.1ZM131.07 44.7C130.87 45 130.569 45.2 130.069 45.2C129.568 45.2 129.268 45 129.067 44.7C128.967 44.5 128.967 44.2 128.967 43.7V37.8C128.967 37.2 128.967 37 129.067 36.8C129.268 36.5 129.568 36.3 130.069 36.3C130.569 36.3 130.87 36.5 131.07 36.8C131.17 37 131.17 37.3 131.17 37.8V43.7C131.17 44.2 131.17 44.4 131.07 44.7Z" fill="black"/>
<path d="M138.279 35.9C139.181 35.9 139.882 36.2 140.482 36.7C141.183 37.4 141.383 38.3 141.383 39.3V43.6C141.383 44.2 141.383 44.4 141.283 44.6C141.083 44.9 140.783 45.1 140.282 45.1C139.781 45.1 139.481 44.9 139.281 44.6C139.181 44.4 139.181 44.1 139.181 43.6V39.6C139.181 38.4 138.38 38 137.679 38C136.978 38 136.177 38.4 136.177 39.6V43.6C136.177 44.2 136.177 44.4 136.077 44.6C135.876 44.9 135.576 45.1 135.075 45.1C134.575 45.1 134.274 44.9 134.074 44.6C133.974 44.4 133.974 44.1 133.974 43.6V37.4C133.974 36.8 133.974 36.6 134.174 36.4C134.374 36.1 134.775 35.9 135.175 35.9C135.476 35.9 135.776 36 135.876 36.2C136.077 36.4 136.177 36.6 136.177 36.9C136.577 36.2 137.378 35.9 138.279 35.9Z" fill="black"/>
<path d="M145.589 41.3C145.589 42.5 146.29 43.3 147.591 43.3C148.192 43.3 148.693 43.1 149.194 42.8C149.594 42.5 149.794 42.5 149.995 42.5C150.395 42.5 150.896 42.9 150.896 43.5C150.896 43.9 150.495 44.3 149.995 44.7C149.394 45.1 148.493 45.3 147.491 45.3C145.288 45.3 143.286 44.3 143.286 40.6C143.286 37.6 144.888 35.9 147.291 35.9C149.794 35.9 151.196 37.7 151.296 40C151.296 40.4 151.296 40.7 150.996 41C150.696 41.3 150.295 41.3 149.995 41.3H145.589ZM148.893 38.8C148.693 38.3 148.092 37.9 147.391 37.9C146.59 37.9 146.09 38.3 145.889 38.8C145.789 39.1 145.689 39.4 145.689 39.8H149.194C149.093 39.4 148.993 39.1 148.893 38.8Z" fill="black"/>
<path d="M135.576 26.7999C131.07 26.7999 127.365 22.9 127.365 18C127.365 13 130.67 9.19995 135.175 9.19995C137.378 9.19995 139.481 10.2 140.783 11.9C142.184 13.6 142.585 15.9 142.285 17.8C142.184 18.6 141.784 19.4 140.683 19.4H131.27C131.571 21.6 133.573 23.1 135.576 23.1C137.078 23.1 138.279 22.7 138.98 22.4C140.082 21.9 140.983 21.8 141.584 22.5C142.184 23.3 142.184 24.1 141.383 24.9C139.581 26.6 136.978 26.7999 135.576 26.7999ZM131.07 16.6H138.98C138.88 15.7 138.68 15 138.179 14.3C137.478 13.3 136.377 12.8 135.175 12.8C133.073 12.8 131.671 14.5 131.07 16.6Z" fill="black"/>
<path d="M62.6813 9.29998C60.5786 9.29998 58.7762 10.2 57.4746 11.6V5.39998C57.4746 4.19998 56.6735 3.59998 55.6722 3.59998C54.6709 3.59998 53.8699 4.19998 53.8699 5.39998V25C53.8699 26.4 54.5708 26.8 55.5721 26.8C56.5734 26.8 57.2743 26.2 57.2743 25V24.3C58.576 25.8 60.4785 26.8 62.6813 26.8C66.7866 26.8 70.2912 22.9 70.2912 18C70.2912 13.2 66.5864 9.29998 62.6813 9.29998ZM62.0805 23.2C59.5773 23.2 57.4746 20.9 57.4746 18C57.4746 15.1 59.5773 12.8 62.0805 12.8C64.5838 12.8 66.6865 15.1 66.6865 18C66.6865 20.9 64.6839 23.2 62.0805 23.2Z" fill="black"/>
<path d="M80.3042 26.7999C75.7983 26.7999 72.0935 22.9 72.0935 18C72.0935 13.2 75.7983 9.19995 80.3042 9.19995C84.81 9.19995 88.5148 13.1 88.5148 18C88.4147 22.9 84.81 26.7999 80.3042 26.7999ZM80.3042 12.8C77.8009 12.8 75.6982 15.1 75.6982 18C75.6982 20.9 77.8009 23.2 80.3042 23.2C82.8074 23.2 84.9102 20.9 84.9102 18C84.9102 15.1 82.8074 12.8 80.3042 12.8Z" fill="black"/>
<path d="M98.4277 26.7999C93.9219 26.7999 90.217 22.9 90.217 18C90.217 13.2 93.9219 9.19995 98.4277 9.19995C102.934 9.19995 106.638 13.1 106.638 18C106.638 22.9 102.934 26.7999 98.4277 26.7999ZM98.4277 12.8C95.9245 12.8 93.8217 15.1 93.8217 18C93.8217 20.9 95.9245 23.2 98.4277 23.2C100.931 23.2 103.034 20.9 103.034 18C103.034 15.1 100.931 12.8 98.4277 12.8Z" fill="black"/>
<path d="M152.197 12.7001C153.399 12.7001 154 12.0001 154 11.1001C154 10.2001 153.399 9.50013 152.197 9.50013H149.394V5.50013C149.394 4.20013 148.593 3.70013 147.591 3.70013C146.59 3.70013 145.789 4.30013 145.789 5.50013V9.50013H145.088C143.887 9.50013 143.286 10.2001 143.286 11.1001C143.286 12.0001 143.887 12.7001 145.088 12.7001H145.789V19.9001C145.789 24.7001 147.591 26.8001 151.497 26.8001C152.698 26.8001 153.299 26.0001 153.299 25.2001C153.299 24.2001 152.498 23.7001 151.597 23.6001C150.095 23.4001 149.394 23.2001 149.394 19.9001V12.7001H152.197Z" fill="black"/>
<path d="M122.96 3.70013C121.958 3.70013 121.157 4.30013 121.157 5.50013V11.6001C119.856 10.2001 118.053 9.30013 115.95 9.30013C112.045 9.30013 108.341 13.2001 108.341 18.1001C108.341 22.9001 111.845 26.9001 115.95 26.9001C118.153 26.9001 120.056 26.0001 121.357 24.4001V25.0001C121.357 26.2001 122.058 26.8001 123.06 26.8001C124.061 26.8001 124.762 26.4001 124.762 25.0001V5.40013C124.762 4.20013 123.961 3.70013 122.96 3.70013ZM116.551 23.2001C114.048 23.2001 111.945 20.9001 111.945 18.0001C111.945 15.1001 114.048 12.8001 116.551 12.8001C119.054 12.8001 121.157 15.1001 121.157 18.0001C121.157 20.9001 119.155 23.2001 116.551 23.2001Z" fill="black"/>
<defs>
<linearGradient id="paint0_linear" x1="4.5433" y1="42.3762" x2="30.1394" y2="42.3762" gradientUnits="userSpaceOnUse">
<stop stop-color="#FF3201"/>
<stop offset="0.5019" stop-color="#C45492"/>
<stop offset="1" stop-color="#2C4EDD"/>
</linearGradient>
</defs>
</svg>
