<svg width="35" height="46" viewBox="0 0 35 46" fill="none" xmlns="http://www.w3.org/2000/svg">
<path d="M32.0398 0C30.5378 0 29.3363 0.9 29.3363 2.7V10.4C27.4338 9.2 25.0307 8.6 22.3272 8.6H11.3129C9.81094 8.6 8.60938 9.8 8.60938 11.3L14.0164 14H22.4273C28.8356 14 29.4364 18.6 29.4364 20.6C29.4364 22.9 28.8356 24.5 27.7342 25.6C26.5326 26.7 24.7303 27.2 22.2271 27.2H14.0164L8.60938 29.9C8.60938 31.4 9.81094 32.6 11.3129 32.6H22.2271C30.1373 32.6 34.8434 28.1 34.8434 20.7V2.7C34.6432 0.8 33.4416 0 32.0398 0Z" fill="#FF3200"/>
<path d="M12.2148 26.9C12.0148 26.9 11.9148 27 11.7148 27C11.7148 27 11.7148 27 11.8148 27C11.9148 27 12.1148 27 12.2148 26.9Z" fill="#2C4EDD"/>
<path d="M20.5267 13.9C18.5241 10.7 15.1196 8.5 11.2146 8.5C9.11183 8.5 7.10923 9.1 5.40702 10.3V9V2.7C5.40702 0.8 4.20546 0 2.70351 0C1.20156 0 0 0.9 0 2.7V20.4C0 27 5.0065 32.4 11.2146 32.4C15.1196 32.4 18.5241 30.3 20.5267 27C21.7282 25.1 22.4291 22.9 22.4291 20.4C22.4291 17.9 21.7282 15.8 20.5267 13.9ZM13.9181 26.3C13.4174 26.6 12.9168 26.8 12.316 26.9C12.2159 26.9 12.0156 27 11.8153 27C11.6151 27 11.4148 27 11.2146 27C10.2133 27 9.31209 26.7 8.51105 26.3C6.60858 25.2 5.40702 23 5.40702 20.5C5.40702 18 6.70871 15.8 8.51105 14.7C9.31209 14.2 10.2133 14 11.2146 14C12.2159 14 13.117 14.3 13.9181 14.7C15.8205 15.8 17.0221 18 17.0221 20.5C17.0221 23 15.7204 25.2 13.9181 26.3Z" fill="#2C4EDD"/>
<path d="M17.1215 46C13.2164 46 9.41149 45.2 6.00707 43.5C4.60525 42.9 4.20473 41.4 4.80551 40.2C5.40629 39 6.70798 38.4 8.1098 39C13.7171 41.6 20.4258 41.7 26.5337 39C28.0357 38.4 29.2372 39 29.838 40.3C30.4388 41.6 29.9381 43 28.5363 43.6C24.9316 45.2 21.0266 46 17.1215 46Z" fill="url(#paint0_linear)"/>
<defs>
<linearGradient id="paint0_linear" x1="4.54257" y1="42.3762" x2="30.1387" y2="42.3762" gradientUnits="userSpaceOnUse">
<stop stop-color="#FF3201"/>
<stop offset="0.5019" stop-color="#C45492"/>
<stop offset="1" stop-color="#2C4EDD"/>
</linearGradient>
</defs>
</svg>
