<svg width="154" height="46" viewBox="0 0 154 46" fill="none" xmlns="http://www.w3.org/2000/svg">
<g clip-path="url(#clip0)">
<path d="M32.0398 0C30.5378 0 29.3363 0.9 29.3363 2.7V10.4C27.4338 9.2 25.0307 8.6 22.3272 8.6H11.3129C9.81094 8.6 8.60938 9.8 8.60938 11.3L14.0164 14H22.4273C28.8356 14 29.4364 18.6 29.4364 20.6C29.4364 22.9 28.8356 24.5 27.7342 25.6C26.5326 26.7 24.7303 27.2 22.2271 27.2H14.0164L8.60938 29.9C8.60938 31.4 9.81094 32.6 11.3129 32.6H22.2271C30.1373 32.6 34.8434 28.1 34.8434 20.7V2.7C34.6432 0.8 33.4416 0 32.0398 0Z" fill="white"/>
<path d="M12.2148 26.9C12.0148 26.9 11.9148 27 11.7148 27C11.7148 27 11.7148 27 11.8148 27C11.9148 27 12.1148 27 12.2148 26.9Z" fill="white"/>
<path d="M20.5267 13.9C18.5241 10.7 15.1196 8.5 11.2146 8.5C9.11183 8.5 7.10923 9.1 5.40702 10.3V9V2.7C5.40702 0.8 4.20546 0 2.70351 0C1.20156 0 0 0.9 0 2.7V20.4C0 27 5.0065 32.4 11.2146 32.4C15.1196 32.4 18.5241 30.3 20.5267 27C21.7282 25.1 22.4291 22.9 22.4291 20.4C22.4291 17.9 21.7282 15.8 20.5267 13.9ZM13.9181 26.3C13.4174 26.6 12.9168 26.8 12.316 26.9C12.2159 26.9 12.0156 27 11.8153 27C11.6151 27 11.4148 27 11.2146 27C10.2133 27 9.31209 26.7 8.51105 26.3C6.60858 25.2 5.40702 23 5.40702 20.5C5.40702 18 6.70871 15.8 8.51105 14.7C9.31209 14.2 10.2133 14 11.2146 14C12.2159 14 13.117 14.3 13.9181 14.7C15.8205 15.8 17.0221 18 17.0221 20.5C17.0221 23 15.7204 25.2 13.9181 26.3Z" fill="white"/>
<path d="M17.1215 46C13.2164 46 9.41149 45.2 6.00707 43.5C4.60525 42.9 4.20473 41.4 4.80551 40.2C5.40629 39 6.70798 38.4 8.1098 39C13.7171 41.6 20.4258 41.7 26.5337 39C28.0357 38.4 29.2372 39 29.838 40.3C30.4388 41.6 29.9381 43 28.5363 43.6C24.9316 45.2 21.0266 46 17.1215 46Z" fill="white"/>
<path d="M99.9316 45.2C99.1306 45.2 98.4297 44.5 98.4297 43.7C98.4297 42.9 99.1306 42.2 99.9316 42.2C100.733 42.2 101.434 42.9 101.434 43.7C101.434 44.5 100.733 45.2 99.9316 45.2Z" fill="white"/>
<path d="M110.046 44.1C109.445 44.7 108.544 45.2 107.242 45.2C105.841 45.2 104.939 44.7 104.439 44.1C103.638 43.2 103.438 42.2 103.438 40.5C103.438 38.8 103.638 37.8 104.439 36.9C105.04 36.3 105.941 35.8 107.242 35.8C108.644 35.8 109.545 36.3 110.046 36.9C110.847 37.8 111.047 38.8 111.047 40.5C111.148 42.3 110.847 43.3 110.046 44.1ZM106.141 42.8C106.441 43.1 106.742 43.2 107.242 43.2C107.743 43.2 108.043 43.1 108.344 42.8C108.845 42.3 108.845 41.5 108.845 40.6C108.845 39.6 108.744 38.8 108.344 38.4C108.043 38.1 107.743 38 107.242 38C106.742 38 106.441 38.1 106.141 38.4C105.64 38.9 105.64 39.7 105.64 40.6C105.64 41.6 105.74 42.4 106.141 42.8Z" fill="white"/>
<path d="M117.755 35.9C118.656 35.9 119.357 36.2 119.958 36.7C120.659 37.4 120.859 38.3 120.859 39.3V43.6C120.859 44.2 120.859 44.4 120.759 44.6C120.558 44.9 120.258 45.1 119.757 45.1C119.257 45.1 118.956 44.9 118.756 44.6C118.656 44.4 118.656 44.1 118.656 43.6V39.6C118.656 38.4 117.855 38 117.154 38C116.453 38 115.652 38.4 115.652 39.6V43.6C115.652 44.2 115.652 44.4 115.552 44.6C115.352 44.9 115.051 45.1 114.551 45.1C114.05 45.1 113.75 44.9 113.549 44.6C113.449 44.4 113.449 44.1 113.449 43.6V37.4C113.449 36.8 113.449 36.6 113.649 36.4C113.85 36.1 114.25 35.9 114.651 35.9C114.951 35.9 115.252 36 115.352 36.2C115.552 36.4 115.652 36.6 115.652 36.9C116.053 36.2 116.954 35.9 117.755 35.9Z" fill="white"/>
<path d="M125.566 42.4007C125.566 42.8007 125.766 43.2007 126.267 43.2007C126.567 43.2007 126.768 43.2007 126.968 43.3007C127.268 43.4007 127.469 43.7007 127.469 44.1007C127.469 44.5007 127.268 44.8007 126.968 44.9007C126.768 45.0007 126.467 45.1007 126.067 45.1007H125.967C124.064 45.1007 123.363 43.8007 123.363 42.5007V34.1007C123.363 33.5007 123.363 33.3007 123.463 33.1007C123.664 32.8007 123.964 32.6007 124.465 32.6007C124.965 32.6007 125.266 32.8007 125.466 33.1007C125.566 33.3007 125.566 33.6007 125.566 34.1007V42.4007Z" fill="white"/>
<path d="M130.071 32.1C130.772 32.1 131.373 32.7 131.373 33.4C131.373 34.1 130.772 34.7 130.071 34.7C129.37 34.7 128.77 34.1 128.77 33.4C128.77 32.7 129.37 32.1 130.071 32.1ZM131.073 44.7C130.872 45 130.572 45.2 130.071 45.2C129.571 45.2 129.27 45 129.07 44.7C128.97 44.5 128.97 44.2 128.97 43.7V37.8C128.97 37.2 128.97 37 129.07 36.8C129.27 36.5 129.571 36.3 130.071 36.3C130.572 36.3 130.872 36.5 131.073 36.8C131.173 37 131.173 37.3 131.173 37.8V43.7C131.173 44.2 131.173 44.4 131.073 44.7Z" fill="white"/>
<path d="M138.282 35.9C139.183 35.9 139.884 36.2 140.485 36.7C141.186 37.4 141.386 38.3 141.386 39.3V43.6C141.386 44.2 141.386 44.4 141.286 44.6C141.086 44.9 140.785 45.1 140.285 45.1C139.784 45.1 139.484 44.9 139.283 44.6C139.183 44.4 139.183 44.1 139.183 43.6V39.6C139.183 38.4 138.382 38 137.681 38C136.98 38 136.179 38.4 136.179 39.6V43.6C136.179 44.2 136.179 44.4 136.079 44.6C135.879 44.9 135.579 45.1 135.078 45.1C134.577 45.1 134.277 44.9 134.077 44.6C133.977 44.4 133.977 44.1 133.977 43.6V37.4C133.977 36.8 133.977 36.6 134.177 36.4C134.377 36.1 134.778 35.9 135.178 35.9C135.479 35.9 135.779 36 135.879 36.2C136.079 36.4 136.179 36.6 136.179 36.9C136.58 36.2 137.381 35.9 138.282 35.9Z" fill="white"/>
<path d="M145.592 41.3C145.592 42.5 146.293 43.3 147.595 43.3C148.195 43.3 148.696 43.1 149.197 42.8C149.597 42.5 149.798 42.5 149.998 42.5C150.398 42.5 150.899 42.9 150.899 43.5C150.899 43.9 150.498 44.3 149.998 44.7C149.397 45.1 148.496 45.3 147.495 45.3C145.292 45.3 143.289 44.3 143.289 40.6C143.289 37.6 144.891 35.9 147.294 35.9C149.798 35.9 151.199 37.7 151.299 40C151.299 40.4 151.299 40.7 150.999 41C150.699 41.3 150.298 41.3 149.998 41.3H145.592ZM148.896 38.8C148.696 38.3 148.095 37.9 147.394 37.9C146.593 37.9 146.093 38.3 145.892 38.8C145.792 39.1 145.692 39.4 145.692 39.8H149.197C149.097 39.4 148.996 39.1 148.896 38.8Z" fill="white"/>
<path d="M135.578 26.8C131.072 26.8 127.367 22.9 127.367 18C127.367 13 130.671 9.2 135.177 9.2C137.38 9.2 139.483 10.2 140.785 11.9C142.186 13.6 142.587 15.9 142.287 17.8C142.186 18.6 141.786 19.4 140.684 19.4H131.272C131.573 21.6 133.575 23.1 135.578 23.1C137.08 23.1 138.281 22.7 138.982 22.4C140.084 21.9 140.985 21.8 141.586 22.5C142.186 23.3 142.186 24.1 141.385 24.9C139.583 26.6 136.98 26.8 135.578 26.8ZM131.072 16.6H138.982C138.882 15.7 138.682 15 138.181 14.3C137.48 13.3 136.379 12.8 135.177 12.8C133.075 12.8 131.673 14.5 131.072 16.6Z" fill="white"/>
<path d="M62.6825 9.3C60.5798 9.3 58.7775 10.2 57.4758 11.6V5.4C57.4758 4.2 56.6747 3.6 55.6734 3.6C54.6721 3.6 53.8711 4.2 53.8711 5.4V25C53.8711 26.4 54.572 26.8 55.5733 26.8C56.5746 26.8 57.2755 26.2 57.2755 25V24.3C58.5772 25.8 60.4797 26.8 62.6825 26.8C66.7879 26.8 70.2924 22.9 70.2924 18C70.2924 13.2 66.5876 9.3 62.6825 9.3ZM62.0818 23.2C59.5785 23.2 57.4758 20.9 57.4758 18C57.4758 15.1 59.5785 12.8 62.0818 12.8C64.585 12.8 66.6877 15.1 66.6877 18C66.6877 20.9 64.6851 23.2 62.0818 23.2Z" fill="white"/>
<path d="M80.3044 26.8C75.7986 26.8 72.0938 22.9 72.0938 18C72.0938 13.2 75.7986 9.2 80.3044 9.2C84.8103 9.2 88.5151 13.1 88.5151 18C88.4149 22.9 84.8103 26.8 80.3044 26.8ZM80.3044 12.8C77.8012 12.8 75.6984 15.1 75.6984 18C75.6984 20.9 77.8012 23.2 80.3044 23.2C82.8077 23.2 84.9104 20.9 84.9104 18C84.9104 15.1 82.8077 12.8 80.3044 12.8Z" fill="white"/>
<path d="M98.4294 26.8C93.9236 26.8 90.2188 22.9 90.2188 18C90.2188 13.2 93.9236 9.2 98.4294 9.2C102.935 9.2 106.64 13.1 106.64 18C106.64 22.9 102.935 26.8 98.4294 26.8ZM98.4294 12.8C95.9262 12.8 93.8234 15.1 93.8234 18C93.8234 20.9 95.9262 23.2 98.4294 23.2C100.933 23.2 103.035 20.9 103.035 18C103.035 15.1 100.933 12.8 98.4294 12.8Z" fill="white"/>
<path d="M152.201 12.7001C153.402 12.7001 154.003 12.0001 154.003 11.1001C154.003 10.2001 153.402 9.50013 152.201 9.50013H149.397V5.50013C149.397 4.20013 148.596 3.70013 147.595 3.70013C146.593 3.70013 145.792 4.30013 145.792 5.50013V9.50013H145.091C143.89 9.50013 143.289 10.2001 143.289 11.1001C143.289 12.0001 143.89 12.7001 145.091 12.7001H145.792V19.9001C145.792 24.7001 147.595 26.8001 151.5 26.8001C152.701 26.8001 153.302 26.0001 153.302 25.2001C153.302 24.2001 152.501 23.7001 151.6 23.6001C150.098 23.4001 149.397 23.2001 149.397 19.9001V12.7001H152.201Z" fill="white"/>
<path d="M122.963 3.70013C121.961 3.70013 121.16 4.30013 121.16 5.50013V11.6001C119.859 10.2001 118.056 9.30013 115.954 9.30013C112.049 9.30013 108.344 13.2001 108.344 18.1001C108.344 22.9001 111.848 26.9001 115.954 26.9001C118.156 26.9001 120.059 26.0001 121.361 24.4001V25.0001C121.361 26.2001 122.062 26.8001 123.063 26.8001C124.064 26.8001 124.765 26.4001 124.765 25.0001V5.40013C124.765 4.20013 123.964 3.70013 122.963 3.70013ZM116.554 23.2001C114.051 23.2001 111.948 20.9001 111.948 18.0001C111.948 15.1001 114.051 12.8001 116.554 12.8001C119.058 12.8001 121.16 15.1001 121.16 18.0001C121.16 20.9001 119.158 23.2001 116.554 23.2001Z" fill="white"/>
</g>
<defs>
<clipPath id="clip0">
<rect width="154" height="46" fill="white"/>
</clipPath>
</defs>
</svg>
