<svg width="32" height="32" viewBox="0 0 32 32" fill="none" xmlns="http://www.w3.org/2000/svg">
<rect width="32" height="32" fill="white"/>
<path d="M26.069 0C25.0345 0 24.2069 0.62609 24.2069 1.87827V7.23482C22.8966 6.40003 21.2414 5.98264 19.3794 5.98264H11.7932C10.7587 5.98264 9.93115 6.81743 9.93115 7.86091L13.6553 9.73918H19.4483C23.8621 9.73918 24.2759 12.9392 24.2759 14.3305C24.2759 15.9305 23.8621 17.0436 23.1035 17.8088C22.2759 18.574 21.0345 18.9218 19.3104 18.9218H13.6553L9.93115 20.8001C9.93115 21.8436 10.7587 22.6784 11.7932 22.6784H19.3104C24.7586 22.6784 28 19.5479 28 14.4001V1.87827C27.8621 0.556525 27.0345 0 26.069 0Z" fill="#D5D9E5"/>
<path d="M18.1378 9.66962C16.7585 7.44352 14.4137 5.91308 11.7241 5.91308C10.2758 5.91308 8.89652 6.33047 7.72411 7.16526V6.2609V1.87827C7.72411 0.556525 6.89653 0 5.86206 0C4.82758 0 4 0.62609 4 1.87827V14.1914C4 18.7827 7.44825 22.5393 11.7241 22.5393C14.4137 22.5393 16.7585 21.0784 18.1378 18.7827C18.9654 17.461 19.4482 15.9305 19.4482 14.1914C19.4482 12.4522 18.9654 10.9914 18.1378 9.66962ZM13.5861 18.2958C13.2413 18.5044 12.8965 18.6436 12.4827 18.7131C12.4137 18.7131 12.2758 18.7827 12.1379 18.7827C11.9999 18.7827 11.862 18.7827 11.7241 18.7827C11.0344 18.7827 10.4138 18.574 9.86203 18.2958C8.55169 17.5305 7.72411 16.0001 7.72411 14.2609C7.72411 12.5218 8.62066 10.9914 9.86203 10.2261C10.4138 9.87831 11.0344 9.73918 11.7241 9.73918C12.4137 9.73918 13.0344 9.94788 13.5861 10.2261C14.8965 10.9914 15.7241 12.5218 15.7241 14.2609C15.7241 16.0001 14.8275 17.5305 13.5861 18.2958Z" fill="#D5D9E5"/>
<path d="M15.7929 32.0001C13.1033 32.0001 10.4826 31.4436 8.13781 30.261C7.1723 29.8436 6.89644 28.8001 7.31023 27.9653C7.72402 27.1305 8.62057 26.7131 9.58608 27.1305C13.4481 28.9392 18.0688 29.0088 22.2756 27.1305C23.3101 26.7131 24.1377 27.1305 24.5515 28.0349C24.9653 28.9392 24.6205 29.9132 23.6549 30.3306C21.1722 31.4436 18.4826 32.0001 15.7929 32.0001Z" fill="#D5D9E5"/>
</svg>
