<svg width="36" height="44" viewBox="0 0 36 44" fill="none" xmlns="http://www.w3.org/2000/svg">
<path d="M35 18C35 20.2178 33.9827 22.8981 32.3229 25.7539C30.6775 28.5849 28.4697 31.473 26.2403 34.0777C24.0141 36.6785 21.7851 38.9752 20.111 40.6228C19.2746 41.446 18.5782 42.1058 18.0918 42.5589C18.0603 42.5882 18.0297 42.6167 18 42.6443C17.9703 42.6167 17.9397 42.5882 17.9082 42.5589C17.4218 42.1058 16.7254 41.446 15.889 40.6228C14.2149 38.9752 11.9859 36.6785 9.75971 34.0777C7.53028 31.473 5.32246 28.5849 3.67708 25.7539C2.01731 22.8981 1 20.2178 1 18C1 8.61116 8.61116 1 18 1C27.3888 1 35 8.61116 35 18Z" stroke="#2C4EDD" stroke-width="2"/>
</svg>
