<svg width="76" height="60" viewBox="0 0 76 60" fill="none" xmlns="http://www.w3.org/2000/svg">
<path fill-rule="evenodd" clip-rule="evenodd" d="M30.9499 4.4012V0C20.2445 3.89222 12.4099 9.04192 7.44591 15.4491C2.48197 21.8563 0 29.1018 0 37.1856C0 44.1317 1.8241 49.6707 5.4723 53.8024C9.12049 57.9341 13.4565 60 18.4802 60C22.7863 60 26.4345 58.4731 29.4248 55.4192C32.4749 52.3653 34 48.8323 34 44.8204C34 40.988 32.6843 37.6946 30.0528 34.9401C27.4213 32.1257 24.4011 30.7186 20.9921 30.7186C18.0616 30.7186 15.6394 31.4072 13.7256 32.7844C13.1275 33.2036 12.679 33.4132 12.3799 33.4132C12.0809 33.4132 11.8118 33.2335 11.5726 32.8743C11.2137 32.3353 11.0343 31.497 11.0343 30.3593C11.0343 25.0898 12.7986 20.0299 16.3272 15.1796C19.8558 10.2695 24.73 6.67665 30.9499 4.4012ZM72.9499 4.4012V0C62.2445 3.89222 54.4099 9.04192 49.4459 15.4491C44.482 21.8563 42 29.1018 42 37.1856C42 44.1317 43.8241 49.6707 47.4723 53.8024C51.1205 57.9341 55.4565 60 60.4802 60C64.7863 60 68.4345 58.4731 71.4248 55.4192C74.4749 52.3653 76 48.8323 76 44.8204C76 40.988 74.6843 37.6946 72.0528 34.9401C69.4213 32.1257 66.4011 30.7186 62.9921 30.7186C60.0616 30.7186 57.6394 31.4072 55.7256 32.7844C55.1275 33.2036 54.679 33.4132 54.3799 33.4132C54.0809 33.4132 53.8118 33.2335 53.5726 32.8743C53.2137 32.3353 53.0343 31.497 53.0343 30.3593C53.0343 25.0898 54.7986 20.0299 58.3272 15.1796C61.8558 10.2695 66.73 6.67665 72.9499 4.4012Z" fill="url(#paint0_linear)"/>
<defs>
<linearGradient id="paint0_linear" x1="2.58074e-07" y1="35.5" x2="69.8626" y2="14.7932" gradientUnits="userSpaceOnUse">
<stop stop-color="#E54527"/>
<stop offset="1" stop-color="#4151FF"/>
</linearGradient>
</defs>
</svg>
