<svg width="62" height="62" viewBox="0 0 62 62" fill="none" xmlns="http://www.w3.org/2000/svg">
<path fill-rule="evenodd" clip-rule="evenodd" d="M10 16C8.89543 16 8 16.8954 8 18V44C8 45.1046 8.89543 46 10 46H52C53.1046 46 54 45.1046 54 44V18C54 16.8954 53.1046 16 52 16H10ZM52 18H10V44H52V18Z" fill="#4252FF"/>
<rect x="14" y="22" width="34" height="2" rx="1" fill="#4252FF"/>
<rect x="14" y="27" width="34" height="2" rx="1" fill="#4252FF"/>
<rect x="14" y="32" width="17" height="2" rx="1" fill="#4252FF"/>
<rect x="14" y="37" width="17" height="2" rx="1" fill="#4252FF"/>
<rect x="38" y="44" width="6" height="2" fill="white"/>
<path fill-rule="evenodd" clip-rule="evenodd" d="M44 42.1973C43.1175 42.7078 42.0929 43 41 43C39.9071 43 38.8825 42.7078 38 42.1973V47.9999L41 45.9999L44 47.9999V42.1973ZM36 40.3178C35.3682 39.3675 35 38.2267 35 37C35 33.6863 37.6863 31 41 31C44.3137 31 47 33.6863 47 37C47 38.2267 46.6318 39.3675 46 40.3178V51.9999L41 47.9999L36 51.9999V40.3178ZM45 37C45 39.2091 43.2091 41 41 41C38.7909 41 37 39.2091 37 37C37 34.7909 38.7909 33 41 33C43.2091 33 45 34.7909 45 37Z" fill="#4252FF"/>
</svg>
