<svg width="48" height="48" viewBox="0 0 48 48" fill="none" xmlns="http://www.w3.org/2000/svg">
<path d="M44.6387 7.05566H3.35869C2.11069 7.05566 1.05469 8.06366 1.05469 9.35966V29.7597C1.05469 31.0077 2.06269 32.0637 3.35869 32.0637H22.0787V38.3517H17.0867C16.3667 38.3517 15.7427 38.9277 15.7427 39.6957C15.7427 40.4637 16.3187 41.0397 17.0867 41.0397H30.9107C31.6307 41.0397 32.2547 40.4637 32.2547 39.6957C32.2547 38.9277 31.6787 38.3517 30.9107 38.3517H25.9187V32.0637H44.6387C45.8867 32.0637 46.9427 31.0557 46.9427 29.7597V9.31166C46.9427 8.06366 45.8867 7.05566 44.6387 7.05566ZM44.3027 29.4237H3.74269V9.69566H44.3027V29.4237Z" fill="#4252FF"/>
<path d="M9.54984 25.9202H20.1098C20.6378 25.9202 21.0698 25.4882 21.0698 24.9602V14.1602C21.0698 13.6322 20.6378 13.2002 20.1098 13.2002H9.54984C9.02184 13.2002 8.58984 13.6322 8.58984 14.1602V24.9602C8.58984 25.4882 9.02184 25.9202 9.54984 25.9202Z" fill="#4252FF"/>
<path d="M25.3897 19.4394H38.4937C39.0217 19.4394 39.4537 19.0074 39.4537 18.4794V14.1114C39.4537 13.5834 39.0217 13.1514 38.4937 13.1514H25.3897C24.8617 13.1514 24.4297 13.5834 24.4297 14.1114V18.4794C24.4297 19.0074 24.8617 19.4394 25.3897 19.4394Z" fill="#4252FF"/>
<path d="M25.3897 25.9193H38.4937C39.0217 25.9193 39.4537 25.4873 39.4537 24.9593V24.2393C39.4537 23.7113 39.0217 23.2793 38.4937 23.2793H25.3897C24.8617 23.2793 24.4297 23.7113 24.4297 24.2393V24.9593C24.4297 25.4873 24.8617 25.9193 25.3897 25.9193Z" fill="#4252FF"/>
</svg>
