<svg width="266" height="266" viewBox="0 0 266 266" fill="none" xmlns="http://www.w3.org/2000/svg">
<path d="M0 46.0785L103.817 31.9398L103.862 132.079L0.0948364 132.67L0 46.0785ZM103.767 143.617L103.848 243.844L0.0805818 229.578L0.0747636 142.945L103.767 143.617ZM116.352 30.0902L254.005 10V130.806L116.352 131.899V30.0902ZM254.037 144.56L254.004 264.822L116.352 245.394L116.159 144.335L254.037 144.56Z" fill="black" fill-opacity="0.32"/>
<path d="M10 36.0785L113.817 21.9398L113.862 122.079L10.0948 122.67L10 36.0785ZM113.767 133.617L113.848 233.844L10.0806 219.578L10.0748 132.945L113.767 133.617ZM126.352 20.0902L264.005 0V120.806L126.352 121.899V20.0902ZM264.037 134.56L264.004 254.822L126.352 235.394L126.159 134.335L264.037 134.56Z" fill="url(#paint0_linear)"/>
<defs>
<linearGradient id="paint0_linear" x1="64.9078" y1="25.1667" x2="255.713" y2="158.6" gradientUnits="userSpaceOnUse">
<stop stop-color="#45FFFF"/>
<stop offset="0.2" stop-color="#46F2F9"/>
<stop offset="0.580392" stop-color="#4ACFE8"/>
<stop offset="1" stop-color="#4FA1D1"/>
</linearGradient>
</defs>
</svg>
